<?xml version="1.0"?>
<!DOCTYPE svg PUBLIC "-//W3C//DTD SVG 1.1//EN" "http://www.w3.org/Graphics/SVG/1.1/DTD/svg11.dtd">
<svg width="28.3955982504mm" height="28.3955982504mm" viewBox="0 0 28.3955982504 28.3955982504" xmlns="http://www.w3.org/2000/svg" version="1.1">
<g transform="translate(14.1977991252,14.1977991252) scale(1,-1)">
<circle cx="0.0" cy="0.0" r="9.0" stroke="#000000" stroke-width="0.35 px" style="stroke-width:0.35;stroke-miterlimit:4;stroke-dasharray:none;fill:none"/>
<path id="Sketch" d="M 13.416407865 -1.5 A 13.5 13.5 0 0 1 13.416407865 1.5 L 13.9194109071 1.5 A 14.0 14.0 0 0 1 1.5 13.9194109071 L 1.5 13.416407865 A 13.5 13.5 0 0 1 -1.5 13.416407865 L -1.5 13.9194109071 A 14.0 14.0 0 0 1 -13.9194109071 1.5 L -13.416407865 1.5 A 13.5 13.5 0 0 1 -13.416407865 -1.5 L -13.9194109071 -1.5 A 14.0 14.0 0 0 1 -1.5 -13.9194109071 L -1.5 -13.416407865 A 13.5 13.5 0 0 1 1.50000000001 -13.416407865 L 1.50000000001 -13.9194109071 A 14.0 14.0 0 0 1 13.9194109071 -1.5 L 13.416407865 -1.5 " stroke="#000000" stroke-width="0.35 px" style="stroke-width:0.35;stroke-miterlimit:4;stroke-dasharray:none;fill:none;fill-rule: evenodd "/>
</g>
</svg>