<?xml version="1.0"?>
<!DOCTYPE svg PUBLIC "-//W3C//DTD SVG 1.1//EN" "http://www.w3.org/Graphics/SVG/1.1/DTD/svg11.dtd">
<svg width="12.1506081689mm" height="44.2828065942mm" viewBox="0 0 12.1506081689 44.2828065942" xmlns="http://www.w3.org/2000/svg" version="1.1">
<g transform="translate(12.0314845594,0.119123609499) scale(1,-1)">
<path id="Fillet001" d="M -11.9123609499 -18.7445593752 L -11.9123609499 -17.0445593752 A 1.0 1.0 0 0 0 -10.9123609499 -16.0445593752 L -6.91236094987 -16.0445593752 A 1.0 1.0 0 0 0 -5.91236094987 -17.0445593752 L -5.91236094987 -43.0445593752 A 1.0 1.0 0 0 0 -6.91236094987 -44.0445593752 L -10.9123609499 -44.0445593752 A 1.0 1.0 0 0 0 -11.9123609499 -43.0445593752 L -11.9123609499 -41.3445593752 A 0.3 0.3 0 0 0 -11.6123609499 -41.0445593752 L -8.91236094987 -41.0445593752 L -8.91236094987 -40.0445593752 L -11.6123609499 -40.0445593752 A 0.3 0.3 0 0 0 -11.9123609499 -39.7445593752 L -11.9123609499 -38.3445593752 A 0.3 0.3 0 0 0 -11.6123609499 -38.0445593752 L -8.91236094987 -38.0445593752 L -8.91236094987 -37.0445593752 L -11.6123609499 -37.0445593752 A 0.3 0.3 0 0 0 -11.9123609499 -36.7445593752 L -11.9123609499 -35.3445593752 A 0.3 0.3 0 0 0 -11.6123609499 -35.0445593752 L -8.91236094987 -35.0445593752 L -8.91236094987 -34.0445593752 L -11.6123609499 -34.0445593752 A 0.3 0.3 0 0 0 -11.9123609499 -33.7445593752 L -11.9123609499 -32.3445593752 A 0.3 0.3 0 0 0 -11.6123609499 -32.0445593752 L -8.91236094987 -32.0445593752 L -8.91236094987 -31.0445593752 L -11.6123609499 -31.0445593752 A 0.3 0.3 0 0 0 -11.9123609499 -30.7445593752 L -11.9123609499 -29.3445593752 A 0.3 0.3 0 0 0 -11.6123609499 -29.0445593752 L -8.91236094987 -29.0445593752 L -8.91236094987 -28.0445593752 L -11.6123609499 -28.0445593752 A 0.3 0.3 0 0 0 -11.9123609499 -27.7445593752 L -11.9123609499 -26.3445593752 A 0.3 0.3 0 0 0 -11.6123609499 -26.0445593752 L -8.91236094987 -26.0445593752 L -8.91236094987 -25.0445593752 L -11.6123609499 -25.0445593752 A 0.3 0.3 0 0 0 -11.9123609499 -24.7445593752 L -11.9123609499 -23.3445593752 A 0.3 0.3 0 0 0 -11.6123609499 -23.0445593752 L -8.91236094987 -23.0445593752 L -8.91236094987 -22.0445593752 L -11.6123609499 -22.0445593752 A 0.3 0.3 0 0 0 -11.9123609499 -21.7445593752 L -11.9123609499 -20.3445593752 A 0.3 0.3 0 0 0 -11.6123609499 -20.0445593752 L -8.91236094987 -20.0445593752 L -8.91236094987 -19.0445593752 L -11.6123609499 -19.0445593752 A 0.3 0.3 0 0 0 -11.9123609499 -18.7445593752 Z " stroke="#191919" stroke-width="0.35 px" style="stroke-width:0.35;stroke-miterlimit:4;stroke-dasharray:none;fill:#cccccc;fill-rule: evenodd "/>
<path id="Fillet001" d="M -11.9123609499 -18.7445593752 L -11.9123609499 -17.0445593752 L -11.9123609499 -17.0445593752 L -11.9123609499 -18.7445593752 L -11.9123609499 -18.7445593752 Z " stroke="#191919" stroke-width="0.35 px" style="stroke-width:0.35;stroke-miterlimit:4;stroke-dasharray:none;fill:#cccccc;fill-rule: evenodd "/>
<path id="Fillet001" d="M -11.9123609499 -18.7445593752 A 0.3 0.3 0 0 1 -11.6123609499 -19.0445593752 L -11.6123609499 -19.0445593752 A 0.3 0.3 0 0 0 -11.9123609499 -18.7445593752 L -11.9123609499 -18.7445593752 Z " stroke="#191919" stroke-width="0.35 px" style="stroke-width:0.35;stroke-miterlimit:4;stroke-dasharray:none;fill:#cccccc;fill-rule: evenodd "/>
<path id="Fillet001" d="M -10.9123609499 -16.0445593752 A 1.0 1.0 0 0 1 -11.9123609499 -17.0445593752 L -11.9123609499 -17.0445593752 A 1.0 1.0 0 0 0 -10.9123609499 -16.0445593752 L -10.9123609499 -16.0445593752 Z " stroke="#191919" stroke-width="0.35 px" style="stroke-width:0.35;stroke-miterlimit:4;stroke-dasharray:none;fill:#cccccc;fill-rule: evenodd "/>
<path id="Fillet001" d="M -11.6123609499 -19.0445593752 L -8.91236094987 -19.0445593752 L -8.91236094987 -19.0445593752 L -11.6123609499 -19.0445593752 L -11.6123609499 -19.0445593752 Z " stroke="#191919" stroke-width="0.35 px" style="stroke-width:0.35;stroke-miterlimit:4;stroke-dasharray:none;fill:#cccccc;fill-rule: evenodd "/>
<path id="Fillet001" d="M -10.9123609499 -16.0445593752 L -6.91236094987 -16.0445593752 L -6.91236094987 -16.0445593752 L -10.9123609499 -16.0445593752 L -10.9123609499 -16.0445593752 Z " stroke="#191919" stroke-width="0.35 px" style="stroke-width:0.35;stroke-miterlimit:4;stroke-dasharray:none;fill:#cccccc;fill-rule: evenodd "/>
<path id="Fillet001" d="M -8.91236094987 -19.0445593752 L -8.91236094987 -19.0445593752 L -8.91236094987 -20.0445593752 L -8.91236094987 -20.0445593752 L -8.91236094987 -19.0445593752 Z " stroke="#191919" stroke-width="0.35 px" style="stroke-width:0.35;stroke-miterlimit:4;stroke-dasharray:none;fill:#cccccc;fill-rule: evenodd "/>
<path id="Fillet001" d="M -6.91236094987 -16.0445593752 A 1.0 1.0 0 0 0 -5.91236094987 -17.0445593752 L -5.91236094987 -17.0445593752 A 1.0 1.0 0 0 1 -6.91236094987 -16.0445593752 L -6.91236094987 -16.0445593752 Z " stroke="#191919" stroke-width="0.35 px" style="stroke-width:0.35;stroke-miterlimit:4;stroke-dasharray:none;fill:#cccccc;fill-rule: evenodd "/>
<path id="Fillet001" d="M -11.6123609499 -20.0445593752 L -8.91236094987 -20.0445593752 L -8.91236094987 -20.0445593752 L -11.6123609499 -20.0445593752 L -11.6123609499 -20.0445593752 Z " stroke="#191919" stroke-width="0.35 px" style="stroke-width:0.35;stroke-miterlimit:4;stroke-dasharray:none;fill:#cccccc;fill-rule: evenodd "/>
<path id="Fillet001" d="M -5.91236094987 -17.0445593752 L -5.91236094987 -43.0445593752 L -5.91236094987 -43.0445593752 L -5.91236094987 -17.0445593752 L -5.91236094987 -17.0445593752 Z " stroke="#191919" stroke-width="0.35 px" style="stroke-width:0.35;stroke-miterlimit:4;stroke-dasharray:none;fill:#cccccc;fill-rule: evenodd "/>
<path id="Fillet001" d="M -11.6123609499 -20.0445593752 A 0.3 0.3 0 0 1 -11.9123609499 -20.3445593752 L -11.9123609499 -20.3445593752 A 0.3 0.3 0 0 0 -11.6123609499 -20.0445593752 L -11.6123609499 -20.0445593752 Z " stroke="#191919" stroke-width="0.35 px" style="stroke-width:0.35;stroke-miterlimit:4;stroke-dasharray:none;fill:#cccccc;fill-rule: evenodd "/>
<path id="Fillet001" d="M -5.91236094987 -43.0445593752 A 1.0 1.0 0 0 0 -6.91236094987 -44.0445593752 L -6.91236094987 -44.0445593752 A 1.0 1.0 0 0 1 -5.91236094987 -43.0445593752 L -5.91236094987 -43.0445593752 Z " stroke="#191919" stroke-width="0.35 px" style="stroke-width:0.35;stroke-miterlimit:4;stroke-dasharray:none;fill:#cccccc;fill-rule: evenodd "/>
<path id="Fillet001" d="M -11.9123609499 -20.3445593752 L -11.9123609499 -21.7445593752 L -11.9123609499 -21.7445593752 L -11.9123609499 -20.3445593752 L -11.9123609499 -20.3445593752 Z " stroke="#191919" stroke-width="0.35 px" style="stroke-width:0.35;stroke-miterlimit:4;stroke-dasharray:none;fill:#cccccc;fill-rule: evenodd "/>
<path id="Fillet001" d="M -6.91236094987 -44.0445593752 L -10.9123609499 -44.0445593752 L -10.9123609499 -44.0445593752 L -6.91236094987 -44.0445593752 L -6.91236094987 -44.0445593752 Z " stroke="#191919" stroke-width="0.35 px" style="stroke-width:0.35;stroke-miterlimit:4;stroke-dasharray:none;fill:#cccccc;fill-rule: evenodd "/>
<path id="Fillet001" d="M -11.9123609499 -21.7445593752 A 0.3 0.3 0 0 1 -11.6123609499 -22.0445593752 L -11.6123609499 -22.0445593752 A 0.3 0.3 0 0 0 -11.9123609499 -21.7445593752 L -11.9123609499 -21.7445593752 Z " stroke="#191919" stroke-width="0.35 px" style="stroke-width:0.35;stroke-miterlimit:4;stroke-dasharray:none;fill:#cccccc;fill-rule: evenodd "/>
<path id="Fillet001" d="M -10.9123609499 -44.0445593752 A 1.0 1.0 0 0 0 -11.9123609499 -43.0445593752 L -11.9123609499 -43.0445593752 A 1.0 1.0 0 0 1 -10.9123609499 -44.0445593752 L -10.9123609499 -44.0445593752 Z " stroke="#191919" stroke-width="0.35 px" style="stroke-width:0.35;stroke-miterlimit:4;stroke-dasharray:none;fill:#cccccc;fill-rule: evenodd "/>
<path id="Fillet001" d="M -11.6123609499 -22.0445593752 L -8.91236094987 -22.0445593752 L -8.91236094987 -22.0445593752 L -11.6123609499 -22.0445593752 L -11.6123609499 -22.0445593752 Z " stroke="#191919" stroke-width="0.35 px" style="stroke-width:0.35;stroke-miterlimit:4;stroke-dasharray:none;fill:#cccccc;fill-rule: evenodd "/>
<path id="Fillet001" d="M -11.9123609499 -41.3445593752 L -11.9123609499 -43.0445593752 L -11.9123609499 -43.0445593752 L -11.9123609499 -41.3445593752 L -11.9123609499 -41.3445593752 Z " stroke="#191919" stroke-width="0.35 px" style="stroke-width:0.35;stroke-miterlimit:4;stroke-dasharray:none;fill:#cccccc;fill-rule: evenodd "/>
<path id="Fillet001" d="M -8.91236094987 -22.0445593752 L -8.91236094987 -22.0445593752 L -8.91236094987 -23.0445593752 L -8.91236094987 -23.0445593752 L -8.91236094987 -22.0445593752 Z " stroke="#191919" stroke-width="0.35 px" style="stroke-width:0.35;stroke-miterlimit:4;stroke-dasharray:none;fill:#cccccc;fill-rule: evenodd "/>
<path id="Fillet001" d="M -11.9123609499 -41.3445593752 A 0.3 0.3 0 0 0 -11.6123609499 -41.0445593752 L -11.6123609499 -41.0445593752 A 0.3 0.3 0 0 1 -11.9123609499 -41.3445593752 L -11.9123609499 -41.3445593752 Z " stroke="#191919" stroke-width="0.35 px" style="stroke-width:0.35;stroke-miterlimit:4;stroke-dasharray:none;fill:#cccccc;fill-rule: evenodd "/>
<path id="Fillet001" d="M -11.6123609499 -23.0445593752 L -8.91236094987 -23.0445593752 L -8.91236094987 -23.0445593752 L -11.6123609499 -23.0445593752 L -11.6123609499 -23.0445593752 Z " stroke="#191919" stroke-width="0.35 px" style="stroke-width:0.35;stroke-miterlimit:4;stroke-dasharray:none;fill:#cccccc;fill-rule: evenodd "/>
<path id="Fillet001" d="M -11.6123609499 -41.0445593752 L -8.91236094987 -41.0445593752 L -8.91236094987 -41.0445593752 L -11.6123609499 -41.0445593752 L -11.6123609499 -41.0445593752 Z " stroke="#191919" stroke-width="0.35 px" style="stroke-width:0.35;stroke-miterlimit:4;stroke-dasharray:none;fill:#cccccc;fill-rule: evenodd "/>
<path id="Fillet001" d="M -11.6123609499 -23.0445593752 A 0.3 0.3 0 0 1 -11.9123609499 -23.3445593752 L -11.9123609499 -23.3445593752 A 0.3 0.3 0 0 0 -11.6123609499 -23.0445593752 L -11.6123609499 -23.0445593752 Z " stroke="#191919" stroke-width="0.35 px" style="stroke-width:0.35;stroke-miterlimit:4;stroke-dasharray:none;fill:#cccccc;fill-rule: evenodd "/>
<path id="Fillet001" d="M -8.91236094987 -40.0445593752 L -8.91236094987 -40.0445593752 L -8.91236094987 -41.0445593752 L -8.91236094987 -41.0445593752 L -8.91236094987 -40.0445593752 Z " stroke="#191919" stroke-width="0.35 px" style="stroke-width:0.35;stroke-miterlimit:4;stroke-dasharray:none;fill:#cccccc;fill-rule: evenodd "/>
<path id="Fillet001" d="M -11.9123609499 -23.3445593752 L -11.9123609499 -24.7445593752 L -11.9123609499 -24.7445593752 L -11.9123609499 -23.3445593752 L -11.9123609499 -23.3445593752 Z " stroke="#191919" stroke-width="0.35 px" style="stroke-width:0.35;stroke-miterlimit:4;stroke-dasharray:none;fill:#cccccc;fill-rule: evenodd "/>
<path id="Fillet001" d="M -11.6123609499 -40.0445593752 L -8.91236094987 -40.0445593752 L -8.91236094987 -40.0445593752 L -11.6123609499 -40.0445593752 L -11.6123609499 -40.0445593752 Z " stroke="#191919" stroke-width="0.35 px" style="stroke-width:0.35;stroke-miterlimit:4;stroke-dasharray:none;fill:#cccccc;fill-rule: evenodd "/>
<path id="Fillet001" d="M -11.9123609499 -24.7445593752 A 0.3 0.3 0 0 1 -11.6123609499 -25.0445593752 L -11.6123609499 -25.0445593752 A 0.3 0.3 0 0 0 -11.9123609499 -24.7445593752 L -11.9123609499 -24.7445593752 Z " stroke="#191919" stroke-width="0.35 px" style="stroke-width:0.35;stroke-miterlimit:4;stroke-dasharray:none;fill:#cccccc;fill-rule: evenodd "/>
<path id="Fillet001" d="M -11.6123609499 -40.0445593752 A 0.3 0.3 0 0 0 -11.9123609499 -39.7445593752 L -11.9123609499 -39.7445593752 A 0.3 0.3 0 0 1 -11.6123609499 -40.0445593752 L -11.6123609499 -40.0445593752 Z " stroke="#191919" stroke-width="0.35 px" style="stroke-width:0.35;stroke-miterlimit:4;stroke-dasharray:none;fill:#cccccc;fill-rule: evenodd "/>
<path id="Fillet001" d="M -11.6123609499 -25.0445593752 L -8.91236094987 -25.0445593752 L -8.91236094987 -25.0445593752 L -11.6123609499 -25.0445593752 L -11.6123609499 -25.0445593752 Z " stroke="#191919" stroke-width="0.35 px" style="stroke-width:0.35;stroke-miterlimit:4;stroke-dasharray:none;fill:#cccccc;fill-rule: evenodd "/>
<path id="Fillet001" d="M -11.9123609499 -38.3445593752 L -11.9123609499 -39.7445593752 L -11.9123609499 -39.7445593752 L -11.9123609499 -38.3445593752 L -11.9123609499 -38.3445593752 Z " stroke="#191919" stroke-width="0.35 px" style="stroke-width:0.35;stroke-miterlimit:4;stroke-dasharray:none;fill:#cccccc;fill-rule: evenodd "/>
<path id="Fillet001" d="M -8.91236094987 -25.0445593752 L -8.91236094987 -25.0445593752 L -8.91236094987 -26.0445593752 L -8.91236094987 -26.0445593752 L -8.91236094987 -25.0445593752 Z " stroke="#191919" stroke-width="0.35 px" style="stroke-width:0.35;stroke-miterlimit:4;stroke-dasharray:none;fill:#cccccc;fill-rule: evenodd "/>
<path id="Fillet001" d="M -11.9123609499 -38.3445593752 A 0.3 0.3 0 0 0 -11.6123609499 -38.0445593752 L -11.6123609499 -38.0445593752 A 0.3 0.3 0 0 1 -11.9123609499 -38.3445593752 L -11.9123609499 -38.3445593752 Z " stroke="#191919" stroke-width="0.35 px" style="stroke-width:0.35;stroke-miterlimit:4;stroke-dasharray:none;fill:#cccccc;fill-rule: evenodd "/>
<path id="Fillet001" d="M -11.6123609499 -26.0445593752 L -8.91236094987 -26.0445593752 L -8.91236094987 -26.0445593752 L -11.6123609499 -26.0445593752 L -11.6123609499 -26.0445593752 Z " stroke="#191919" stroke-width="0.35 px" style="stroke-width:0.35;stroke-miterlimit:4;stroke-dasharray:none;fill:#cccccc;fill-rule: evenodd "/>
<path id="Fillet001" d="M -11.6123609499 -38.0445593752 L -8.91236094987 -38.0445593752 L -8.91236094987 -38.0445593752 L -11.6123609499 -38.0445593752 L -11.6123609499 -38.0445593752 Z " stroke="#191919" stroke-width="0.35 px" style="stroke-width:0.35;stroke-miterlimit:4;stroke-dasharray:none;fill:#cccccc;fill-rule: evenodd "/>
<path id="Fillet001" d="M -11.6123609499 -26.0445593752 A 0.3 0.3 0 0 1 -11.9123609499 -26.3445593752 L -11.9123609499 -26.3445593752 A 0.3 0.3 0 0 0 -11.6123609499 -26.0445593752 L -11.6123609499 -26.0445593752 Z " stroke="#191919" stroke-width="0.35 px" style="stroke-width:0.35;stroke-miterlimit:4;stroke-dasharray:none;fill:#cccccc;fill-rule: evenodd "/>
<path id="Fillet001" d="M -8.91236094987 -37.0445593752 L -8.91236094987 -37.0445593752 L -8.91236094987 -38.0445593752 L -8.91236094987 -38.0445593752 L -8.91236094987 -37.0445593752 Z " stroke="#191919" stroke-width="0.35 px" style="stroke-width:0.35;stroke-miterlimit:4;stroke-dasharray:none;fill:#cccccc;fill-rule: evenodd "/>
<path id="Fillet001" d="M -11.9123609499 -26.3445593752 L -11.9123609499 -27.7445593752 L -11.9123609499 -27.7445593752 L -11.9123609499 -26.3445593752 L -11.9123609499 -26.3445593752 Z " stroke="#191919" stroke-width="0.35 px" style="stroke-width:0.35;stroke-miterlimit:4;stroke-dasharray:none;fill:#cccccc;fill-rule: evenodd "/>
<path id="Fillet001" d="M -11.6123609499 -37.0445593752 L -8.91236094987 -37.0445593752 L -8.91236094987 -37.0445593752 L -11.6123609499 -37.0445593752 L -11.6123609499 -37.0445593752 Z " stroke="#191919" stroke-width="0.35 px" style="stroke-width:0.35;stroke-miterlimit:4;stroke-dasharray:none;fill:#cccccc;fill-rule: evenodd "/>
<path id="Fillet001" d="M -11.9123609499 -27.7445593752 A 0.3 0.3 0 0 1 -11.6123609499 -28.0445593752 L -11.6123609499 -28.0445593752 A 0.3 0.3 0 0 0 -11.9123609499 -27.7445593752 L -11.9123609499 -27.7445593752 Z " stroke="#191919" stroke-width="0.35 px" style="stroke-width:0.35;stroke-miterlimit:4;stroke-dasharray:none;fill:#cccccc;fill-rule: evenodd "/>
<path id="Fillet001" d="M -11.6123609499 -37.0445593752 A 0.3 0.3 0 0 0 -11.9123609499 -36.7445593752 L -11.9123609499 -36.7445593752 A 0.3 0.3 0 0 1 -11.6123609499 -37.0445593752 L -11.6123609499 -37.0445593752 Z " stroke="#191919" stroke-width="0.35 px" style="stroke-width:0.35;stroke-miterlimit:4;stroke-dasharray:none;fill:#cccccc;fill-rule: evenodd "/>
<path id="Fillet001" d="M -11.6123609499 -28.0445593752 L -8.91236094987 -28.0445593752 L -8.91236094987 -28.0445593752 L -11.6123609499 -28.0445593752 L -11.6123609499 -28.0445593752 Z " stroke="#191919" stroke-width="0.35 px" style="stroke-width:0.35;stroke-miterlimit:4;stroke-dasharray:none;fill:#cccccc;fill-rule: evenodd "/>
<path id="Fillet001" d="M -11.9123609499 -35.3445593752 L -11.9123609499 -36.7445593752 L -11.9123609499 -36.7445593752 L -11.9123609499 -35.3445593752 L -11.9123609499 -35.3445593752 Z " stroke="#191919" stroke-width="0.35 px" style="stroke-width:0.35;stroke-miterlimit:4;stroke-dasharray:none;fill:#cccccc;fill-rule: evenodd "/>
<path id="Fillet001" d="M -8.91236094987 -28.0445593752 L -8.91236094987 -28.0445593752 L -8.91236094987 -29.0445593752 L -8.91236094987 -29.0445593752 L -8.91236094987 -28.0445593752 Z " stroke="#191919" stroke-width="0.35 px" style="stroke-width:0.35;stroke-miterlimit:4;stroke-dasharray:none;fill:#cccccc;fill-rule: evenodd "/>
<path id="Fillet001" d="M -11.9123609499 -35.3445593752 A 0.3 0.3 0 0 0 -11.6123609499 -35.0445593752 L -11.6123609499 -35.0445593752 A 0.3 0.3 0 0 1 -11.9123609499 -35.3445593752 L -11.9123609499 -35.3445593752 Z " stroke="#191919" stroke-width="0.35 px" style="stroke-width:0.35;stroke-miterlimit:4;stroke-dasharray:none;fill:#cccccc;fill-rule: evenodd "/>
<path id="Fillet001" d="M -11.6123609499 -29.0445593752 L -8.91236094987 -29.0445593752 L -8.91236094987 -29.0445593752 L -11.6123609499 -29.0445593752 L -11.6123609499 -29.0445593752 Z " stroke="#191919" stroke-width="0.35 px" style="stroke-width:0.35;stroke-miterlimit:4;stroke-dasharray:none;fill:#cccccc;fill-rule: evenodd "/>
<path id="Fillet001" d="M -11.6123609499 -35.0445593752 L -8.91236094987 -35.0445593752 L -8.91236094987 -35.0445593752 L -11.6123609499 -35.0445593752 L -11.6123609499 -35.0445593752 Z " stroke="#191919" stroke-width="0.35 px" style="stroke-width:0.35;stroke-miterlimit:4;stroke-dasharray:none;fill:#cccccc;fill-rule: evenodd "/>
<path id="Fillet001" d="M -11.6123609499 -29.0445593752 A 0.3 0.3 0 0 1 -11.9123609499 -29.3445593752 L -11.9123609499 -29.3445593752 A 0.3 0.3 0 0 0 -11.6123609499 -29.0445593752 L -11.6123609499 -29.0445593752 Z " stroke="#191919" stroke-width="0.35 px" style="stroke-width:0.35;stroke-miterlimit:4;stroke-dasharray:none;fill:#cccccc;fill-rule: evenodd "/>
<path id="Fillet001" d="M -8.91236094987 -34.0445593752 L -8.91236094987 -34.0445593752 L -8.91236094987 -35.0445593752 L -8.91236094987 -35.0445593752 L -8.91236094987 -34.0445593752 Z " stroke="#191919" stroke-width="0.35 px" style="stroke-width:0.35;stroke-miterlimit:4;stroke-dasharray:none;fill:#cccccc;fill-rule: evenodd "/>
<path id="Fillet001" d="M -11.9123609499 -29.3445593752 L -11.9123609499 -30.7445593752 L -11.9123609499 -30.7445593752 L -11.9123609499 -29.3445593752 L -11.9123609499 -29.3445593752 Z " stroke="#191919" stroke-width="0.35 px" style="stroke-width:0.35;stroke-miterlimit:4;stroke-dasharray:none;fill:#cccccc;fill-rule: evenodd "/>
<path id="Fillet001" d="M -11.6123609499 -34.0445593752 L -8.91236094987 -34.0445593752 L -8.91236094987 -34.0445593752 L -11.6123609499 -34.0445593752 L -11.6123609499 -34.0445593752 Z " stroke="#191919" stroke-width="0.35 px" style="stroke-width:0.35;stroke-miterlimit:4;stroke-dasharray:none;fill:#cccccc;fill-rule: evenodd "/>
<path id="Fillet001" d="M -11.9123609499 -30.7445593752 A 0.3 0.3 0 0 1 -11.6123609499 -31.0445593752 L -11.6123609499 -31.0445593752 A 0.3 0.3 0 0 0 -11.9123609499 -30.7445593752 L -11.9123609499 -30.7445593752 Z " stroke="#191919" stroke-width="0.35 px" style="stroke-width:0.35;stroke-miterlimit:4;stroke-dasharray:none;fill:#cccccc;fill-rule: evenodd "/>
<path id="Fillet001" d="M -11.6123609499 -34.0445593752 A 0.3 0.3 0 0 0 -11.9123609499 -33.7445593752 L -11.9123609499 -33.7445593752 A 0.3 0.3 0 0 1 -11.6123609499 -34.0445593752 L -11.6123609499 -34.0445593752 Z " stroke="#191919" stroke-width="0.35 px" style="stroke-width:0.35;stroke-miterlimit:4;stroke-dasharray:none;fill:#cccccc;fill-rule: evenodd "/>
<path id="Fillet001" d="M -11.6123609499 -31.0445593752 L -8.91236094987 -31.0445593752 L -8.91236094987 -31.0445593752 L -11.6123609499 -31.0445593752 L -11.6123609499 -31.0445593752 Z " stroke="#191919" stroke-width="0.35 px" style="stroke-width:0.35;stroke-miterlimit:4;stroke-dasharray:none;fill:#cccccc;fill-rule: evenodd "/>
<path id="Fillet001" d="M -11.9123609499 -32.3445593752 L -11.9123609499 -33.7445593752 L -11.9123609499 -33.7445593752 L -11.9123609499 -32.3445593752 L -11.9123609499 -32.3445593752 Z " stroke="#191919" stroke-width="0.35 px" style="stroke-width:0.35;stroke-miterlimit:4;stroke-dasharray:none;fill:#cccccc;fill-rule: evenodd "/>
<path id="Fillet001" d="M -8.91236094987 -31.0445593752 L -8.91236094987 -31.0445593752 L -8.91236094987 -32.0445593752 L -8.91236094987 -32.0445593752 L -8.91236094987 -31.0445593752 Z " stroke="#191919" stroke-width="0.35 px" style="stroke-width:0.35;stroke-miterlimit:4;stroke-dasharray:none;fill:#cccccc;fill-rule: evenodd "/>
<path id="Fillet001" d="M -11.9123609499 -32.3445593752 A 0.3 0.3 0 0 0 -11.6123609499 -32.0445593752 L -11.6123609499 -32.0445593752 A 0.3 0.3 0 0 1 -11.9123609499 -32.3445593752 L -11.9123609499 -32.3445593752 Z " stroke="#191919" stroke-width="0.35 px" style="stroke-width:0.35;stroke-miterlimit:4;stroke-dasharray:none;fill:#cccccc;fill-rule: evenodd "/>
<path id="Fillet001" d="M -11.6123609499 -32.0445593752 L -8.91236094987 -32.0445593752 L -8.91236094987 -32.0445593752 L -11.6123609499 -32.0445593752 L -11.6123609499 -32.0445593752 Z " stroke="#191919" stroke-width="0.35 px" style="stroke-width:0.35;stroke-miterlimit:4;stroke-dasharray:none;fill:#cccccc;fill-rule: evenodd "/>
<path id="Fillet001" d="M -11.9123609499 -18.7445593752 L -11.9123609499 -17.0445593752 A 1.0 1.0 0 0 0 -10.9123609499 -16.0445593752 L -6.91236094987 -16.0445593752 A 1.0 1.0 0 0 0 -5.91236094987 -17.0445593752 L -5.91236094987 -43.0445593752 A 1.0 1.0 0 0 0 -6.91236094987 -44.0445593752 L -10.9123609499 -44.0445593752 A 1.0 1.0 0 0 0 -11.9123609499 -43.0445593752 L -11.9123609499 -41.3445593752 A 0.3 0.3 0 0 0 -11.6123609499 -41.0445593752 L -8.91236094987 -41.0445593752 L -8.91236094987 -40.0445593752 L -11.6123609499 -40.0445593752 A 0.3 0.3 0 0 0 -11.9123609499 -39.7445593752 L -11.9123609499 -38.3445593752 A 0.3 0.3 0 0 0 -11.6123609499 -38.0445593752 L -8.91236094987 -38.0445593752 L -8.91236094987 -37.0445593752 L -11.6123609499 -37.0445593752 A 0.3 0.3 0 0 0 -11.9123609499 -36.7445593752 L -11.9123609499 -35.3445593752 A 0.3 0.3 0 0 0 -11.6123609499 -35.0445593752 L -8.91236094987 -35.0445593752 L -8.91236094987 -34.0445593752 L -11.6123609499 -34.0445593752 A 0.3 0.3 0 0 0 -11.9123609499 -33.7445593752 L -11.9123609499 -32.3445593752 A 0.3 0.3 0 0 0 -11.6123609499 -32.0445593752 L -8.91236094987 -32.0445593752 L -8.91236094987 -31.0445593752 L -11.6123609499 -31.0445593752 A 0.3 0.3 0 0 0 -11.9123609499 -30.7445593752 L -11.9123609499 -29.3445593752 A 0.3 0.3 0 0 0 -11.6123609499 -29.0445593752 L -8.91236094987 -29.0445593752 L -8.91236094987 -28.0445593752 L -11.6123609499 -28.0445593752 A 0.3 0.3 0 0 0 -11.9123609499 -27.7445593752 L -11.9123609499 -26.3445593752 A 0.3 0.3 0 0 0 -11.6123609499 -26.0445593752 L -8.91236094987 -26.0445593752 L -8.91236094987 -25.0445593752 L -11.6123609499 -25.0445593752 A 0.3 0.3 0 0 0 -11.9123609499 -24.7445593752 L -11.9123609499 -23.3445593752 A 0.3 0.3 0 0 0 -11.6123609499 -23.0445593752 L -8.91236094987 -23.0445593752 L -8.91236094987 -22.0445593752 L -11.6123609499 -22.0445593752 A 0.3 0.3 0 0 0 -11.9123609499 -21.7445593752 L -11.9123609499 -20.3445593752 A 0.3 0.3 0 0 0 -11.6123609499 -20.0445593752 L -8.91236094987 -20.0445593752 L -8.91236094987 -19.0445593752 L -11.6123609499 -19.0445593752 A 0.3 0.3 0 0 0 -11.9123609499 -18.7445593752 Z " stroke="#191919" stroke-width="0.35 px" style="stroke-width:0.35;stroke-miterlimit:4;stroke-dasharray:none;fill:#cccccc;fill-rule: evenodd "/>
</g>
</svg>