<?xml version="1.0"?>
<!DOCTYPE svg PUBLIC "-//W3C//DTD SVG 1.1//EN" "http://www.w3.org/Graphics/SVG/1.1/DTD/svg11.dtd">
<svg width="45.9mm" height="63.9mm" viewBox="0 0 45.9 63.9" xmlns="http://www.w3.org/2000/svg" version="1.1">
<g transform="translate(22.95,30.45) scale(1,-1)">
<path id="Fillet001" d="M -2.5 -12.8124939024 L -2.5 -13.2453765518 A 1.0 1.0 0 0 0 -3.75547445255 -14.2121923585 A 14.7 14.7 0 0 0 -10.1316361744 -10.6508191436 A 1.0 1.0 0 0 0 -10.4424092237 -9.92627362364 L -10.4424092237 -7.22814565458 A 12.7 12.7 0 0 0 -11.44767955 -5.49914838128 L -12.9401570254 -5.49914838128 A 1.0 1.0 0 0 0 -13.8846940346 -4.82755337262 A 14.7 14.7 0 0 0 -13.8846940346 4.82755337262 A 1.0 1.0 0 0 0 -12.9401570254 5.49914838128 L -11.6348561681 5.49914838128 A 0.3 0.3 0 0 1 -11.3663594873 5.66532188018 A 12.7 12.7 0 0 0 11.3663594873 5.66532188018 A 0.3 0.3 0 0 1 11.6348561681 5.49914838128 L 12.9401570254 5.49914838128 A 1.0 1.0 0 0 0 13.8846940346 4.82755337262 A 14.7 14.7 0 0 0 13.8846940346 -4.82755337262 A 1.0 1.0 0 0 0 12.9401570254 -5.49914838128 L 11.44767955 -5.49914838128 A 12.7 12.7 0 0 0 10.4424092237 -7.22814565458 L 10.4424092237 -9.92627362364 A 1.0 1.0 0 0 0 10.1316361744 -10.6508191436 A 14.7 14.7 0 0 0 3.75547445255 -14.2121923585 A 1.0 1.0 0 0 0 2.5 -13.2453765518 L 2.5 -12.8124939024 A 0.3 0.3 0 0 1 2.14923076923 -12.5168209662 A 12.7 12.7 0 0 0 -2.14923076923 -12.5168209662 A 0.3 0.3 0 0 1 -2.5 -12.8124939024 Z M 15.7 16.0 L 13.7 16.0 L 13.7 17.0 L 15.7 17.0 A 1.0 1.0 0 0 1 16.7 18.0 L 16.7 19.0 A 1.0 1.0 0 0 0 17.7 20.0 L 21.5 20.0 A 1.0 1.0 0 0 1 22.5 21.0 L 22.5 29.0 A 1.0 1.0 0 0 1 21.5 30.0 L 18.5 30.0 A 1.0 1.0 0 0 1 17.5 29.0 L 17.5 25.0 L -17.5 25.0 L -17.5 29.0 A 1.0 1.0 0 0 1 -18.5 30.0 L -21.5 30.0 A 1.0 1.0 0 0 1 -22.5 29.0 L -22.5 21.0 A 1.0 1.0 0 0 1 -21.5 20.0 L -17.7 20.0 A 1.0 1.0 0 0 0 -16.7 19.0 L -16.7 18.0 A 1.0 1.0 0 0 1 -15.7 17.0 L -13.7 17.0 L -13.7 16.0 L -15.7 16.0 A 1.0 1.0 0 0 1 -16.7 15.0 L -16.7 -32.0 A 1.0 1.0 0 0 1 -15.7 -33.0 L 15.7 -33.0 A 1.0 1.0 0 0 1 16.7 -32.0 L 16.7 15.0 A 1.0 1.0 0 0 1 15.7 16.0 Z M 12.7 -18.0 L 3.5 -18.0 A 1.0 1.0 0 0 1 2.5 -19.0 L 2.5 -29.0 A 1.0 1.0 0 0 1 3.5 -30.0 L 12.7 -30.0 A 1.0 1.0 0 0 1 13.7 -29.0 L 13.7 -19.0 A 1.0 1.0 0 0 1 12.7 -18.0 Z M -13.7 -19.0 L -13.7 -29.0 A 1.0 1.0 0 0 1 -12.7 -30.0 L -3.5 -30.0 A 1.0 1.0 0 0 1 -2.5 -29.0 L -2.5 -19.0 A 1.0 1.0 0 0 1 -3.5 -18.0 L -12.7 -18.0 A 1.0 1.0 0 0 1 -13.7 -19.0 Z " stroke="#191919" stroke-width="0.35 px" style="stroke-width:0.35;stroke-miterlimit:4;stroke-dasharray:none;fill:#cccccc;fill-rule: evenodd "/>
<path id="Fillet001" d="M -2.5 -12.8124939024 L -2.5 -13.2453765518 L -2.5 -13.2453765518 L -2.5 -12.8124939024 L -2.5 -12.8124939024 Z " stroke="#191919" stroke-width="0.35 px" style="stroke-width:0.35;stroke-miterlimit:4;stroke-dasharray:none;fill:#cccccc;fill-rule: evenodd "/>
<path id="Fillet001" d="M -2.5 -12.8124939024 A 0.3 0.3 0 0 0 -2.14923076923 -12.5168209662 L -2.14923076923 -12.5168209662 A 0.3 0.3 0 0 1 -2.5 -12.8124939024 L -2.5 -12.8124939024 Z " stroke="#191919" stroke-width="0.35 px" style="stroke-width:0.35;stroke-miterlimit:4;stroke-dasharray:none;fill:#cccccc;fill-rule: evenodd "/>
<path id="Fillet001" d="M -3.75547445255 -14.2121923585 A 1.0 1.0 0 0 1 -2.5 -13.2453765518 L -2.5 -13.2453765518 A 1.0 1.0 0 0 0 -3.75547445255 -14.2121923585 L -3.75547445255 -14.2121923585 Z " stroke="#191919" stroke-width="0.35 px" style="stroke-width:0.35;stroke-miterlimit:4;stroke-dasharray:none;fill:#cccccc;fill-rule: evenodd "/>
<path id="Fillet001" d="M -2.14923076923 -12.5168209662 A 12.7 12.7 0 0 1 2.14923076923 -12.5168209662 L 2.14923076923 -12.5168209662 A 12.7 12.7 0 0 0 -2.14923076923 -12.5168209662 L -2.14923076923 -12.5168209662 Z " stroke="#191919" stroke-width="0.35 px" style="stroke-width:0.35;stroke-miterlimit:4;stroke-dasharray:none;fill:#cccccc;fill-rule: evenodd "/>
<path id="Fillet001" d="M -10.1316361744 -10.6508191436 A 14.7 14.7 0 0 1 -3.75547445255 -14.2121923585 L -3.75547445255 -14.2121923585 A 14.7 14.7 0 0 0 -10.1316361744 -10.6508191436 L -10.1316361744 -10.6508191436 Z " stroke="#191919" stroke-width="0.35 px" style="stroke-width:0.35;stroke-miterlimit:4;stroke-dasharray:none;fill:#cccccc;fill-rule: evenodd "/>
<path id="Fillet001" d="M 2.14923076923 -12.5168209662 A 0.3 0.3 0 0 0 2.5 -12.8124939024 L 2.5 -12.8124939024 A 0.3 0.3 0 0 1 2.14923076923 -12.5168209662 L 2.14923076923 -12.5168209662 Z " stroke="#191919" stroke-width="0.35 px" style="stroke-width:0.35;stroke-miterlimit:4;stroke-dasharray:none;fill:#cccccc;fill-rule: evenodd "/>
<path id="Fillet001" d="M -10.4424092237 -9.92627362364 A 1.0 1.0 0 0 1 -10.1316361744 -10.6508191436 L -10.1316361744 -10.6508191436 A 1.0 1.0 0 0 0 -10.4424092237 -9.92627362364 L -10.4424092237 -9.92627362364 Z " stroke="#191919" stroke-width="0.35 px" style="stroke-width:0.35;stroke-miterlimit:4;stroke-dasharray:none;fill:#cccccc;fill-rule: evenodd "/>
<path id="Fillet001" d="M 2.5 -12.8124939024 L 2.5 -13.2453765518 L 2.5 -13.2453765518 L 2.5 -12.8124939024 L 2.5 -12.8124939024 Z " stroke="#191919" stroke-width="0.35 px" style="stroke-width:0.35;stroke-miterlimit:4;stroke-dasharray:none;fill:#cccccc;fill-rule: evenodd "/>
<path id="Fillet001" d="M -10.4424092237 -9.92627362364 L -10.4424092237 -7.22814565458 L -10.4424092237 -7.22814565458 L -10.4424092237 -9.92627362364 L -10.4424092237 -9.92627362364 Z " stroke="#191919" stroke-width="0.35 px" style="stroke-width:0.35;stroke-miterlimit:4;stroke-dasharray:none;fill:#cccccc;fill-rule: evenodd "/>
<path id="Fillet001" d="M 2.5 -13.2453765518 A 1.0 1.0 0 0 1 3.75547445255 -14.2121923585 L 3.75547445255 -14.2121923585 A 1.0 1.0 0 0 0 2.5 -13.2453765518 L 2.5 -13.2453765518 Z " stroke="#191919" stroke-width="0.35 px" style="stroke-width:0.35;stroke-miterlimit:4;stroke-dasharray:none;fill:#cccccc;fill-rule: evenodd "/>
<path id="Fillet001" d="M -11.44767955 -5.49914838128 L -11.44767955 -5.49914838128 A 12.7 12.7 0 0 1 -10.4424092237 -7.22814565458 L -10.4424092237 -7.22814565458 A 12.7 12.7 0 0 0 -11.44767955 -5.49914838128 Z " stroke="#191919" stroke-width="0.35 px" style="stroke-width:0.35;stroke-miterlimit:4;stroke-dasharray:none;fill:#cccccc;fill-rule: evenodd "/>
<path id="Fillet001" d="M 3.75547445255 -14.2121923585 A 14.7 14.7 0 0 1 10.1316361744 -10.6508191436 L 10.1316361744 -10.6508191436 A 14.7 14.7 0 0 0 3.75547445255 -14.2121923585 L 3.75547445255 -14.2121923585 Z " stroke="#191919" stroke-width="0.35 px" style="stroke-width:0.35;stroke-miterlimit:4;stroke-dasharray:none;fill:#cccccc;fill-rule: evenodd "/>
<path id="Fillet001" d="M -12.9401570254 -5.49914838128 L -11.44767955 -5.49914838128 L -11.44767955 -5.49914838128 L -12.9401570254 -5.49914838128 L -12.9401570254 -5.49914838128 Z " stroke="#191919" stroke-width="0.35 px" style="stroke-width:0.35;stroke-miterlimit:4;stroke-dasharray:none;fill:#cccccc;fill-rule: evenodd "/>
<path id="Fillet001" d="M 10.1316361744 -10.6508191436 A 1.0 1.0 0 0 1 10.4424092237 -9.92627362364 L 10.4424092237 -9.92627362364 A 1.0 1.0 0 0 0 10.1316361744 -10.6508191436 L 10.1316361744 -10.6508191436 Z " stroke="#191919" stroke-width="0.35 px" style="stroke-width:0.35;stroke-miterlimit:4;stroke-dasharray:none;fill:#cccccc;fill-rule: evenodd "/>
<path id="Fillet001" d="M -13.8846940346 -4.82755337262 A 1.0 1.0 0 0 1 -12.9401570254 -5.49914838128 L -12.9401570254 -5.49914838128 A 1.0 1.0 0 0 0 -13.8846940346 -4.82755337262 L -13.8846940346 -4.82755337262 Z " stroke="#191919" stroke-width="0.35 px" style="stroke-width:0.35;stroke-miterlimit:4;stroke-dasharray:none;fill:#cccccc;fill-rule: evenodd "/>
<path id="Fillet001" d="M 10.4424092237 -9.92627362364 L 10.4424092237 -7.22814565458 L 10.4424092237 -7.22814565458 L 10.4424092237 -9.92627362364 L 10.4424092237 -9.92627362364 Z " stroke="#191919" stroke-width="0.35 px" style="stroke-width:0.35;stroke-miterlimit:4;stroke-dasharray:none;fill:#cccccc;fill-rule: evenodd "/>
<path id="Fillet001" d="M -13.8846940346 4.82755337262 A 14.7 14.7 0 0 1 -13.8846940346 -4.82755337262 L -13.8846940346 -4.82755337262 A 14.7 14.7 0 0 0 -13.8846940346 4.82755337262 L -13.8846940346 4.82755337262 Z " stroke="#191919" stroke-width="0.35 px" style="stroke-width:0.35;stroke-miterlimit:4;stroke-dasharray:none;fill:#cccccc;fill-rule: evenodd "/>
<path id="Fillet001" d="M 10.4424092237 -7.22814565458 L 10.4424092237 -7.22814565458 A 12.7 12.7 0 0 1 11.44767955 -5.49914838128 L 11.44767955 -5.49914838128 A 12.7 12.7 0 0 0 10.4424092237 -7.22814565458 Z " stroke="#191919" stroke-width="0.35 px" style="stroke-width:0.35;stroke-miterlimit:4;stroke-dasharray:none;fill:#cccccc;fill-rule: evenodd "/>
<path id="Fillet001" d="M -12.9401570254 5.49914838128 A 1.0 1.0 0 0 1 -13.8846940346 4.82755337262 L -13.8846940346 4.82755337262 A 1.0 1.0 0 0 0 -12.9401570254 5.49914838128 L -12.9401570254 5.49914838128 Z " stroke="#191919" stroke-width="0.35 px" style="stroke-width:0.35;stroke-miterlimit:4;stroke-dasharray:none;fill:#cccccc;fill-rule: evenodd "/>
<path id="Fillet001" d="M 12.9401570254 -5.49914838128 L 11.44767955 -5.49914838128 L 11.44767955 -5.49914838128 L 12.9401570254 -5.49914838128 L 12.9401570254 -5.49914838128 Z " stroke="#191919" stroke-width="0.35 px" style="stroke-width:0.35;stroke-miterlimit:4;stroke-dasharray:none;fill:#cccccc;fill-rule: evenodd "/>
<path id="Fillet001" d="M -11.6348561681 5.49914838128 L -12.9401570254 5.49914838128 L -12.9401570254 5.49914838128 L -11.6348561681 5.49914838128 L -11.6348561681 5.49914838128 Z " stroke="#191919" stroke-width="0.35 px" style="stroke-width:0.35;stroke-miterlimit:4;stroke-dasharray:none;fill:#cccccc;fill-rule: evenodd "/>
<path id="Fillet001" d="M 12.9401570254 -5.49914838128 A 1.0 1.0 0 0 1 13.8846940346 -4.82755337262 L 13.8846940346 -4.82755337262 A 1.0 1.0 0 0 0 12.9401570254 -5.49914838128 L 12.9401570254 -5.49914838128 Z " stroke="#191919" stroke-width="0.35 px" style="stroke-width:0.35;stroke-miterlimit:4;stroke-dasharray:none;fill:#cccccc;fill-rule: evenodd "/>
<path id="Fillet001" d="M -11.6348561681 5.49914838128 A 0.3 0.3 0 0 1 -11.3663594873 5.66532188018 L -11.3663594873 5.66532188018 A 0.3 0.3 0 0 0 -11.6348561681 5.49914838128 L -11.6348561681 5.49914838128 Z " stroke="#191919" stroke-width="0.35 px" style="stroke-width:0.35;stroke-miterlimit:4;stroke-dasharray:none;fill:#cccccc;fill-rule: evenodd "/>
<path id="Fillet001" d="M 13.8846940346 -4.82755337262 A 14.7 14.7 0 0 1 13.8846940346 4.82755337262 L 13.8846940346 4.82755337262 A 14.7 14.7 0 0 0 13.8846940346 -4.82755337262 L 13.8846940346 -4.82755337262 Z " stroke="#191919" stroke-width="0.35 px" style="stroke-width:0.35;stroke-miterlimit:4;stroke-dasharray:none;fill:#cccccc;fill-rule: evenodd "/>
<path id="Fillet001" d="M 11.3663594873 5.66532188018 A 12.7 12.7 0 0 1 -11.3663594873 5.66532188018 L -11.3663594873 5.66532188018 A 12.7 12.7 0 0 0 11.3663594873 5.66532188018 L 11.3663594873 5.66532188018 Z " stroke="#191919" stroke-width="0.35 px" style="stroke-width:0.35;stroke-miterlimit:4;stroke-dasharray:none;fill:#cccccc;fill-rule: evenodd "/>
<path id="Fillet001" d="M 13.8846940346 4.82755337262 A 1.0 1.0 0 0 1 12.9401570254 5.49914838128 L 12.9401570254 5.49914838128 A 1.0 1.0 0 0 0 13.8846940346 4.82755337262 L 13.8846940346 4.82755337262 Z " stroke="#191919" stroke-width="0.35 px" style="stroke-width:0.35;stroke-miterlimit:4;stroke-dasharray:none;fill:#cccccc;fill-rule: evenodd "/>
<path id="Fillet001" d="M 11.3663594873 5.66532188018 A 0.3 0.3 0 0 1 11.6348561681 5.49914838128 L 11.6348561681 5.49914838128 A 0.3 0.3 0 0 0 11.3663594873 5.66532188018 L 11.3663594873 5.66532188018 Z " stroke="#191919" stroke-width="0.35 px" style="stroke-width:0.35;stroke-miterlimit:4;stroke-dasharray:none;fill:#cccccc;fill-rule: evenodd "/>
<path id="Fillet001" d="M 11.6348561681 5.49914838128 L 12.9401570254 5.49914838128 L 12.9401570254 5.49914838128 L 11.6348561681 5.49914838128 L 11.6348561681 5.49914838128 Z " stroke="#191919" stroke-width="0.35 px" style="stroke-width:0.35;stroke-miterlimit:4;stroke-dasharray:none;fill:#cccccc;fill-rule: evenodd "/>
<path id="Fillet001" d="M 15.7 16.0 L 13.7 16.0 L 13.7 16.0 L 15.7 16.0 L 15.7 16.0 Z " stroke="#191919" stroke-width="0.35 px" style="stroke-width:0.35;stroke-miterlimit:4;stroke-dasharray:none;fill:#cccccc;fill-rule: evenodd "/>
<path id="Fillet001" d="M 15.7 16.0 A 1.0 1.0 0 0 0 16.7 15.0 L 16.7 15.0 A 1.0 1.0 0 0 1 15.7 16.0 L 15.7 16.0 Z " stroke="#191919" stroke-width="0.35 px" style="stroke-width:0.35;stroke-miterlimit:4;stroke-dasharray:none;fill:#cccccc;fill-rule: evenodd "/>
<path id="Fillet001" d="M 13.7 17.0 L 13.7 17.0 L 13.7 16.0 L 13.7 16.0 L 13.7 17.0 Z " stroke="#191919" stroke-width="0.35 px" style="stroke-width:0.35;stroke-miterlimit:4;stroke-dasharray:none;fill:#cccccc;fill-rule: evenodd "/>
<path id="Fillet001" d="M 16.7 15.0 L 16.7 -32.0 L 16.7 -32.0 L 16.7 15.0 L 16.7 15.0 Z " stroke="#191919" stroke-width="0.35 px" style="stroke-width:0.35;stroke-miterlimit:4;stroke-dasharray:none;fill:#cccccc;fill-rule: evenodd "/>
<path id="Fillet001" d="M 15.7 17.0 L 13.7 17.0 L 13.7 17.0 L 15.7 17.0 L 15.7 17.0 Z " stroke="#191919" stroke-width="0.35 px" style="stroke-width:0.35;stroke-miterlimit:4;stroke-dasharray:none;fill:#cccccc;fill-rule: evenodd "/>
<path id="Fillet001" d="M 16.7 -32.0 A 1.0 1.0 0 0 0 15.7 -33.0 L 15.7 -33.0 A 1.0 1.0 0 0 1 16.7 -32.0 L 16.7 -32.0 Z " stroke="#191919" stroke-width="0.35 px" style="stroke-width:0.35;stroke-miterlimit:4;stroke-dasharray:none;fill:#cccccc;fill-rule: evenodd "/>
<path id="Fillet001" d="M 16.7 18.0 A 1.0 1.0 0 0 0 15.7 17.0 L 15.7 17.0 A 1.0 1.0 0 0 1 16.7 18.0 L 16.7 18.0 Z " stroke="#191919" stroke-width="0.35 px" style="stroke-width:0.35;stroke-miterlimit:4;stroke-dasharray:none;fill:#cccccc;fill-rule: evenodd "/>
<path id="Fillet001" d="M 15.7 -33.0 L -15.7 -33.0 L -15.7 -33.0 L 15.7 -33.0 L 15.7 -33.0 Z " stroke="#191919" stroke-width="0.35 px" style="stroke-width:0.35;stroke-miterlimit:4;stroke-dasharray:none;fill:#cccccc;fill-rule: evenodd "/>
<path id="Fillet001" d="M 16.7 19.0 L 16.7 18.0 L 16.7 18.0 L 16.7 19.0 L 16.7 19.0 Z " stroke="#191919" stroke-width="0.35 px" style="stroke-width:0.35;stroke-miterlimit:4;stroke-dasharray:none;fill:#cccccc;fill-rule: evenodd "/>
<path id="Fillet001" d="M -15.7 -33.0 A 1.0 1.0 0 0 0 -16.7 -32.0 L -16.7 -32.0 A 1.0 1.0 0 0 1 -15.7 -33.0 L -15.7 -33.0 Z " stroke="#191919" stroke-width="0.35 px" style="stroke-width:0.35;stroke-miterlimit:4;stroke-dasharray:none;fill:#cccccc;fill-rule: evenodd "/>
<path id="Fillet001" d="M 17.7 20.0 A 1.0 1.0 0 0 1 16.7 19.0 L 16.7 19.0 A 1.0 1.0 0 0 0 17.7 20.0 L 17.7 20.0 Z " stroke="#191919" stroke-width="0.35 px" style="stroke-width:0.35;stroke-miterlimit:4;stroke-dasharray:none;fill:#cccccc;fill-rule: evenodd "/>
<path id="Fillet001" d="M -16.7 15.0 L -16.7 -32.0 L -16.7 -32.0 L -16.7 15.0 L -16.7 15.0 Z " stroke="#191919" stroke-width="0.35 px" style="stroke-width:0.35;stroke-miterlimit:4;stroke-dasharray:none;fill:#cccccc;fill-rule: evenodd "/>
<path id="Fillet001" d="M 17.7 20.0 L 21.5 20.0 L 21.5 20.0 L 17.7 20.0 L 17.7 20.0 Z " stroke="#191919" stroke-width="0.35 px" style="stroke-width:0.35;stroke-miterlimit:4;stroke-dasharray:none;fill:#cccccc;fill-rule: evenodd "/>
<path id="Fillet001" d="M -16.7 15.0 A 1.0 1.0 0 0 0 -15.7 16.0 L -15.7 16.0 A 1.0 1.0 0 0 1 -16.7 15.0 L -16.7 15.0 Z " stroke="#191919" stroke-width="0.35 px" style="stroke-width:0.35;stroke-miterlimit:4;stroke-dasharray:none;fill:#cccccc;fill-rule: evenodd "/>
<path id="Fillet001" d="M 22.5 21.0 A 1.0 1.0 0 0 0 21.5 20.0 L 21.5 20.0 A 1.0 1.0 0 0 1 22.5 21.0 L 22.5 21.0 Z " stroke="#191919" stroke-width="0.35 px" style="stroke-width:0.35;stroke-miterlimit:4;stroke-dasharray:none;fill:#cccccc;fill-rule: evenodd "/>
<path id="Fillet001" d="M -15.7 16.0 L -13.7 16.0 L -13.7 16.0 L -15.7 16.0 L -15.7 16.0 Z " stroke="#191919" stroke-width="0.35 px" style="stroke-width:0.35;stroke-miterlimit:4;stroke-dasharray:none;fill:#cccccc;fill-rule: evenodd "/>
<path id="Fillet001" d="M 22.5 21.0 L 22.5 29.0 L 22.5 29.0 L 22.5 21.0 L 22.5 21.0 Z " stroke="#191919" stroke-width="0.35 px" style="stroke-width:0.35;stroke-miterlimit:4;stroke-dasharray:none;fill:#cccccc;fill-rule: evenodd "/>
<path id="Fillet001" d="M -13.7 17.0 L -13.7 17.0 L -13.7 16.0 L -13.7 16.0 L -13.7 17.0 Z " stroke="#191919" stroke-width="0.35 px" style="stroke-width:0.35;stroke-miterlimit:4;stroke-dasharray:none;fill:#cccccc;fill-rule: evenodd "/>
<path id="Fillet001" d="M 21.5 30.0 A 1.0 1.0 0 0 0 22.5 29.0 L 22.5 29.0 A 1.0 1.0 0 0 1 21.5 30.0 L 21.5 30.0 Z " stroke="#191919" stroke-width="0.35 px" style="stroke-width:0.35;stroke-miterlimit:4;stroke-dasharray:none;fill:#cccccc;fill-rule: evenodd "/>
<path id="Fillet001" d="M -15.7 17.0 L -13.7 17.0 L -13.7 17.0 L -15.7 17.0 L -15.7 17.0 Z " stroke="#191919" stroke-width="0.35 px" style="stroke-width:0.35;stroke-miterlimit:4;stroke-dasharray:none;fill:#cccccc;fill-rule: evenodd "/>
<path id="Fillet001" d="M 21.5 30.0 L 18.5 30.0 L 18.5 30.0 L 21.5 30.0 L 21.5 30.0 Z " stroke="#191919" stroke-width="0.35 px" style="stroke-width:0.35;stroke-miterlimit:4;stroke-dasharray:none;fill:#cccccc;fill-rule: evenodd "/>
<path id="Fillet001" d="M -15.7 17.0 A 1.0 1.0 0 0 0 -16.7 18.0 L -16.7 18.0 A 1.0 1.0 0 0 1 -15.7 17.0 L -15.7 17.0 Z " stroke="#191919" stroke-width="0.35 px" style="stroke-width:0.35;stroke-miterlimit:4;stroke-dasharray:none;fill:#cccccc;fill-rule: evenodd "/>
<path id="Fillet001" d="M 17.5 29.0 A 1.0 1.0 0 0 0 18.5 30.0 L 18.5 30.0 A 1.0 1.0 0 0 1 17.5 29.0 L 17.5 29.0 Z " stroke="#191919" stroke-width="0.35 px" style="stroke-width:0.35;stroke-miterlimit:4;stroke-dasharray:none;fill:#cccccc;fill-rule: evenodd "/>
<path id="Fillet001" d="M -16.7 19.0 L -16.7 18.0 L -16.7 18.0 L -16.7 19.0 L -16.7 19.0 Z " stroke="#191919" stroke-width="0.35 px" style="stroke-width:0.35;stroke-miterlimit:4;stroke-dasharray:none;fill:#cccccc;fill-rule: evenodd "/>
<path id="Fillet001" d="M 17.5 29.0 L 17.5 25.0 L 17.5 25.0 L 17.5 29.0 L 17.5 29.0 Z " stroke="#191919" stroke-width="0.35 px" style="stroke-width:0.35;stroke-miterlimit:4;stroke-dasharray:none;fill:#cccccc;fill-rule: evenodd "/>
<path id="Fillet001" d="M -16.7 19.0 A 1.0 1.0 0 0 1 -17.7 20.0 L -17.7 20.0 A 1.0 1.0 0 0 0 -16.7 19.0 L -16.7 19.0 Z " stroke="#191919" stroke-width="0.35 px" style="stroke-width:0.35;stroke-miterlimit:4;stroke-dasharray:none;fill:#cccccc;fill-rule: evenodd "/>
<path id="Fillet001" d="M 17.5 25.0 L 17.5 25.0 L -17.5 25.0 L -17.5 25.0 L 17.5 25.0 Z " stroke="#191919" stroke-width="0.35 px" style="stroke-width:0.35;stroke-miterlimit:4;stroke-dasharray:none;fill:#cccccc;fill-rule: evenodd "/>
<path id="Fillet001" d="M -21.5 20.0 L -17.7 20.0 L -17.7 20.0 L -21.5 20.0 L -21.5 20.0 Z " stroke="#191919" stroke-width="0.35 px" style="stroke-width:0.35;stroke-miterlimit:4;stroke-dasharray:none;fill:#cccccc;fill-rule: evenodd "/>
<path id="Fillet001" d="M -17.5 29.0 L -17.5 25.0 L -17.5 25.0 L -17.5 29.0 L -17.5 29.0 Z " stroke="#191919" stroke-width="0.35 px" style="stroke-width:0.35;stroke-miterlimit:4;stroke-dasharray:none;fill:#cccccc;fill-rule: evenodd "/>
<path id="Fillet001" d="M -21.5 20.0 A 1.0 1.0 0 0 0 -22.5 21.0 L -22.5 21.0 A 1.0 1.0 0 0 1 -21.5 20.0 L -21.5 20.0 Z " stroke="#191919" stroke-width="0.35 px" style="stroke-width:0.35;stroke-miterlimit:4;stroke-dasharray:none;fill:#cccccc;fill-rule: evenodd "/>
<path id="Fillet001" d="M -18.5 30.0 A 1.0 1.0 0 0 0 -17.5 29.0 L -17.5 29.0 A 1.0 1.0 0 0 1 -18.5 30.0 L -18.5 30.0 Z " stroke="#191919" stroke-width="0.35 px" style="stroke-width:0.35;stroke-miterlimit:4;stroke-dasharray:none;fill:#cccccc;fill-rule: evenodd "/>
<path id="Fillet001" d="M -22.5 29.0 L -22.5 21.0 L -22.5 21.0 L -22.5 29.0 L -22.5 29.0 Z " stroke="#191919" stroke-width="0.35 px" style="stroke-width:0.35;stroke-miterlimit:4;stroke-dasharray:none;fill:#cccccc;fill-rule: evenodd "/>
<path id="Fillet001" d="M -18.5 30.0 L -21.5 30.0 L -21.5 30.0 L -18.5 30.0 L -18.5 30.0 Z " stroke="#191919" stroke-width="0.35 px" style="stroke-width:0.35;stroke-miterlimit:4;stroke-dasharray:none;fill:#cccccc;fill-rule: evenodd "/>
<path id="Fillet001" d="M -22.5 29.0 A 1.0 1.0 0 0 0 -21.5 30.0 L -21.5 30.0 A 1.0 1.0 0 0 1 -22.5 29.0 L -22.5 29.0 Z " stroke="#191919" stroke-width="0.35 px" style="stroke-width:0.35;stroke-miterlimit:4;stroke-dasharray:none;fill:#cccccc;fill-rule: evenodd "/>
<path id="Fillet001" d="M 12.7 -18.0 L 3.5 -18.0 L 3.5 -18.0 L 12.7 -18.0 L 12.7 -18.0 Z " stroke="#191919" stroke-width="0.35 px" style="stroke-width:0.35;stroke-miterlimit:4;stroke-dasharray:none;fill:#cccccc;fill-rule: evenodd "/>
<path id="Fillet001" d="M 12.7 -18.0 A 1.0 1.0 0 0 0 13.7 -19.0 L 13.7 -19.0 A 1.0 1.0 0 0 1 12.7 -18.0 L 12.7 -18.0 Z " stroke="#191919" stroke-width="0.35 px" style="stroke-width:0.35;stroke-miterlimit:4;stroke-dasharray:none;fill:#cccccc;fill-rule: evenodd "/>
<path id="Fillet001" d="M 3.5 -18.0 A 1.0 1.0 0 0 1 2.5 -19.0 L 2.5 -19.0 A 1.0 1.0 0 0 0 3.5 -18.0 L 3.5 -18.0 Z " stroke="#191919" stroke-width="0.35 px" style="stroke-width:0.35;stroke-miterlimit:4;stroke-dasharray:none;fill:#cccccc;fill-rule: evenodd "/>
<path id="Fillet001" d="M 13.7 -29.0 L 13.7 -19.0 L 13.7 -19.0 L 13.7 -29.0 L 13.7 -29.0 Z " stroke="#191919" stroke-width="0.35 px" style="stroke-width:0.35;stroke-miterlimit:4;stroke-dasharray:none;fill:#cccccc;fill-rule: evenodd "/>
<path id="Fillet001" d="M 2.5 -19.0 L 2.5 -29.0 L 2.5 -29.0 L 2.5 -19.0 L 2.5 -19.0 Z " stroke="#191919" stroke-width="0.35 px" style="stroke-width:0.35;stroke-miterlimit:4;stroke-dasharray:none;fill:#cccccc;fill-rule: evenodd "/>
<path id="Fillet001" d="M 12.7 -30.0 A 1.0 1.0 0 0 1 13.7 -29.0 L 13.7 -29.0 A 1.0 1.0 0 0 0 12.7 -30.0 L 12.7 -30.0 Z " stroke="#191919" stroke-width="0.35 px" style="stroke-width:0.35;stroke-miterlimit:4;stroke-dasharray:none;fill:#cccccc;fill-rule: evenodd "/>
<path id="Fillet001" d="M 2.5 -29.0 A 1.0 1.0 0 0 1 3.5 -30.0 L 3.5 -30.0 A 1.0 1.0 0 0 0 2.5 -29.0 L 2.5 -29.0 Z " stroke="#191919" stroke-width="0.35 px" style="stroke-width:0.35;stroke-miterlimit:4;stroke-dasharray:none;fill:#cccccc;fill-rule: evenodd "/>
<path id="Fillet001" d="M 3.5 -30.0 L 12.7 -30.0 L 12.7 -30.0 L 3.5 -30.0 L 3.5 -30.0 Z " stroke="#191919" stroke-width="0.35 px" style="stroke-width:0.35;stroke-miterlimit:4;stroke-dasharray:none;fill:#cccccc;fill-rule: evenodd "/>
<path id="Fillet001" d="M -13.7 -19.0 L -13.7 -29.0 L -13.7 -29.0 L -13.7 -19.0 L -13.7 -19.0 Z " stroke="#191919" stroke-width="0.35 px" style="stroke-width:0.35;stroke-miterlimit:4;stroke-dasharray:none;fill:#cccccc;fill-rule: evenodd "/>
<path id="Fillet001" d="M -13.7 -19.0 A 1.0 1.0 0 0 0 -12.7 -18.0 L -12.7 -18.0 A 1.0 1.0 0 0 1 -13.7 -19.0 L -13.7 -19.0 Z " stroke="#191919" stroke-width="0.35 px" style="stroke-width:0.35;stroke-miterlimit:4;stroke-dasharray:none;fill:#cccccc;fill-rule: evenodd "/>
<path id="Fillet001" d="M -13.7 -29.0 A 1.0 1.0 0 0 1 -12.7 -30.0 L -12.7 -30.0 A 1.0 1.0 0 0 0 -13.7 -29.0 L -13.7 -29.0 Z " stroke="#191919" stroke-width="0.35 px" style="stroke-width:0.35;stroke-miterlimit:4;stroke-dasharray:none;fill:#cccccc;fill-rule: evenodd "/>
<path id="Fillet001" d="M -12.7 -18.0 L -3.5 -18.0 L -3.5 -18.0 L -12.7 -18.0 L -12.7 -18.0 Z " stroke="#191919" stroke-width="0.35 px" style="stroke-width:0.35;stroke-miterlimit:4;stroke-dasharray:none;fill:#cccccc;fill-rule: evenodd "/>
<path id="Fillet001" d="M -3.5 -30.0 L -12.7 -30.0 L -12.7 -30.0 L -3.5 -30.0 L -3.5 -30.0 Z " stroke="#191919" stroke-width="0.35 px" style="stroke-width:0.35;stroke-miterlimit:4;stroke-dasharray:none;fill:#cccccc;fill-rule: evenodd "/>
<path id="Fillet001" d="M -2.5 -19.0 A 1.0 1.0 0 0 1 -3.5 -18.0 L -3.5 -18.0 A 1.0 1.0 0 0 0 -2.5 -19.0 L -2.5 -19.0 Z " stroke="#191919" stroke-width="0.35 px" style="stroke-width:0.35;stroke-miterlimit:4;stroke-dasharray:none;fill:#cccccc;fill-rule: evenodd "/>
<path id="Fillet001" d="M -3.5 -30.0 A 1.0 1.0 0 0 1 -2.5 -29.0 L -2.5 -29.0 A 1.0 1.0 0 0 0 -3.5 -30.0 L -3.5 -30.0 Z " stroke="#191919" stroke-width="0.35 px" style="stroke-width:0.35;stroke-miterlimit:4;stroke-dasharray:none;fill:#cccccc;fill-rule: evenodd "/>
<path id="Fillet001" d="M -2.5 -19.0 L -2.5 -29.0 L -2.5 -29.0 L -2.5 -19.0 L -2.5 -19.0 Z " stroke="#191919" stroke-width="0.35 px" style="stroke-width:0.35;stroke-miterlimit:4;stroke-dasharray:none;fill:#cccccc;fill-rule: evenodd "/>
<path id="Fillet001" d="M -2.5 -12.8124939024 L -2.5 -13.2453765518 A 1.0 1.0 0 0 0 -3.75547445255 -14.2121923585 A 14.7 14.7 0 0 0 -10.1316361744 -10.6508191436 A 1.0 1.0 0 0 0 -10.4424092237 -9.92627362364 L -10.4424092237 -7.22814565458 A 12.7 12.7 0 0 0 -11.44767955 -5.49914838128 L -12.9401570254 -5.49914838128 A 1.0 1.0 0 0 0 -13.8846940346 -4.82755337262 A 14.7 14.7 0 0 0 -13.8846940346 4.82755337262 A 1.0 1.0 0 0 0 -12.9401570254 5.49914838128 L -11.6348561681 5.49914838128 A 0.3 0.3 0 0 1 -11.3663594873 5.66532188018 A 12.7 12.7 0 0 0 11.3663594873 5.66532188018 A 0.3 0.3 0 0 1 11.6348561681 5.49914838128 L 12.9401570254 5.49914838128 A 1.0 1.0 0 0 0 13.8846940346 4.82755337262 A 14.7 14.7 0 0 0 13.8846940346 -4.82755337262 A 1.0 1.0 0 0 0 12.9401570254 -5.49914838128 L 11.44767955 -5.49914838128 A 12.7 12.7 0 0 0 10.4424092237 -7.22814565458 L 10.4424092237 -9.92627362364 A 1.0 1.0 0 0 0 10.1316361744 -10.6508191436 A 14.7 14.7 0 0 0 3.75547445255 -14.2121923585 A 1.0 1.0 0 0 0 2.5 -13.2453765518 L 2.5 -12.8124939024 A 0.3 0.3 0 0 1 2.14923076923 -12.5168209662 A 12.7 12.7 0 0 0 -2.14923076923 -12.5168209662 A 0.3 0.3 0 0 1 -2.5 -12.8124939024 Z M 15.7 16.0 L 13.7 16.0 L 13.7 17.0 L 15.7 17.0 A 1.0 1.0 0 0 1 16.7 18.0 L 16.7 19.0 A 1.0 1.0 0 0 0 17.7 20.0 L 21.5 20.0 A 1.0 1.0 0 0 1 22.5 21.0 L 22.5 29.0 A 1.0 1.0 0 0 1 21.5 30.0 L 18.5 30.0 A 1.0 1.0 0 0 1 17.5 29.0 L 17.5 25.0 L -17.5 25.0 L -17.5 29.0 A 1.0 1.0 0 0 1 -18.5 30.0 L -21.5 30.0 A 1.0 1.0 0 0 1 -22.5 29.0 L -22.5 21.0 A 1.0 1.0 0 0 1 -21.5 20.0 L -17.7 20.0 A 1.0 1.0 0 0 0 -16.7 19.0 L -16.7 18.0 A 1.0 1.0 0 0 1 -15.7 17.0 L -13.7 17.0 L -13.7 16.0 L -15.7 16.0 A 1.0 1.0 0 0 1 -16.7 15.0 L -16.7 -32.0 A 1.0 1.0 0 0 1 -15.7 -33.0 L 15.7 -33.0 A 1.0 1.0 0 0 1 16.7 -32.0 L 16.7 15.0 A 1.0 1.0 0 0 1 15.7 16.0 Z M 12.7 -18.0 L 3.5 -18.0 A 1.0 1.0 0 0 1 2.5 -19.0 L 2.5 -29.0 A 1.0 1.0 0 0 1 3.5 -30.0 L 12.7 -30.0 A 1.0 1.0 0 0 1 13.7 -29.0 L 13.7 -19.0 A 1.0 1.0 0 0 1 12.7 -18.0 Z M -13.7 -19.0 L -13.7 -29.0 A 1.0 1.0 0 0 1 -12.7 -30.0 L -3.5 -30.0 A 1.0 1.0 0 0 1 -2.5 -29.0 L -2.5 -19.0 A 1.0 1.0 0 0 1 -3.5 -18.0 L -12.7 -18.0 A 1.0 1.0 0 0 1 -13.7 -19.0 Z " stroke="#191919" stroke-width="0.35 px" style="stroke-width:0.35;stroke-miterlimit:4;stroke-dasharray:none;fill:#cccccc;fill-rule: evenodd "/>
</g>
</svg>