<?xml version="1.0"?>
<!DOCTYPE svg PUBLIC "-//W3C//DTD SVG 1.1//EN" "http://www.w3.org/Graphics/SVG/1.1/DTD/svg11.dtd">
<svg width="61.71mm" height="87.21mm" viewBox="0 0 61.71 87.21" xmlns="http://www.w3.org/2000/svg" version="1.1">
<g transform="translate(31.083307,26.605) scale(1,-1)">
<path id="Fillet" d="M -28.478307 -14.0 L -13.978307 -14.0 L -13.978307 -14.0 L -28.478307 -14.0 L -28.478307 -14.0 Z " stroke="#191919" stroke-width="0.35 px" style="stroke-width:0.35;stroke-miterlimit:4;stroke-dasharray:none;fill:#cccccc;fill-rule: evenodd "/>
<path id="Fillet" d="M -28.478307 -14.0 L -13.978307 -14.0 A 1.0 1.0 0 0 0 -13.978307 -16.0 L -13.978307 -58.0 A 2.0 2.0 0 0 1 -11.978307 -60.0 L 28.021693 -60.0 A 2.0 2.0 0 0 1 30.021693 -58.0 L 30.021693 -16.0 A 1.0 1.0 0 0 0 30.021693 -14.0 L 30.021693 -6.0 A 2.0 2.0 0 0 1 28.021693 -4.0 L -11.978307 -4.0 A 2.0 2.0 0 0 0 -13.978307 -2.0 L -13.978307 24.0 A 2.0 2.0 0 0 1 -15.978307 26.0 L -28.478307 26.0 A 2.0 2.0 0 0 1 -30.478307 24.0 L -30.478307 -12.0 A 2.0 2.0 0 0 1 -28.478307 -14.0 Z " stroke="#191919" stroke-width="0.35 px" style="stroke-width:0.35;stroke-miterlimit:4;stroke-dasharray:none;fill:#cccccc;fill-rule: evenodd "/>
<path id="Fillet" d="M -28.478307 -14.0 A 2.0 2.0 0 0 0 -30.478307 -12.0 L -30.478307 -12.0 A 2.0 2.0 0 0 1 -28.478307 -14.0 L -28.478307 -14.0 Z " stroke="#191919" stroke-width="0.35 px" style="stroke-width:0.35;stroke-miterlimit:4;stroke-dasharray:none;fill:#cccccc;fill-rule: evenodd "/>
<path id="Fillet" d="M -13.978307 -16.0 L -13.978307 -16.0 A 1.0 1.0 0 0 1 -13.978307 -14.0 L -13.978307 -14.0 A 1.0 1.0 0 0 0 -13.978307 -16.0 Z " stroke="#191919" stroke-width="0.35 px" style="stroke-width:0.35;stroke-miterlimit:4;stroke-dasharray:none;fill:#cccccc;fill-rule: evenodd "/>
<path id="Fillet" d="M -28.478307 -14.0 L -13.978307 -14.0 A 1.0 1.0 0 0 0 -13.978307 -16.0 L -13.978307 -58.0 A 2.0 2.0 0 0 1 -11.978307 -60.0 L 28.021693 -60.0 A 2.0 2.0 0 0 1 30.021693 -58.0 L 30.021693 -16.0 A 1.0 1.0 0 0 0 30.021693 -14.0 L 30.021693 -6.0 A 2.0 2.0 0 0 1 28.021693 -4.0 L -11.978307 -4.0 A 2.0 2.0 0 0 0 -13.978307 -2.0 L -13.978307 24.0 A 2.0 2.0 0 0 1 -15.978307 26.0 L -28.478307 26.0 A 2.0 2.0 0 0 1 -30.478307 24.0 L -30.478307 -12.0 A 2.0 2.0 0 0 1 -28.478307 -14.0 Z " stroke="#191919" stroke-width="0.35 px" style="stroke-width:0.35;stroke-miterlimit:4;stroke-dasharray:none;fill:#cccccc;fill-rule: evenodd "/>
<path id="Fillet" d="M -30.478307 -12.0 L -30.478307 24.0 L -30.478307 24.0 L -30.478307 -12.0 L -30.478307 -12.0 Z " stroke="#191919" stroke-width="0.35 px" style="stroke-width:0.35;stroke-miterlimit:4;stroke-dasharray:none;fill:#cccccc;fill-rule: evenodd "/>
<path id="Fillet" d="M -13.978307 -58.0 L -13.978307 -16.0 L -13.978307 -16.0 L -13.978307 -58.0 L -13.978307 -58.0 Z " stroke="#191919" stroke-width="0.35 px" style="stroke-width:0.35;stroke-miterlimit:4;stroke-dasharray:none;fill:#cccccc;fill-rule: evenodd "/>
<path id="Fillet" d="M -30.478307 24.0 A 2.0 2.0 0 0 0 -28.478307 26.0 L -28.478307 26.0 A 2.0 2.0 0 0 1 -30.478307 24.0 L -30.478307 24.0 Z " stroke="#191919" stroke-width="0.35 px" style="stroke-width:0.35;stroke-miterlimit:4;stroke-dasharray:none;fill:#cccccc;fill-rule: evenodd "/>
<path id="Fillet" d="M -11.978307 -60.0 A 2.0 2.0 0 0 0 -13.978307 -58.0 L -13.978307 -58.0 A 2.0 2.0 0 0 1 -11.978307 -60.0 L -11.978307 -60.0 Z " stroke="#191919" stroke-width="0.35 px" style="stroke-width:0.35;stroke-miterlimit:4;stroke-dasharray:none;fill:#cccccc;fill-rule: evenodd "/>
<path id="Fillet" d="M -28.478307 26.0 L -15.978307 26.0 L -15.978307 26.0 L -28.478307 26.0 L -28.478307 26.0 Z " stroke="#191919" stroke-width="0.35 px" style="stroke-width:0.35;stroke-miterlimit:4;stroke-dasharray:none;fill:#cccccc;fill-rule: evenodd "/>
<path id="Fillet" d="M 28.021693 -60.0 L -11.978307 -60.0 L -11.978307 -60.0 L 28.021693 -60.0 L 28.021693 -60.0 Z " stroke="#191919" stroke-width="0.35 px" style="stroke-width:0.35;stroke-miterlimit:4;stroke-dasharray:none;fill:#cccccc;fill-rule: evenodd "/>
<path id="Fillet" d="M -15.978307 26.0 A 2.0 2.0 0 0 0 -13.978307 24.0 L -13.978307 24.0 A 2.0 2.0 0 0 1 -15.978307 26.0 L -15.978307 26.0 Z " stroke="#191919" stroke-width="0.35 px" style="stroke-width:0.35;stroke-miterlimit:4;stroke-dasharray:none;fill:#cccccc;fill-rule: evenodd "/>
<path id="Fillet" d="M 30.021693 -58.0 A 2.0 2.0 0 0 0 28.021693 -60.0 L 28.021693 -60.0 A 2.0 2.0 0 0 1 30.021693 -58.0 L 30.021693 -58.0 Z " stroke="#191919" stroke-width="0.35 px" style="stroke-width:0.35;stroke-miterlimit:4;stroke-dasharray:none;fill:#cccccc;fill-rule: evenodd "/>
<path id="Fillet" d="M -13.978307 24.0 L -13.978307 -2.0 L -13.978307 -2.0 L -13.978307 24.0 L -13.978307 24.0 Z " stroke="#191919" stroke-width="0.35 px" style="stroke-width:0.35;stroke-miterlimit:4;stroke-dasharray:none;fill:#cccccc;fill-rule: evenodd "/>
<path id="Fillet" d="M 30.021693 -58.0 L 30.021693 -16.0 L 30.021693 -16.0 L 30.021693 -58.0 L 30.021693 -58.0 Z " stroke="#191919" stroke-width="0.35 px" style="stroke-width:0.35;stroke-miterlimit:4;stroke-dasharray:none;fill:#cccccc;fill-rule: evenodd "/>
<path id="Fillet" d="M -13.978307 -2.0 A 2.0 2.0 0 0 1 -11.978307 -4.0 L -11.978307 -4.0 A 2.0 2.0 0 0 0 -13.978307 -2.0 L -13.978307 -2.0 Z " stroke="#191919" stroke-width="0.35 px" style="stroke-width:0.35;stroke-miterlimit:4;stroke-dasharray:none;fill:#cccccc;fill-rule: evenodd "/>
<path id="Fillet" d="M 30.021693 -14.0 L 30.021693 -14.0 A 1.0 1.0 0 0 1 30.021693 -16.0 L 30.021693 -16.0 A 1.0 1.0 0 0 0 30.021693 -14.0 Z " stroke="#191919" stroke-width="0.35 px" style="stroke-width:0.35;stroke-miterlimit:4;stroke-dasharray:none;fill:#cccccc;fill-rule: evenodd "/>
<path id="Fillet" d="M -11.978307 -4.0 L 28.021693 -4.0 L 28.021693 -4.0 L -11.978307 -4.0 L -11.978307 -4.0 Z " stroke="#191919" stroke-width="0.35 px" style="stroke-width:0.35;stroke-miterlimit:4;stroke-dasharray:none;fill:#cccccc;fill-rule: evenodd "/>
<path id="Fillet" d="M 30.021693 -6.0 L 30.021693 -14.0 L 30.021693 -14.0 L 30.021693 -6.0 L 30.021693 -6.0 Z " stroke="#191919" stroke-width="0.35 px" style="stroke-width:0.35;stroke-miterlimit:4;stroke-dasharray:none;fill:#cccccc;fill-rule: evenodd "/>
<path id="Fillet" d="M 28.021693 -4.0 A 2.0 2.0 0 0 0 30.021693 -6.0 L 30.021693 -6.0 A 2.0 2.0 0 0 1 28.021693 -4.0 L 28.021693 -4.0 Z " stroke="#191919" stroke-width="0.35 px" style="stroke-width:0.35;stroke-miterlimit:4;stroke-dasharray:none;fill:#cccccc;fill-rule: evenodd "/>
</g>
</svg>