G75*
%MOIN*%
%OFA0B0*%
%FSLAX24Y24*%
%IPPOS*%
%LPD*%
%AMOC8*
5,1,8,0,0,1.08239X$1,22.5*
%
%ADD10C,0.0000*%
%ADD11C,0.0030*%
%ADD12C,0.0040*%
%ADD13C,0.0060*%
%ADD14C,0.0070*%
%ADD15R,0.0650X0.0320*%
%ADD16C,0.0050*%
%ADD17C,0.0080*%
%ADD18C,0.0010*%
%ADD19R,0.0364X0.0450*%
%ADD20C,0.0024*%
D10*
X000200Y001920D02*
X000200Y029479D01*
X014374Y029479D01*
X014374Y001920D01*
X000200Y001920D01*
X000560Y004920D02*
X000562Y004970D01*
X000568Y005020D01*
X000578Y005069D01*
X000591Y005118D01*
X000609Y005165D01*
X000630Y005211D01*
X000654Y005254D01*
X000682Y005296D01*
X000713Y005336D01*
X000747Y005373D01*
X000784Y005407D01*
X000824Y005438D01*
X000866Y005466D01*
X000909Y005490D01*
X000955Y005511D01*
X001002Y005529D01*
X001051Y005542D01*
X001100Y005552D01*
X001150Y005558D01*
X001200Y005560D01*
X001250Y005558D01*
X001300Y005552D01*
X001349Y005542D01*
X001398Y005529D01*
X001445Y005511D01*
X001491Y005490D01*
X001534Y005466D01*
X001576Y005438D01*
X001616Y005407D01*
X001653Y005373D01*
X001687Y005336D01*
X001718Y005296D01*
X001746Y005254D01*
X001770Y005211D01*
X001791Y005165D01*
X001809Y005118D01*
X001822Y005069D01*
X001832Y005020D01*
X001838Y004970D01*
X001840Y004920D01*
X001838Y004870D01*
X001832Y004820D01*
X001822Y004771D01*
X001809Y004722D01*
X001791Y004675D01*
X001770Y004629D01*
X001746Y004586D01*
X001718Y004544D01*
X001687Y004504D01*
X001653Y004467D01*
X001616Y004433D01*
X001576Y004402D01*
X001534Y004374D01*
X001491Y004350D01*
X001445Y004329D01*
X001398Y004311D01*
X001349Y004298D01*
X001300Y004288D01*
X001250Y004282D01*
X001200Y004280D01*
X001150Y004282D01*
X001100Y004288D01*
X001051Y004298D01*
X001002Y004311D01*
X000955Y004329D01*
X000909Y004350D01*
X000866Y004374D01*
X000824Y004402D01*
X000784Y004433D01*
X000747Y004467D01*
X000713Y004504D01*
X000682Y004544D01*
X000654Y004586D01*
X000630Y004629D01*
X000609Y004675D01*
X000591Y004722D01*
X000578Y004771D01*
X000568Y004820D01*
X000562Y004870D01*
X000560Y004920D01*
X004560Y004920D02*
X004562Y004970D01*
X004568Y005020D01*
X004578Y005069D01*
X004591Y005118D01*
X004609Y005165D01*
X004630Y005211D01*
X004654Y005254D01*
X004682Y005296D01*
X004713Y005336D01*
X004747Y005373D01*
X004784Y005407D01*
X004824Y005438D01*
X004866Y005466D01*
X004909Y005490D01*
X004955Y005511D01*
X005002Y005529D01*
X005051Y005542D01*
X005100Y005552D01*
X005150Y005558D01*
X005200Y005560D01*
X005250Y005558D01*
X005300Y005552D01*
X005349Y005542D01*
X005398Y005529D01*
X005445Y005511D01*
X005491Y005490D01*
X005534Y005466D01*
X005576Y005438D01*
X005616Y005407D01*
X005653Y005373D01*
X005687Y005336D01*
X005718Y005296D01*
X005746Y005254D01*
X005770Y005211D01*
X005791Y005165D01*
X005809Y005118D01*
X005822Y005069D01*
X005832Y005020D01*
X005838Y004970D01*
X005840Y004920D01*
X005838Y004870D01*
X005832Y004820D01*
X005822Y004771D01*
X005809Y004722D01*
X005791Y004675D01*
X005770Y004629D01*
X005746Y004586D01*
X005718Y004544D01*
X005687Y004504D01*
X005653Y004467D01*
X005616Y004433D01*
X005576Y004402D01*
X005534Y004374D01*
X005491Y004350D01*
X005445Y004329D01*
X005398Y004311D01*
X005349Y004298D01*
X005300Y004288D01*
X005250Y004282D01*
X005200Y004280D01*
X005150Y004282D01*
X005100Y004288D01*
X005051Y004298D01*
X005002Y004311D01*
X004955Y004329D01*
X004909Y004350D01*
X004866Y004374D01*
X004824Y004402D01*
X004784Y004433D01*
X004747Y004467D01*
X004713Y004504D01*
X004682Y004544D01*
X004654Y004586D01*
X004630Y004629D01*
X004609Y004675D01*
X004591Y004722D01*
X004578Y004771D01*
X004568Y004820D01*
X004562Y004870D01*
X004560Y004920D01*
X011702Y010735D02*
X011704Y010785D01*
X011710Y010835D01*
X011720Y010885D01*
X011733Y010933D01*
X011750Y010981D01*
X011771Y011027D01*
X011795Y011071D01*
X011823Y011113D01*
X011854Y011153D01*
X011888Y011190D01*
X011925Y011225D01*
X011964Y011256D01*
X012005Y011285D01*
X012049Y011310D01*
X012095Y011332D01*
X012142Y011350D01*
X012190Y011364D01*
X012239Y011375D01*
X012289Y011382D01*
X012339Y011385D01*
X012390Y011384D01*
X012440Y011379D01*
X012490Y011370D01*
X012538Y011358D01*
X012586Y011341D01*
X012632Y011321D01*
X012677Y011298D01*
X012720Y011271D01*
X012760Y011241D01*
X012798Y011208D01*
X012833Y011172D01*
X012866Y011133D01*
X012895Y011092D01*
X012921Y011049D01*
X012944Y011004D01*
X012963Y010957D01*
X012978Y010909D01*
X012990Y010860D01*
X012998Y010810D01*
X013002Y010760D01*
X013002Y010710D01*
X012998Y010660D01*
X012990Y010610D01*
X012978Y010561D01*
X012963Y010513D01*
X012944Y010466D01*
X012921Y010421D01*
X012895Y010378D01*
X012866Y010337D01*
X012833Y010298D01*
X012798Y010262D01*
X012760Y010229D01*
X012720Y010199D01*
X012677Y010172D01*
X012632Y010149D01*
X012586Y010129D01*
X012538Y010112D01*
X012490Y010100D01*
X012440Y010091D01*
X012390Y010086D01*
X012339Y010085D01*
X012289Y010088D01*
X012239Y010095D01*
X012190Y010106D01*
X012142Y010120D01*
X012095Y010138D01*
X012049Y010160D01*
X012005Y010185D01*
X011964Y010214D01*
X011925Y010245D01*
X011888Y010280D01*
X011854Y010317D01*
X011823Y010357D01*
X011795Y010399D01*
X011771Y010443D01*
X011750Y010489D01*
X011733Y010537D01*
X011720Y010585D01*
X011710Y010635D01*
X011704Y010685D01*
X011702Y010735D01*
D11*
X013077Y025039D02*
X012981Y025136D01*
X013271Y025136D01*
X013271Y025232D02*
X013271Y025039D01*
X013222Y025334D02*
X013271Y025382D01*
X013271Y025479D01*
X013222Y025527D01*
X013174Y025527D01*
X013126Y025479D01*
X013126Y025430D01*
X013126Y025479D02*
X013077Y025527D01*
X013029Y025527D01*
X012981Y025479D01*
X012981Y025382D01*
X013029Y025334D01*
X013222Y025628D02*
X013222Y025677D01*
X013271Y025677D01*
X013271Y025628D01*
X013222Y025628D01*
X013271Y025776D02*
X013077Y025969D01*
X013029Y025969D01*
X012981Y025921D01*
X012981Y025824D01*
X013029Y025776D01*
X013271Y025776D02*
X013271Y025969D01*
X013271Y026070D02*
X012981Y026070D01*
X013126Y026119D02*
X013271Y026264D01*
X013174Y026070D02*
X012981Y026264D01*
X013028Y027045D02*
X012834Y027045D01*
X013028Y027238D01*
X013028Y027286D01*
X012979Y027335D01*
X012883Y027335D01*
X012834Y027286D01*
X012733Y027335D02*
X012539Y027335D01*
X012539Y027045D01*
X012438Y027093D02*
X012438Y027335D01*
X012539Y027190D02*
X012636Y027190D01*
X012438Y027093D02*
X012390Y027045D01*
X012293Y027045D01*
X012245Y027093D01*
X012245Y027335D01*
X012144Y027045D02*
X011950Y027045D01*
X012047Y027045D02*
X012047Y027335D01*
X011950Y027238D01*
X011851Y027093D02*
X011851Y027045D01*
X011803Y027045D01*
X011803Y027093D01*
X011851Y027093D01*
X011702Y027093D02*
X011653Y027045D01*
X011557Y027045D01*
X011508Y027093D01*
X011702Y027286D01*
X011702Y027093D01*
X011702Y027286D02*
X011653Y027335D01*
X011557Y027335D01*
X011508Y027286D01*
X011508Y027093D01*
X002811Y015546D02*
X002564Y015546D01*
X002443Y015669D02*
X002381Y015731D01*
X002258Y015731D01*
X002196Y015669D01*
X002196Y015422D01*
X002258Y015361D01*
X002381Y015361D01*
X002443Y015422D01*
X002443Y015669D01*
X002074Y015669D02*
X001827Y015422D01*
X001827Y015361D01*
X002074Y015361D01*
X002074Y015669D02*
X002074Y015731D01*
X001827Y015731D01*
X001706Y015731D02*
X001459Y015731D01*
X001459Y015361D01*
X001706Y015361D01*
X001583Y015546D02*
X001459Y015546D01*
X001337Y015731D02*
X001214Y015731D01*
X001275Y015731D02*
X001275Y015361D01*
X001214Y015361D02*
X001337Y015361D01*
X001092Y015546D02*
X001030Y015484D01*
X000845Y015484D01*
X000845Y015361D02*
X000845Y015731D01*
X001030Y015731D01*
X001092Y015669D01*
X001092Y015546D01*
D12*
X002418Y019516D02*
X002341Y019593D01*
X002341Y019747D01*
X002418Y019823D01*
X002494Y019823D01*
X002571Y019747D01*
X002648Y019823D01*
X002725Y019823D01*
X002801Y019747D01*
X002801Y019593D01*
X002725Y019516D01*
X002571Y019670D02*
X002571Y019747D01*
X002571Y019977D02*
X002418Y020130D01*
X002341Y020284D01*
X002341Y020437D02*
X002801Y020437D01*
X002648Y020437D02*
X002341Y020744D01*
X002571Y020514D02*
X002801Y020744D01*
X002725Y020284D02*
X002648Y020284D01*
X002571Y020207D01*
X002571Y019977D01*
X002725Y019977D01*
X002801Y020053D01*
X002801Y020207D01*
X002725Y020284D01*
X004380Y021973D02*
X004841Y021973D01*
X004841Y021820D02*
X004841Y022126D01*
X004841Y022280D02*
X004764Y022280D01*
X004764Y022357D01*
X004841Y022357D01*
X004841Y022280D01*
X004841Y022740D02*
X004380Y022740D01*
X004610Y022510D01*
X004610Y022817D01*
X004687Y022970D02*
X004380Y023277D01*
X004457Y023431D02*
X004764Y023431D01*
X004841Y023508D01*
X004841Y023661D01*
X004764Y023738D01*
X004457Y023738D01*
X004380Y023661D01*
X004380Y023508D01*
X004457Y023431D01*
X004380Y023891D02*
X004841Y024198D01*
X004380Y024198D01*
X004380Y023891D02*
X004841Y023891D01*
X004841Y023277D02*
X004610Y023047D01*
X004380Y022970D02*
X004841Y022970D01*
X004380Y021973D02*
X004534Y021820D01*
X004703Y021157D02*
X005010Y020850D01*
X004933Y020927D02*
X005163Y021157D01*
X005163Y020850D02*
X004703Y020850D01*
X004780Y020697D02*
X005087Y020390D01*
X005163Y020467D01*
X005163Y020620D01*
X005087Y020697D01*
X004780Y020697D01*
X004703Y020620D01*
X004703Y020467D01*
X004780Y020390D01*
X005087Y020390D01*
X005087Y020236D02*
X005163Y020160D01*
X005163Y020006D01*
X005087Y019930D01*
X005010Y019930D01*
X004933Y020006D01*
X004933Y020160D01*
X005010Y020236D01*
X005087Y020236D01*
X004933Y020160D02*
X004857Y020236D01*
X004780Y020236D01*
X004703Y020160D01*
X004703Y020006D01*
X004780Y019930D01*
X004857Y019930D01*
X004933Y020006D01*
X005010Y019776D02*
X004933Y019699D01*
X004933Y019469D01*
X005087Y019469D01*
X005163Y019546D01*
X005163Y019699D01*
X005087Y019776D01*
X005010Y019776D01*
X004780Y019623D02*
X004933Y019469D01*
X004780Y019623D02*
X004703Y019776D01*
X004761Y017196D02*
X004914Y017196D01*
X004991Y017119D01*
X004684Y016812D01*
X004761Y016736D01*
X004914Y016736D01*
X004991Y016812D01*
X004991Y017119D01*
X005144Y016812D02*
X005221Y016812D01*
X005221Y016736D01*
X005144Y016736D01*
X005144Y016812D01*
X005375Y016736D02*
X005682Y016736D01*
X005528Y016736D02*
X005528Y017196D01*
X005375Y017043D01*
X005835Y017196D02*
X005835Y016812D01*
X005912Y016736D01*
X006065Y016736D01*
X006142Y016812D01*
X006142Y017196D01*
X006295Y017196D02*
X006295Y016736D01*
X006295Y016966D02*
X006449Y016966D01*
X006295Y017196D02*
X006602Y017196D01*
X006574Y015577D02*
X006574Y015116D01*
X006267Y015193D02*
X006267Y015577D01*
X006420Y015577D02*
X006727Y015577D01*
X006267Y015193D02*
X006190Y015116D01*
X006037Y015116D01*
X005960Y015193D01*
X005960Y015577D01*
X005806Y015500D02*
X005806Y015193D01*
X005730Y015116D01*
X005576Y015116D01*
X005499Y015193D01*
X005499Y015500D01*
X005576Y015577D01*
X005730Y015577D01*
X005806Y015500D01*
X005346Y015577D02*
X005039Y015270D01*
X005116Y015347D02*
X005346Y015116D01*
X005039Y015116D02*
X005039Y015577D01*
X004886Y015500D02*
X004886Y015193D01*
X004809Y015116D01*
X004655Y015116D01*
X004579Y015193D01*
X004886Y015500D01*
X004809Y015577D01*
X004655Y015577D01*
X004579Y015500D01*
X004579Y015193D01*
X004425Y015116D02*
X004118Y015116D01*
X004272Y015116D02*
X004272Y015577D01*
X004118Y015423D01*
X004684Y016812D02*
X004684Y017119D01*
X004761Y017196D01*
X006418Y012789D02*
X006418Y012329D01*
X006571Y012329D02*
X006264Y012329D01*
X006264Y012636D02*
X006418Y012789D01*
X006725Y012789D02*
X006725Y012329D01*
X006878Y012636D02*
X007032Y012789D01*
X007032Y012329D01*
X007185Y012482D02*
X007185Y012636D01*
X007339Y012789D01*
X007492Y012636D02*
X007645Y012789D01*
X007645Y012329D01*
X007492Y012329D02*
X007799Y012329D01*
X007952Y012329D02*
X008259Y012636D01*
X008259Y012713D01*
X008183Y012789D01*
X008029Y012789D01*
X007952Y012713D01*
X007952Y012329D02*
X008259Y012329D01*
X008413Y012406D02*
X008413Y012713D01*
X008489Y012789D01*
X008643Y012789D01*
X008720Y012713D01*
X008413Y012406D01*
X008489Y012329D01*
X008643Y012329D01*
X008720Y012406D01*
X008720Y012713D01*
X008873Y012559D02*
X008873Y012406D01*
X008950Y012329D01*
X009103Y012329D01*
X009180Y012406D01*
X009180Y012482D01*
X009103Y012559D01*
X008873Y012559D01*
X009027Y012713D01*
X009180Y012789D01*
X009334Y012789D02*
X009487Y012636D01*
X009487Y012482D01*
X009334Y012329D01*
X007339Y012329D02*
X007185Y012482D01*
X006878Y012636D02*
X006725Y012789D01*
X010638Y017605D02*
X010484Y017758D01*
X010638Y017911D01*
X010945Y017911D01*
X010945Y018065D02*
X010484Y018065D01*
X010638Y018218D01*
X010484Y018372D01*
X010945Y018372D01*
X010945Y018525D02*
X010484Y018525D01*
X010484Y018756D01*
X010561Y018832D01*
X010714Y018832D01*
X010791Y018756D01*
X010791Y018525D01*
X010714Y017911D02*
X010714Y017605D01*
X010638Y017605D02*
X010945Y017605D01*
X012529Y023367D02*
X012529Y023827D01*
X012759Y023827D01*
X012836Y023750D01*
X012836Y023597D01*
X012759Y023520D01*
X012529Y023520D01*
X012682Y023520D02*
X012836Y023367D01*
X012989Y023827D02*
X013296Y023827D01*
X013143Y023827D02*
X013143Y023367D01*
X013087Y028485D02*
X012934Y028485D01*
X013011Y028485D02*
X013011Y028945D01*
X013087Y028945D02*
X012934Y028945D01*
X012780Y028869D02*
X012780Y028715D01*
X012704Y028638D01*
X012474Y028638D01*
X012627Y028638D02*
X012780Y028485D01*
X012780Y028869D02*
X012704Y028945D01*
X012474Y028945D01*
X012474Y028485D01*
X013241Y028485D02*
X013548Y028792D01*
X013548Y028869D01*
X013471Y028945D01*
X013318Y028945D01*
X013241Y028869D01*
X013241Y028485D02*
X013548Y028485D01*
X009192Y025847D02*
X009192Y025540D01*
X009192Y025693D02*
X008732Y025693D01*
X008885Y025540D01*
X008732Y025386D02*
X008732Y025079D01*
X009192Y025079D01*
X009115Y024926D02*
X008732Y024926D01*
X008732Y024619D02*
X009115Y024619D01*
X009192Y024696D01*
X009192Y024849D01*
X009115Y024926D01*
X008962Y025079D02*
X008962Y025233D01*
X009192Y024465D02*
X009192Y024159D01*
X009192Y024312D02*
X008732Y024312D01*
X008885Y024159D01*
X008809Y023775D02*
X009115Y023468D01*
X009192Y023545D01*
X009192Y023698D01*
X009115Y023775D01*
X008809Y023775D01*
X008732Y023698D01*
X008732Y023545D01*
X008809Y023468D01*
X009115Y023468D01*
X009115Y023928D02*
X009115Y024005D01*
X009192Y024005D01*
X009192Y023928D01*
X009115Y023928D01*
X007822Y023928D02*
X007822Y024005D01*
X007745Y024005D01*
X007745Y023928D01*
X007822Y023928D01*
X007745Y023775D02*
X007822Y023698D01*
X007822Y023545D01*
X007745Y023468D01*
X007438Y023775D01*
X007745Y023775D01*
X007745Y023468D02*
X007438Y023468D01*
X007362Y023545D01*
X007362Y023698D01*
X007438Y023775D01*
X007438Y024159D02*
X007362Y024235D01*
X007362Y024389D01*
X007438Y024465D01*
X007515Y024465D01*
X007592Y024389D01*
X007669Y024465D01*
X007745Y024465D01*
X007822Y024389D01*
X007822Y024235D01*
X007745Y024159D01*
X007592Y024312D02*
X007592Y024389D01*
X007745Y024619D02*
X007822Y024696D01*
X007822Y024849D01*
X007745Y024926D01*
X007669Y024926D01*
X007592Y024849D01*
X007592Y024772D01*
X007592Y024849D02*
X007515Y024926D01*
X007438Y024926D01*
X007362Y024849D01*
X007362Y024696D01*
X007438Y024619D01*
X007362Y025079D02*
X007745Y025079D01*
X007822Y025156D01*
X007822Y025309D01*
X007745Y025386D01*
X007362Y025386D01*
X007362Y025540D02*
X007362Y025847D01*
X007362Y025540D02*
X007822Y025540D01*
X007592Y025540D02*
X007592Y025693D01*
X007468Y026411D02*
X007852Y026411D01*
X007928Y026488D01*
X007928Y026641D01*
X007852Y026718D01*
X007468Y026718D01*
X007545Y026871D02*
X007468Y026948D01*
X007468Y027101D01*
X007545Y027178D01*
X007545Y027332D02*
X007468Y027408D01*
X007468Y027562D01*
X007545Y027639D01*
X007621Y027639D01*
X007928Y027332D01*
X007928Y027639D01*
X007852Y027178D02*
X007775Y027178D01*
X007698Y027101D01*
X007698Y026948D01*
X007621Y026871D01*
X007545Y026871D01*
X007391Y027025D02*
X008005Y027025D01*
X007928Y027101D02*
X007852Y027178D01*
X007928Y027101D02*
X007928Y026948D01*
X007852Y026871D01*
X005919Y027127D02*
X005459Y027127D01*
X005459Y027357D01*
X005536Y027434D01*
X005689Y027434D01*
X005766Y027357D01*
X005766Y027127D01*
X005766Y027280D02*
X005919Y027434D01*
X005919Y027587D02*
X005459Y027587D01*
X005459Y027817D01*
X005536Y027894D01*
X005689Y027894D01*
X005766Y027817D01*
X005766Y027587D01*
X005766Y027740D02*
X005919Y027894D01*
X005919Y028047D02*
X005612Y028354D01*
X005536Y028354D01*
X005459Y028278D01*
X005459Y028124D01*
X005536Y028047D01*
X005919Y028047D02*
X005919Y028354D01*
X004108Y028374D02*
X004108Y028067D01*
X004108Y028221D02*
X003648Y028221D01*
X003801Y028067D01*
X003648Y027914D02*
X003648Y027607D01*
X004108Y027607D01*
X004108Y027453D02*
X003955Y027300D01*
X003955Y027376D02*
X003955Y027146D01*
X004108Y027146D02*
X003648Y027146D01*
X003648Y027376D01*
X003725Y027453D01*
X003878Y027453D01*
X003955Y027376D01*
X003878Y027607D02*
X003878Y027760D01*
X003052Y027540D02*
X002745Y027540D01*
X002898Y027540D02*
X002898Y028000D01*
X002745Y027847D01*
X002591Y027847D02*
X002591Y027924D01*
X002515Y028000D01*
X002284Y028000D01*
X002284Y027540D01*
X002515Y027540D01*
X002591Y027617D01*
X002591Y027693D01*
X002515Y027770D01*
X002284Y027770D01*
X002131Y027770D02*
X002131Y027924D01*
X002054Y028000D01*
X001824Y028000D01*
X001824Y027540D01*
X001824Y027693D02*
X002054Y027693D01*
X002131Y027770D01*
X001977Y027693D02*
X002131Y027540D01*
X002515Y027770D02*
X002591Y027847D01*
X003582Y025139D02*
X003505Y025062D01*
X003505Y024909D01*
X003582Y024832D01*
X003505Y024678D02*
X003505Y024371D01*
X003505Y024525D02*
X003966Y024525D01*
X003966Y024832D02*
X003659Y025139D01*
X003582Y025139D01*
X003966Y025139D02*
X003966Y024832D01*
X010427Y004712D02*
X010350Y004635D01*
X010350Y004405D01*
X010810Y004405D01*
X010657Y004405D02*
X010657Y004635D01*
X010580Y004712D01*
X010427Y004712D01*
X010657Y004559D02*
X010810Y004712D01*
X010810Y004252D02*
X010810Y003945D01*
X010350Y003945D01*
X010350Y004252D01*
X010580Y004098D02*
X010580Y003945D01*
X010810Y003791D02*
X010350Y003791D01*
X010350Y003484D02*
X010810Y003484D01*
X010657Y003638D01*
X010810Y003791D01*
X010734Y003331D02*
X010427Y003331D01*
X010350Y003254D01*
X010350Y003101D01*
X010427Y003024D01*
X010734Y003024D01*
X010810Y003101D01*
X010810Y003254D01*
X010734Y003331D01*
X010580Y002871D02*
X010427Y002871D01*
X010350Y002794D01*
X010350Y002564D01*
X010810Y002564D01*
X010657Y002564D02*
X010657Y002794D01*
X010580Y002871D01*
X010887Y002410D02*
X010887Y002103D01*
X010657Y001873D02*
X010657Y001643D01*
X010810Y001643D02*
X010350Y001643D01*
X010350Y001873D01*
X010427Y001950D01*
X010580Y001950D01*
X010657Y001873D01*
X010580Y001489D02*
X010580Y001182D01*
X010503Y001182D02*
X010350Y001336D01*
X010503Y001489D01*
X010810Y001489D01*
X010810Y001182D02*
X010503Y001182D01*
X010427Y001029D02*
X010350Y000952D01*
X010350Y000799D01*
X010427Y000722D01*
X010734Y000722D01*
X010810Y000799D01*
X010810Y000952D01*
X010734Y001029D01*
X001988Y002940D02*
X001681Y002940D01*
X001834Y002940D02*
X001834Y003401D01*
X001681Y003247D01*
X001527Y003401D02*
X001374Y003401D01*
X001451Y003401D02*
X001451Y003017D01*
X001374Y002940D01*
X001297Y002940D01*
X001220Y003017D01*
D13*
X001328Y010035D02*
X001078Y010285D01*
X001078Y010785D01*
X001328Y011035D01*
X001828Y011035D01*
X002078Y010785D01*
X002078Y010285D01*
X001828Y010035D01*
X001328Y010035D01*
X001328Y016042D02*
X001078Y016292D01*
X001078Y016792D01*
X001328Y017042D01*
X001828Y017042D01*
X002078Y016792D01*
X002078Y016292D01*
X001828Y016042D01*
X001328Y016042D01*
X001328Y017834D02*
X001078Y018084D01*
X001078Y018584D01*
X001328Y018834D01*
X001828Y018834D01*
X002078Y018584D01*
X002078Y018084D01*
X001828Y017834D01*
X001328Y017834D01*
X001328Y023641D02*
X001828Y023641D01*
X002078Y023891D01*
X002078Y024391D01*
X001828Y024641D01*
X001328Y024641D01*
X001078Y024391D01*
X001078Y023891D01*
X001328Y023641D01*
X002180Y024821D02*
X002480Y024821D01*
X002480Y025961D01*
X002180Y025961D01*
X002180Y024821D01*
X005693Y014076D02*
X005693Y012442D01*
X011346Y012442D01*
X011346Y014076D01*
X005693Y014076D01*
D14*
X006054Y014294D02*
X006475Y014294D01*
X006264Y014294D02*
X006264Y014924D01*
X006054Y014714D01*
X006699Y014924D02*
X006699Y014294D01*
X006909Y014714D02*
X007119Y014924D01*
X007119Y014294D01*
X006909Y014714D02*
X006699Y014924D01*
D15*
X005344Y013259D03*
X011694Y013259D03*
D16*
X010141Y015001D02*
X009141Y015001D01*
X009141Y015322D01*
X009141Y016842D01*
X009141Y018361D01*
X009141Y019121D01*
X009141Y019881D01*
X009141Y020641D01*
X009141Y021401D01*
X009141Y022161D01*
X009141Y022481D01*
X010141Y022481D01*
X010141Y015001D01*
X009141Y015322D02*
X008153Y015322D01*
X008153Y016842D02*
X009141Y016842D01*
X009141Y018361D02*
X008153Y018361D01*
X008153Y019121D02*
X009141Y019121D01*
X009141Y019881D02*
X008153Y019881D01*
X008153Y020641D02*
X009141Y020641D01*
X009141Y021401D02*
X008153Y021401D01*
X008153Y022161D02*
X009141Y022161D01*
X002334Y023067D02*
X002334Y023368D01*
X002334Y023067D02*
X002184Y022917D01*
X002034Y023067D01*
X002034Y023368D01*
X001873Y023368D02*
X001723Y023293D01*
X001573Y023143D01*
X001798Y023143D01*
X001873Y023067D01*
X001873Y022992D01*
X001798Y022917D01*
X001648Y022917D01*
X001573Y022992D01*
X001573Y023143D01*
X001413Y023143D02*
X001188Y023143D01*
X001113Y023218D01*
X001113Y023293D01*
X001188Y023368D01*
X001338Y023368D01*
X001413Y023293D01*
X001413Y022992D01*
X001338Y022917D01*
X001188Y022917D01*
X001113Y022992D01*
X001027Y025447D02*
X001027Y025747D01*
X001027Y025597D02*
X001478Y025597D01*
X001478Y025907D02*
X001478Y026207D01*
X001478Y026057D02*
X001027Y026057D01*
X001178Y025907D01*
X001140Y017639D02*
X001440Y017189D01*
X001440Y017639D01*
X001600Y017639D02*
X001826Y017639D01*
X001901Y017564D01*
X001901Y017264D01*
X001826Y017189D01*
X001600Y017189D01*
X001600Y017639D01*
X001140Y017639D02*
X001140Y017189D01*
X000980Y017264D02*
X000980Y017414D01*
X000830Y017414D01*
X000980Y017264D02*
X000905Y017189D01*
X000755Y017189D01*
X000680Y017264D01*
X000680Y017564D01*
X000755Y017639D01*
X000905Y017639D01*
X000980Y017564D01*
X002061Y017639D02*
X002061Y017189D01*
X002061Y017339D02*
X002286Y017339D01*
X002361Y017414D01*
X002361Y017564D01*
X002286Y017639D01*
X002061Y017639D01*
X000608Y013859D02*
X000608Y013559D01*
X000458Y013709D02*
X000758Y013709D01*
X000758Y013399D02*
X000458Y013399D01*
X000383Y013324D01*
X000383Y013174D01*
X000458Y013099D01*
X000758Y013099D01*
X000833Y013174D01*
X000833Y013324D01*
X000758Y013399D01*
X000833Y012939D02*
X000833Y012638D01*
X000758Y012638D01*
X000458Y012939D01*
X000383Y012939D01*
X000383Y012638D01*
X000383Y012478D02*
X000383Y012178D01*
X000833Y012178D01*
X000833Y012478D01*
X000608Y012328D02*
X000608Y012178D01*
X000833Y012021D02*
X000833Y011871D01*
X000833Y011946D02*
X000383Y011946D01*
X000383Y011871D02*
X000383Y012021D01*
X000458Y011711D02*
X000383Y011636D01*
X000383Y011411D01*
X000833Y011411D01*
X000683Y011411D02*
X000683Y011636D01*
X000608Y011711D01*
X000458Y011711D01*
X000383Y011251D02*
X000383Y010950D01*
X000383Y011100D02*
X000833Y011100D01*
X000758Y010790D02*
X000383Y010790D01*
X000383Y010490D02*
X000758Y010490D01*
X000833Y010565D01*
X000833Y010715D01*
X000758Y010790D01*
X000758Y010330D02*
X000458Y010330D01*
X000383Y010255D01*
X000383Y010105D01*
X000458Y010030D01*
X000758Y010030D01*
X000833Y010105D01*
X000833Y010255D01*
X000758Y010330D01*
X007492Y005346D02*
X014169Y005346D01*
X007466Y005346D02*
X007468Y005461D01*
X007474Y005577D01*
X007484Y005692D01*
X007498Y005807D01*
X007515Y005921D01*
X007537Y006034D01*
X007563Y006147D01*
X007592Y006258D01*
X007625Y006369D01*
X007662Y006478D01*
X007703Y006587D01*
X007748Y006693D01*
X007796Y006798D01*
X007847Y006901D01*
X007902Y007003D01*
X007961Y007102D01*
X008023Y007200D01*
X008088Y007295D01*
X008157Y007388D01*
X008228Y007479D01*
X008303Y007567D01*
X008381Y007652D01*
X008462Y007735D01*
X008545Y007815D01*
X008631Y007892D01*
X008720Y007966D01*
X008811Y008037D01*
X008904Y008104D01*
X009000Y008169D01*
X009098Y008230D01*
X009198Y008288D01*
X009300Y008342D01*
X009404Y008393D01*
X009509Y008440D01*
X009616Y008483D01*
X009725Y008523D01*
X009835Y008559D01*
X009945Y008592D01*
X010057Y008620D01*
X010170Y008645D01*
X010284Y008665D01*
X010398Y008682D01*
X010513Y008695D01*
X010628Y008704D01*
X010743Y008709D01*
X010859Y008710D01*
X010974Y008707D01*
X011090Y008700D01*
X011205Y008689D01*
X011319Y008674D01*
X011433Y008655D01*
X011546Y008633D01*
X011659Y008606D01*
X011770Y008576D01*
X011881Y008542D01*
X011990Y008504D01*
X012097Y008462D01*
X012204Y008417D01*
X012308Y008368D01*
X012411Y008315D01*
X012512Y008259D01*
X012611Y008200D01*
X012708Y008137D01*
X012803Y008071D01*
X012895Y008002D01*
X012985Y007929D01*
X013072Y007854D01*
X013157Y007775D01*
X013239Y007694D01*
X013318Y007610D01*
X013395Y007523D01*
X013468Y007434D01*
X013538Y007342D01*
X013605Y007248D01*
X013668Y007151D01*
X013729Y007053D01*
X013786Y006952D01*
X013839Y006850D01*
X013889Y006746D01*
X013935Y006640D01*
X013978Y006533D01*
X014017Y006424D01*
X014052Y006314D01*
X014083Y006203D01*
X014111Y006091D01*
X014134Y005977D01*
X014154Y005864D01*
X014170Y005749D01*
X014182Y005634D01*
X014190Y005519D01*
X014194Y005404D01*
X014194Y005288D01*
X014190Y005173D01*
X014182Y005058D01*
X014170Y004943D01*
X014154Y004828D01*
X014134Y004715D01*
X014111Y004601D01*
X014083Y004489D01*
X014052Y004378D01*
X014017Y004268D01*
X013978Y004159D01*
X013935Y004052D01*
X013889Y003946D01*
X013839Y003842D01*
X013786Y003740D01*
X013729Y003639D01*
X013668Y003541D01*
X013605Y003444D01*
X013538Y003350D01*
X013468Y003258D01*
X013395Y003169D01*
X013318Y003082D01*
X013239Y002998D01*
X013157Y002917D01*
X013072Y002838D01*
X012985Y002763D01*
X012895Y002690D01*
X012803Y002621D01*
X012708Y002555D01*
X012611Y002492D01*
X012512Y002433D01*
X012411Y002377D01*
X012308Y002324D01*
X012204Y002275D01*
X012097Y002230D01*
X011990Y002188D01*
X011881Y002150D01*
X011770Y002116D01*
X011659Y002086D01*
X011546Y002059D01*
X011433Y002037D01*
X011319Y002018D01*
X011205Y002003D01*
X011090Y001992D01*
X010974Y001985D01*
X010859Y001982D01*
X010743Y001983D01*
X010628Y001988D01*
X010513Y001997D01*
X010398Y002010D01*
X010284Y002027D01*
X010170Y002047D01*
X010057Y002072D01*
X009945Y002100D01*
X009835Y002133D01*
X009725Y002169D01*
X009616Y002209D01*
X009509Y002252D01*
X009404Y002299D01*
X009300Y002350D01*
X009198Y002404D01*
X009098Y002462D01*
X009000Y002523D01*
X008904Y002588D01*
X008811Y002655D01*
X008720Y002726D01*
X008631Y002800D01*
X008545Y002877D01*
X008462Y002957D01*
X008381Y003040D01*
X008303Y003125D01*
X008228Y003213D01*
X008157Y003304D01*
X008088Y003397D01*
X008023Y003492D01*
X007961Y003590D01*
X007902Y003689D01*
X007847Y003791D01*
X007796Y003894D01*
X007748Y003999D01*
X007703Y004105D01*
X007662Y004214D01*
X007625Y004323D01*
X007592Y004434D01*
X007563Y004545D01*
X007537Y004658D01*
X007515Y004771D01*
X007498Y004885D01*
X007484Y005000D01*
X007474Y005115D01*
X007468Y005231D01*
X007466Y005346D01*
X010830Y008684D02*
X010830Y002007D01*
D17*
X000493Y001857D02*
X000493Y009180D01*
X005908Y009180D01*
X005908Y001857D01*
X000493Y001857D01*
X009830Y003965D02*
X009830Y004579D01*
X012523Y004272D02*
X013137Y004272D01*
X012830Y003965D02*
X012830Y004579D01*
X011643Y026393D02*
X011643Y026590D01*
X011643Y027889D01*
X008254Y027889D02*
X008254Y026590D01*
X008254Y026393D01*
D18*
X003109Y009111D02*
X003109Y008800D01*
X002902Y009111D01*
X002902Y008800D01*
X002809Y008800D02*
X002705Y008800D01*
X002757Y008800D02*
X002757Y009111D01*
X002705Y009111D02*
X002809Y009111D01*
X003007Y006861D02*
X002955Y006809D01*
X002955Y006602D01*
X003007Y006550D01*
X003111Y006550D01*
X003162Y006602D01*
X003162Y006706D01*
X003059Y006706D01*
X003162Y006809D02*
X003111Y006861D01*
X003007Y006861D01*
X003250Y006861D02*
X003250Y006550D01*
X003457Y006550D02*
X003250Y006861D01*
X003457Y006861D02*
X003457Y006550D01*
X003545Y006550D02*
X003545Y006861D01*
X003700Y006861D01*
X003752Y006809D01*
X003752Y006602D01*
X003700Y006550D01*
X003545Y006550D01*
X004080Y006602D02*
X004132Y006550D01*
X004236Y006550D01*
X004287Y006602D01*
X004287Y006706D01*
X004184Y006706D01*
X004287Y006809D02*
X004236Y006861D01*
X004132Y006861D01*
X004080Y006809D01*
X004080Y006602D01*
X004375Y006550D02*
X004375Y006861D01*
X004582Y006550D01*
X004582Y006861D01*
X004670Y006861D02*
X004825Y006861D01*
X004877Y006809D01*
X004877Y006602D01*
X004825Y006550D01*
X004670Y006550D01*
X004670Y006861D01*
X004632Y008300D02*
X004580Y008352D01*
X004632Y008300D02*
X004736Y008300D01*
X004787Y008352D01*
X004787Y008456D01*
X004736Y008507D01*
X004684Y008507D01*
X004580Y008456D01*
X004580Y008611D01*
X004787Y008611D01*
X004875Y008611D02*
X004875Y008404D01*
X004978Y008300D01*
X005082Y008404D01*
X005082Y008611D01*
X002627Y006809D02*
X002575Y006861D01*
X002420Y006861D01*
X002420Y006550D01*
X002575Y006550D01*
X002627Y006602D01*
X002627Y006809D01*
X002332Y006861D02*
X002332Y006550D01*
X002125Y006861D01*
X002125Y006550D01*
X002037Y006602D02*
X002037Y006706D01*
X001934Y006706D01*
X002037Y006809D02*
X001986Y006861D01*
X001882Y006861D01*
X001830Y006809D01*
X001830Y006602D01*
X001882Y006550D01*
X001986Y006550D01*
X002037Y006602D01*
X001523Y008300D02*
X001627Y008404D01*
X001627Y008611D01*
X001420Y008611D02*
X001420Y008404D01*
X001523Y008300D01*
X001332Y008300D02*
X001125Y008300D01*
X001332Y008507D01*
X001332Y008559D01*
X001280Y008611D01*
X001177Y008611D01*
X001125Y008559D01*
X000934Y008611D02*
X000934Y008300D01*
X001037Y008300D02*
X000830Y008300D01*
X000830Y008507D02*
X000934Y008611D01*
D19*
X000282Y002986D03*
X006119Y002986D03*
D20*
X010224Y014188D02*
X010224Y024031D01*
X014074Y024031D01*
X014074Y014188D01*
X010224Y014188D01*
M02*
