G75*
%MOIN*%
%OFA0B0*%
%FSLAX24Y24*%
%IPPOS*%
%LPD*%
%AMOC8*
5,1,8,0,0,1.08239X$1,22.5*
%
%ADD10C,0.0000*%
%ADD11R,0.0630X0.0709*%
%ADD12R,0.0709X0.0630*%
%ADD13R,0.0710X0.0630*%
%ADD14R,0.0630X0.0710*%
%ADD15C,0.0787*%
%ADD16R,0.0357X0.0357*%
%ADD17C,0.0886*%
%ADD18OC8,0.0600*%
%ADD19C,0.0554*%
%ADD20R,0.0350X0.0310*%
%ADD21R,0.0551X0.0315*%
%ADD22R,0.0748X0.0315*%
%ADD23C,0.0600*%
%ADD24R,0.1424X0.1424*%
%ADD25R,0.0236X0.0866*%
%ADD26C,0.0660*%
%ADD27C,0.0300*%
%ADD28C,0.0400*%
%ADD29C,0.0396*%
%ADD30C,0.0320*%
%ADD31C,0.0160*%
%ADD32C,0.0181*%
D10*
X000200Y001920D02*
X000200Y029479D01*
X014374Y029479D01*
X014374Y001920D01*
X000200Y001920D01*
X000560Y004920D02*
X000562Y004970D01*
X000568Y005020D01*
X000578Y005069D01*
X000591Y005118D01*
X000609Y005165D01*
X000630Y005211D01*
X000654Y005254D01*
X000682Y005296D01*
X000713Y005336D01*
X000747Y005373D01*
X000784Y005407D01*
X000824Y005438D01*
X000866Y005466D01*
X000909Y005490D01*
X000955Y005511D01*
X001002Y005529D01*
X001051Y005542D01*
X001100Y005552D01*
X001150Y005558D01*
X001200Y005560D01*
X001250Y005558D01*
X001300Y005552D01*
X001349Y005542D01*
X001398Y005529D01*
X001445Y005511D01*
X001491Y005490D01*
X001534Y005466D01*
X001576Y005438D01*
X001616Y005407D01*
X001653Y005373D01*
X001687Y005336D01*
X001718Y005296D01*
X001746Y005254D01*
X001770Y005211D01*
X001791Y005165D01*
X001809Y005118D01*
X001822Y005069D01*
X001832Y005020D01*
X001838Y004970D01*
X001840Y004920D01*
X001838Y004870D01*
X001832Y004820D01*
X001822Y004771D01*
X001809Y004722D01*
X001791Y004675D01*
X001770Y004629D01*
X001746Y004586D01*
X001718Y004544D01*
X001687Y004504D01*
X001653Y004467D01*
X001616Y004433D01*
X001576Y004402D01*
X001534Y004374D01*
X001491Y004350D01*
X001445Y004329D01*
X001398Y004311D01*
X001349Y004298D01*
X001300Y004288D01*
X001250Y004282D01*
X001200Y004280D01*
X001150Y004282D01*
X001100Y004288D01*
X001051Y004298D01*
X001002Y004311D01*
X000955Y004329D01*
X000909Y004350D01*
X000866Y004374D01*
X000824Y004402D01*
X000784Y004433D01*
X000747Y004467D01*
X000713Y004504D01*
X000682Y004544D01*
X000654Y004586D01*
X000630Y004629D01*
X000609Y004675D01*
X000591Y004722D01*
X000578Y004771D01*
X000568Y004820D01*
X000562Y004870D01*
X000560Y004920D01*
X004560Y004920D02*
X004562Y004970D01*
X004568Y005020D01*
X004578Y005069D01*
X004591Y005118D01*
X004609Y005165D01*
X004630Y005211D01*
X004654Y005254D01*
X004682Y005296D01*
X004713Y005336D01*
X004747Y005373D01*
X004784Y005407D01*
X004824Y005438D01*
X004866Y005466D01*
X004909Y005490D01*
X004955Y005511D01*
X005002Y005529D01*
X005051Y005542D01*
X005100Y005552D01*
X005150Y005558D01*
X005200Y005560D01*
X005250Y005558D01*
X005300Y005552D01*
X005349Y005542D01*
X005398Y005529D01*
X005445Y005511D01*
X005491Y005490D01*
X005534Y005466D01*
X005576Y005438D01*
X005616Y005407D01*
X005653Y005373D01*
X005687Y005336D01*
X005718Y005296D01*
X005746Y005254D01*
X005770Y005211D01*
X005791Y005165D01*
X005809Y005118D01*
X005822Y005069D01*
X005832Y005020D01*
X005838Y004970D01*
X005840Y004920D01*
X005838Y004870D01*
X005832Y004820D01*
X005822Y004771D01*
X005809Y004722D01*
X005791Y004675D01*
X005770Y004629D01*
X005746Y004586D01*
X005718Y004544D01*
X005687Y004504D01*
X005653Y004467D01*
X005616Y004433D01*
X005576Y004402D01*
X005534Y004374D01*
X005491Y004350D01*
X005445Y004329D01*
X005398Y004311D01*
X005349Y004298D01*
X005300Y004288D01*
X005250Y004282D01*
X005200Y004280D01*
X005150Y004282D01*
X005100Y004288D01*
X005051Y004298D01*
X005002Y004311D01*
X004955Y004329D01*
X004909Y004350D01*
X004866Y004374D01*
X004824Y004402D01*
X004784Y004433D01*
X004747Y004467D01*
X004713Y004504D01*
X004682Y004544D01*
X004654Y004586D01*
X004630Y004629D01*
X004609Y004675D01*
X004591Y004722D01*
X004578Y004771D01*
X004568Y004820D01*
X004562Y004870D01*
X004560Y004920D01*
X011702Y010735D02*
X011704Y010785D01*
X011710Y010835D01*
X011720Y010885D01*
X011733Y010933D01*
X011750Y010981D01*
X011771Y011027D01*
X011795Y011071D01*
X011823Y011113D01*
X011854Y011153D01*
X011888Y011190D01*
X011925Y011225D01*
X011964Y011256D01*
X012005Y011285D01*
X012049Y011310D01*
X012095Y011332D01*
X012142Y011350D01*
X012190Y011364D01*
X012239Y011375D01*
X012289Y011382D01*
X012339Y011385D01*
X012390Y011384D01*
X012440Y011379D01*
X012490Y011370D01*
X012538Y011358D01*
X012586Y011341D01*
X012632Y011321D01*
X012677Y011298D01*
X012720Y011271D01*
X012760Y011241D01*
X012798Y011208D01*
X012833Y011172D01*
X012866Y011133D01*
X012895Y011092D01*
X012921Y011049D01*
X012944Y011004D01*
X012963Y010957D01*
X012978Y010909D01*
X012990Y010860D01*
X012998Y010810D01*
X013002Y010760D01*
X013002Y010710D01*
X012998Y010660D01*
X012990Y010610D01*
X012978Y010561D01*
X012963Y010513D01*
X012944Y010466D01*
X012921Y010421D01*
X012895Y010378D01*
X012866Y010337D01*
X012833Y010298D01*
X012798Y010262D01*
X012760Y010229D01*
X012720Y010199D01*
X012677Y010172D01*
X012632Y010149D01*
X012586Y010129D01*
X012538Y010112D01*
X012490Y010100D01*
X012440Y010091D01*
X012390Y010086D01*
X012339Y010085D01*
X012289Y010088D01*
X012239Y010095D01*
X012190Y010106D01*
X012142Y010120D01*
X012095Y010138D01*
X012049Y010160D01*
X012005Y010185D01*
X011964Y010214D01*
X011925Y010245D01*
X011888Y010280D01*
X011854Y010317D01*
X011823Y010357D01*
X011795Y010399D01*
X011771Y010443D01*
X011750Y010489D01*
X011733Y010537D01*
X011720Y010585D01*
X011710Y010635D01*
X011704Y010685D01*
X011702Y010735D01*
D11*
X006787Y017716D03*
X005685Y017716D03*
D12*
X008342Y023397D03*
X008342Y024499D03*
X009712Y024499D03*
X009712Y023397D03*
X012429Y025373D03*
X012429Y026475D03*
D13*
X013736Y026409D03*
X013736Y025290D03*
X006389Y027097D03*
X006389Y028216D03*
X004578Y028236D03*
X004578Y027116D03*
X005350Y023657D03*
X005350Y022538D03*
X005633Y020559D03*
X005633Y019439D03*
X003271Y019487D03*
X003271Y020606D03*
D14*
X005751Y016046D03*
X006870Y016046D03*
X008511Y013259D03*
X009630Y013259D03*
X012499Y022897D03*
X013619Y022897D03*
X013563Y028015D03*
X012444Y028015D03*
X002914Y027070D03*
X001794Y027070D03*
D15*
X004519Y013259D03*
X012519Y013259D03*
D16*
X009141Y016082D03*
X009141Y017601D03*
X009141Y018741D03*
X009141Y019501D03*
X009141Y020261D03*
X009141Y021021D03*
X009141Y021781D03*
X008141Y022161D03*
X008141Y021401D03*
X008141Y020641D03*
X008141Y019881D03*
X008141Y019121D03*
X008141Y018361D03*
X008141Y016842D03*
X008141Y015322D03*
D17*
X008626Y005346D02*
X009511Y005346D01*
X012267Y005346D02*
X013153Y005346D01*
D18*
X001578Y010535D03*
X001578Y016542D03*
X001578Y018334D03*
X001578Y024141D03*
D19*
X001950Y008420D03*
X002450Y007420D03*
X002950Y008420D03*
X003450Y007420D03*
X003950Y008420D03*
X004450Y007420D03*
D20*
X001930Y025011D03*
X001930Y025771D03*
X002730Y025391D03*
D21*
X005386Y025076D03*
X005386Y026257D03*
D22*
X005286Y025666D03*
D23*
X004654Y025766D02*
X004654Y025566D01*
X003818Y025566D01*
X003818Y025766D01*
X004654Y025766D01*
D24*
X011130Y023231D03*
X011130Y014987D03*
D25*
X010948Y026117D03*
X010448Y026117D03*
X009948Y026117D03*
X009448Y026117D03*
X008948Y026117D03*
X008448Y026117D03*
X008448Y028164D03*
X008948Y028164D03*
X009448Y028164D03*
X009948Y028164D03*
X010448Y028164D03*
X010948Y028164D03*
X011448Y028164D03*
X011448Y026117D03*
D26*
X005782Y011735D02*
X005122Y011735D01*
X005122Y010735D02*
X005782Y010735D01*
X005782Y009735D02*
X005122Y009735D01*
D27*
X005452Y009735D02*
X005520Y009805D01*
X005995Y009805D01*
X007325Y011135D01*
X006280Y013225D02*
X008370Y013225D01*
X008511Y013259D01*
X008560Y013225D01*
X008560Y009140D01*
X012265Y005435D01*
X012267Y005346D01*
X009320Y015410D02*
X008180Y015410D01*
X008141Y015322D01*
X009130Y016075D02*
X009141Y016082D01*
X009130Y016075D02*
X006945Y016075D01*
X006870Y016046D01*
X006784Y016046D01*
X006185Y016645D01*
X005425Y016645D01*
X004855Y017215D01*
X004855Y018165D01*
X004950Y018260D01*
X004950Y018735D01*
X005615Y019400D01*
X005633Y019439D01*
X005615Y020540D02*
X005633Y020559D01*
X005710Y020635D01*
X008085Y020635D01*
X008141Y020641D01*
X008465Y021300D02*
X008500Y021401D01*
X009141Y021781D02*
X009225Y021870D01*
X008465Y022630D01*
X007800Y022630D01*
X007087Y023384D01*
X005560Y023384D01*
X005350Y023657D01*
X004626Y023960D02*
X005140Y024593D01*
X008315Y024593D01*
X008342Y024499D01*
X008370Y024530D01*
X009605Y024530D01*
X009712Y024499D01*
X009795Y024530D01*
X009890Y024625D01*
X009890Y026050D01*
X009948Y026117D01*
X009448Y026117D02*
X009415Y026050D01*
X009415Y025385D01*
X009448Y026117D02*
X009392Y026122D01*
X009392Y026502D01*
X009385Y026771D01*
X009362Y026810D01*
X009932Y027380D01*
X010745Y027380D01*
X011410Y026715D01*
X011410Y026145D01*
X011448Y026117D01*
X010948Y026117D02*
X010935Y026145D01*
X010935Y026525D01*
X010555Y026905D01*
X010448Y026117D02*
X010460Y025955D01*
X010460Y025575D01*
X011505Y024530D01*
X013025Y024530D01*
X013215Y024720D01*
X013690Y025195D01*
X013736Y025290D01*
X013736Y026409D02*
X013690Y026430D01*
X013002Y026430D01*
X013081Y026525D01*
X013002Y026430D02*
X012550Y026430D01*
X012429Y026475D01*
X012429Y025373D02*
X011881Y025373D01*
X011736Y025227D01*
X012455Y024055D02*
X012455Y022915D01*
X012499Y022897D01*
X013500Y027095D02*
X013500Y027950D01*
X013563Y028015D01*
X008940Y026335D02*
X008180Y027095D01*
X006470Y027095D01*
X006389Y027097D01*
X006565Y027000D01*
X006565Y026430D01*
X006850Y026050D02*
X005789Y025068D01*
X005386Y025068D01*
X005386Y025076D01*
X005275Y025661D02*
X005286Y025666D01*
X005275Y025661D02*
X004420Y025661D01*
X004236Y025666D01*
X004190Y025480D01*
X002955Y026715D01*
X002955Y027000D01*
X002914Y027070D01*
X002730Y025391D02*
X002765Y025385D01*
X002765Y023770D01*
X003961Y022535D01*
X002385Y020920D01*
X002385Y019020D01*
X003271Y019487D02*
X003507Y019487D01*
X003507Y018535D01*
X004475Y016930D02*
X004475Y013320D01*
X004519Y013259D01*
X005710Y013415D02*
X002860Y010565D01*
X001625Y010565D01*
X001578Y010535D01*
X005710Y013415D02*
X005710Y015980D01*
X005751Y016046D01*
X005685Y017716D02*
X005685Y018035D01*
X006618Y018968D01*
X006618Y019125D01*
X007405Y020149D01*
X006850Y021110D02*
X005615Y021110D01*
X004626Y022100D01*
X004626Y023960D01*
X005350Y022538D02*
X005520Y022630D01*
X006945Y022630D01*
X007779Y023397D02*
X007169Y024007D01*
X007011Y024007D01*
X006539Y024007D01*
X006539Y023968D01*
X006106Y023968D01*
X006106Y024007D01*
X006539Y024007D01*
X006850Y026050D02*
X008370Y026050D01*
X008448Y026117D01*
X008940Y026145D02*
X008948Y026117D01*
X008940Y026145D02*
X008940Y026335D01*
X008342Y023397D02*
X007779Y023397D01*
X005615Y020540D02*
X003335Y020540D01*
X003271Y020606D01*
X001625Y024150D02*
X001578Y024141D01*
X001625Y024150D02*
X001910Y024435D01*
X001910Y025005D01*
X001930Y025011D01*
X001930Y025771D02*
X001910Y025860D01*
X001910Y026905D01*
X001815Y027000D01*
X001794Y027070D01*
X004578Y027116D02*
X004665Y027095D01*
X005330Y026430D01*
X005330Y026326D01*
X005386Y026257D01*
X006787Y017716D02*
X006826Y017105D01*
X006696Y016920D01*
X006850Y017690D02*
X006787Y017716D01*
X006850Y017690D02*
X008210Y017690D01*
X009137Y016645D01*
X009225Y016645D01*
X009383Y016645D01*
X009573Y016645D01*
X009700Y016360D01*
X009700Y015790D01*
X009320Y015410D01*
D28*
X007325Y011135D03*
X006280Y013225D03*
X006850Y021110D03*
X006945Y022630D03*
X006565Y026430D03*
X003961Y022535D03*
X009415Y025385D03*
X010555Y026905D03*
X012455Y024055D03*
X013215Y024720D03*
X013081Y026525D03*
X013500Y027095D03*
D29*
X011736Y025227D03*
X007405Y020149D03*
X007405Y019637D03*
X007405Y019125D03*
X006696Y016920D03*
X003507Y018535D03*
X003193Y016527D03*
X003232Y015936D03*
X003232Y015385D03*
X003547Y022078D03*
X003547Y022983D03*
X006106Y024007D03*
X006578Y024007D03*
X007011Y024007D03*
D30*
X004131Y017275D02*
X003350Y017275D01*
X002759Y017826D01*
X002759Y018686D01*
X002385Y019020D01*
X004131Y017275D02*
X004475Y016930D01*
D31*
X004325Y017779D02*
X004238Y017815D01*
X003563Y017815D01*
X003299Y018061D01*
X003299Y018594D01*
X003305Y018608D01*
X003299Y018701D01*
X003299Y018793D01*
X003294Y018807D01*
X003293Y018823D01*
X003253Y018906D01*
X003217Y018992D01*
X003206Y019003D01*
X003200Y019016D01*
X003194Y019022D01*
X003194Y019409D01*
X003349Y019409D01*
X003349Y019564D01*
X003806Y019564D01*
X003806Y019825D01*
X003794Y019871D01*
X003770Y019912D01*
X003751Y019932D01*
X003841Y019969D01*
X003883Y020010D01*
X004975Y020010D01*
X004986Y019999D01*
X004956Y019969D01*
X004899Y019830D01*
X004899Y019433D01*
X004650Y019185D01*
X004501Y019036D01*
X004420Y018841D01*
X004420Y018480D01*
X004406Y018466D01*
X004325Y018271D01*
X004325Y017779D01*
X004325Y017929D02*
X003440Y017929D01*
X003299Y018087D02*
X004325Y018087D01*
X004325Y018246D02*
X003299Y018246D01*
X003299Y018404D02*
X004381Y018404D01*
X004420Y018563D02*
X003299Y018563D01*
X003299Y018721D02*
X004420Y018721D01*
X004437Y018880D02*
X003265Y018880D01*
X003349Y018992D02*
X003650Y018992D01*
X003696Y019004D01*
X003737Y019028D01*
X003770Y019061D01*
X003794Y019102D01*
X003806Y019148D01*
X003806Y019409D01*
X003349Y019409D01*
X003349Y018992D01*
X003349Y019038D02*
X003194Y019038D01*
X003194Y019197D02*
X003349Y019197D01*
X003349Y019355D02*
X003194Y019355D01*
X003349Y019514D02*
X004899Y019514D01*
X004899Y019672D02*
X003806Y019672D01*
X003805Y019831D02*
X004899Y019831D01*
X004976Y019989D02*
X003862Y019989D01*
X003806Y019355D02*
X004821Y019355D01*
X004662Y019197D02*
X003806Y019197D01*
X003748Y019038D02*
X004504Y019038D01*
X004650Y019185D02*
X004650Y019185D01*
X005480Y018516D02*
X005480Y018250D01*
X005607Y018250D01*
X005607Y017793D01*
X005762Y017793D01*
X005762Y018250D01*
X006023Y018250D01*
X006069Y018238D01*
X006110Y018214D01*
X006117Y018207D01*
X006150Y018285D01*
X006257Y018392D01*
X006396Y018450D01*
X007178Y018450D01*
X007317Y018392D01*
X007424Y018285D01*
X007451Y018220D01*
X007582Y018220D01*
X007582Y018616D01*
X007634Y018741D01*
X007582Y018867D01*
X007582Y019375D01*
X007634Y019501D01*
X007582Y019627D01*
X007582Y020105D01*
X006342Y020105D01*
X006311Y020029D01*
X006281Y019999D01*
X006311Y019969D01*
X006368Y019830D01*
X006368Y019049D01*
X006311Y018909D01*
X006204Y018802D01*
X006064Y018744D01*
X005709Y018744D01*
X005480Y018516D01*
X005527Y018563D02*
X007582Y018563D01*
X007582Y018404D02*
X007288Y018404D01*
X007440Y018246D02*
X007582Y018246D01*
X007626Y018721D02*
X005686Y018721D01*
X005480Y018404D02*
X006286Y018404D01*
X006134Y018246D02*
X006039Y018246D01*
X005762Y018246D02*
X005607Y018246D01*
X005607Y018087D02*
X005762Y018087D01*
X005762Y017929D02*
X005607Y017929D01*
X005607Y017638D02*
X005762Y017638D01*
X005762Y017181D01*
X006023Y017181D01*
X006069Y017194D01*
X006110Y017217D01*
X006117Y017225D01*
X006138Y017175D01*
X005645Y017175D01*
X005607Y017213D01*
X005607Y017638D01*
X005607Y017612D02*
X005762Y017612D01*
X005762Y017453D02*
X005607Y017453D01*
X005607Y017295D02*
X005762Y017295D01*
X006281Y018880D02*
X007582Y018880D01*
X007582Y019038D02*
X006364Y019038D01*
X006368Y019197D02*
X007582Y019197D01*
X007582Y019355D02*
X006368Y019355D01*
X006368Y019514D02*
X007629Y019514D01*
X007582Y019672D02*
X006368Y019672D01*
X006368Y019831D02*
X007582Y019831D01*
X007582Y019989D02*
X006291Y019989D01*
X006614Y021640D02*
X005835Y021640D01*
X005633Y021843D01*
X005781Y021843D01*
X005920Y021901D01*
X006027Y022007D01*
X006066Y022100D01*
X006709Y022100D01*
X006830Y022050D01*
X007061Y022050D01*
X007274Y022139D01*
X007408Y022273D01*
X007421Y022261D01*
X007488Y022189D01*
X007495Y022186D01*
X007500Y022181D01*
X007582Y022147D01*
X007582Y021906D01*
X007640Y021767D01*
X007747Y021660D01*
X007792Y021641D01*
X007782Y021603D01*
X007782Y021401D01*
X008141Y021401D01*
X008500Y021401D01*
X008500Y021603D01*
X008490Y021641D01*
X008535Y021660D01*
X008582Y021707D01*
X008582Y021526D01*
X008634Y021401D01*
X008582Y021275D01*
X008582Y021094D01*
X008535Y021142D01*
X008490Y021161D01*
X008500Y021198D01*
X008500Y021401D01*
X008141Y021401D01*
X008141Y021401D01*
X008141Y021401D01*
X007782Y021401D01*
X007782Y021198D01*
X007791Y021165D01*
X007430Y021165D01*
X007430Y021226D01*
X007342Y021439D01*
X007179Y021602D01*
X006966Y021690D01*
X006735Y021690D01*
X006614Y021640D01*
X006045Y022050D02*
X007582Y022050D01*
X007588Y021891D02*
X005898Y021891D01*
X005742Y021733D02*
X007674Y021733D01*
X007782Y021574D02*
X007207Y021574D01*
X007352Y021416D02*
X007782Y021416D01*
X007782Y021257D02*
X007417Y021257D01*
X007470Y022208D02*
X007344Y022208D01*
X007878Y023319D02*
X007539Y023677D01*
X007536Y023684D01*
X007466Y023753D01*
X007399Y023825D01*
X007392Y023828D01*
X007387Y023833D01*
X007296Y023870D01*
X007206Y023911D01*
X007199Y023911D01*
X007192Y023914D01*
X007094Y023914D01*
X006995Y023916D01*
X006989Y023914D01*
X006085Y023914D01*
X006085Y024048D01*
X006079Y024063D01*
X007627Y024063D01*
X007666Y023969D01*
X007773Y023862D01*
X007851Y023829D01*
X007844Y023822D01*
X007820Y023781D01*
X007808Y023735D01*
X007808Y023474D01*
X008265Y023474D01*
X008265Y023319D01*
X007878Y023319D01*
X007808Y023476D02*
X007729Y023476D01*
X007808Y023635D02*
X007579Y023635D01*
X007428Y023793D02*
X007827Y023793D01*
X007683Y023952D02*
X006085Y023952D01*
X005654Y026856D02*
X005313Y027197D01*
X005313Y027507D01*
X005255Y027647D01*
X005149Y027754D01*
X005058Y027791D01*
X005077Y027811D01*
X005101Y027852D01*
X005113Y027897D01*
X005113Y028159D01*
X004656Y028159D01*
X004656Y028314D01*
X004501Y028314D01*
X004501Y028731D01*
X004200Y028731D01*
X004154Y028719D01*
X004113Y028695D01*
X004079Y028662D01*
X004056Y028621D01*
X004043Y028575D01*
X004043Y028314D01*
X004501Y028314D01*
X004501Y028159D01*
X004043Y028159D01*
X004043Y027897D01*
X004056Y027852D01*
X004079Y027811D01*
X004099Y027791D01*
X004008Y027754D01*
X003901Y027647D01*
X003843Y027507D01*
X003843Y026726D01*
X003901Y026586D01*
X004008Y026479D01*
X004088Y026446D01*
X003974Y026446D01*
X003609Y026812D01*
X003609Y027500D01*
X003551Y027640D01*
X003444Y027747D01*
X003304Y027805D01*
X002523Y027805D01*
X002384Y027747D01*
X002354Y027717D01*
X002324Y027747D01*
X002185Y027805D01*
X001404Y027805D01*
X001264Y027747D01*
X001157Y027640D01*
X001099Y027500D01*
X001099Y026639D01*
X001157Y026500D01*
X001264Y026393D01*
X001380Y026345D01*
X001380Y026014D01*
X001375Y026002D01*
X001375Y025877D01*
X001370Y025848D01*
X001375Y025825D01*
X001375Y025540D01*
X001433Y025401D01*
X001443Y025391D01*
X001433Y025381D01*
X001375Y025242D01*
X001375Y024993D01*
X001372Y024963D01*
X001375Y024950D01*
X001375Y024821D01*
X001297Y024821D01*
X000898Y024423D01*
X000898Y023859D01*
X001297Y023461D01*
X001860Y023461D01*
X002235Y023836D01*
X002235Y023775D01*
X002234Y023674D01*
X002235Y023669D01*
X002235Y023665D01*
X002274Y023571D01*
X002311Y023477D01*
X002314Y023474D01*
X002316Y023470D01*
X002388Y023399D01*
X003019Y022746D01*
X003057Y022656D01*
X003182Y022531D01*
X003057Y022405D01*
X003029Y022340D01*
X002008Y021293D01*
X001936Y021221D01*
X001935Y021217D01*
X001932Y021215D01*
X001894Y021120D01*
X001855Y021026D01*
X001855Y021022D01*
X001854Y021019D01*
X001855Y020917D01*
X001855Y019141D01*
X001840Y019098D01*
X001852Y018883D01*
X001945Y018690D01*
X002219Y018444D01*
X002219Y017924D01*
X002216Y017915D01*
X002219Y017817D01*
X002219Y017718D01*
X002223Y017710D01*
X002223Y017700D01*
X002264Y017611D01*
X002302Y017520D01*
X002308Y017513D01*
X002312Y017504D01*
X002384Y017437D01*
X002454Y017368D01*
X002462Y017364D01*
X002975Y016886D01*
X003044Y016817D01*
X003053Y016813D01*
X003060Y016807D01*
X003152Y016772D01*
X003243Y016735D01*
X003252Y016735D01*
X003261Y016731D01*
X003359Y016735D01*
X003907Y016735D01*
X003945Y016697D01*
X003945Y013779D01*
X003863Y013697D01*
X003746Y013413D01*
X003746Y013105D01*
X003863Y012821D01*
X004081Y012603D01*
X004129Y012583D01*
X002641Y011095D01*
X001979Y011095D01*
X001860Y011215D01*
X001297Y011215D01*
X000898Y010816D01*
X000898Y010253D01*
X001297Y009855D01*
X001860Y009855D01*
X002041Y010035D01*
X002966Y010035D01*
X003161Y010116D01*
X003310Y010265D01*
X004479Y011434D01*
X004520Y011333D01*
X004720Y011133D01*
X004776Y011110D01*
X004733Y011068D01*
X004686Y011003D01*
X004650Y010931D01*
X004625Y010855D01*
X004612Y010775D01*
X004612Y010765D01*
X005422Y010765D01*
X005422Y010705D01*
X004612Y010705D01*
X004612Y010695D01*
X004625Y010616D01*
X004650Y010540D01*
X004686Y010468D01*
X004733Y010403D01*
X004776Y010360D01*
X004720Y010337D01*
X004520Y010138D01*
X004412Y009877D01*
X004412Y009594D01*
X004520Y009333D01*
X004720Y009133D01*
X004981Y009025D01*
X005924Y009025D01*
X006185Y009133D01*
X006384Y009333D01*
X006463Y009524D01*
X007533Y010594D01*
X007654Y010644D01*
X007817Y010807D01*
X007905Y011020D01*
X007905Y011251D01*
X007817Y011464D01*
X007654Y011627D01*
X007441Y011715D01*
X007210Y011715D01*
X006997Y011627D01*
X006834Y011464D01*
X006784Y011343D01*
X006282Y010841D01*
X006280Y010855D01*
X006255Y010931D01*
X006219Y011003D01*
X006171Y011068D01*
X006129Y011110D01*
X006185Y011133D01*
X006384Y011333D01*
X006492Y011594D01*
X006492Y011877D01*
X006384Y012138D01*
X006185Y012337D01*
X005924Y012445D01*
X005490Y012445D01*
X005865Y012820D01*
X005952Y012734D01*
X006165Y012645D01*
X006396Y012645D01*
X006516Y012695D01*
X007871Y012695D01*
X007874Y012689D01*
X007980Y012582D01*
X008030Y012561D01*
X008030Y009035D01*
X008111Y008840D01*
X011444Y005507D01*
X011444Y005182D01*
X011570Y004879D01*
X011801Y004648D01*
X012104Y004523D01*
X013317Y004523D01*
X013619Y004648D01*
X013851Y004879D01*
X013894Y004983D01*
X013894Y002400D01*
X000680Y002400D01*
X000680Y003927D01*
X000768Y003877D01*
X001053Y003800D01*
X001348Y003800D01*
X001633Y003877D01*
X001888Y004024D01*
X001954Y004090D01*
X001984Y004090D01*
X002030Y004137D01*
X002030Y004166D01*
X002097Y004233D01*
X002244Y004488D01*
X002320Y004773D01*
X002320Y005068D01*
X002244Y005353D01*
X002097Y005608D01*
X002030Y005674D01*
X002030Y005704D01*
X001984Y005750D01*
X001954Y005750D01*
X001888Y005817D01*
X001633Y005964D01*
X001348Y006040D01*
X001053Y006040D01*
X000768Y005964D01*
X000680Y005913D01*
X000680Y028999D01*
X013894Y028999D01*
X013894Y028750D01*
X013173Y028750D01*
X013033Y028692D01*
X012926Y028585D01*
X012889Y028494D01*
X012869Y028514D01*
X012828Y028538D01*
X012782Y028550D01*
X012521Y028550D01*
X012521Y028092D01*
X012366Y028092D01*
X012366Y027937D01*
X012521Y027937D01*
X012521Y027480D01*
X012782Y027480D01*
X012828Y027492D01*
X012869Y027516D01*
X012889Y027535D01*
X012926Y027445D01*
X012970Y027401D01*
X012970Y027331D01*
X012920Y027211D01*
X012920Y027145D01*
X012859Y027170D01*
X011999Y027170D01*
X011859Y027113D01*
X011811Y027064D01*
X011524Y027351D01*
X011642Y027351D01*
X011782Y027409D01*
X011889Y027516D01*
X011947Y027656D01*
X011947Y028673D01*
X011889Y028813D01*
X011782Y028920D01*
X011642Y028978D01*
X011255Y028978D01*
X011198Y028954D01*
X011142Y028978D01*
X010755Y028978D01*
X010698Y028954D01*
X010642Y028978D01*
X010255Y028978D01*
X010115Y028920D01*
X010008Y028813D01*
X009994Y028778D01*
X009948Y028778D01*
X009903Y028778D01*
X009889Y028813D01*
X009782Y028920D01*
X009642Y028978D01*
X009255Y028978D01*
X009198Y028954D01*
X009142Y028978D01*
X008755Y028978D01*
X008698Y028954D01*
X008642Y028978D01*
X008255Y028978D01*
X008115Y028920D01*
X008008Y028813D01*
X007950Y028673D01*
X007950Y027656D01*
X007963Y027625D01*
X007067Y027625D01*
X007066Y027627D01*
X006960Y027734D01*
X006869Y027771D01*
X006888Y027791D01*
X006912Y027832D01*
X006924Y027878D01*
X006924Y028139D01*
X006467Y028139D01*
X006467Y028294D01*
X006924Y028294D01*
X006924Y028555D01*
X006912Y028601D01*
X006888Y028642D01*
X006855Y028675D01*
X006814Y028699D01*
X006768Y028711D01*
X006467Y028711D01*
X006467Y028294D01*
X006312Y028294D01*
X006312Y028711D01*
X006011Y028711D01*
X005965Y028699D01*
X005924Y028675D01*
X005890Y028642D01*
X005867Y028601D01*
X005854Y028555D01*
X005854Y028294D01*
X006312Y028294D01*
X006312Y028139D01*
X005854Y028139D01*
X005854Y027878D01*
X005867Y027832D01*
X005890Y027791D01*
X005910Y027771D01*
X005819Y027734D01*
X005712Y027627D01*
X005654Y027487D01*
X005654Y026856D01*
X005654Y026963D02*
X005547Y026963D01*
X005654Y027122D02*
X005388Y027122D01*
X005313Y027280D02*
X005654Y027280D01*
X005654Y027439D02*
X005313Y027439D01*
X005276Y027597D02*
X005700Y027597D01*
X005872Y027756D02*
X005143Y027756D01*
X005113Y027914D02*
X005854Y027914D01*
X005854Y028073D02*
X005113Y028073D01*
X005113Y028314D02*
X005113Y028575D01*
X005101Y028621D01*
X005077Y028662D01*
X005044Y028695D01*
X005003Y028719D01*
X004957Y028731D01*
X004656Y028731D01*
X004656Y028314D01*
X005113Y028314D01*
X005113Y028390D02*
X005854Y028390D01*
X005854Y028548D02*
X005113Y028548D01*
X005023Y028707D02*
X005994Y028707D01*
X006312Y028707D02*
X006467Y028707D01*
X006467Y028548D02*
X006312Y028548D01*
X006312Y028390D02*
X006467Y028390D01*
X006467Y028231D02*
X007950Y028231D01*
X007950Y028073D02*
X006924Y028073D01*
X006924Y027914D02*
X007950Y027914D01*
X007950Y027756D02*
X006906Y027756D01*
X006924Y028390D02*
X007950Y028390D01*
X007950Y028548D02*
X006924Y028548D01*
X006785Y028707D02*
X007964Y028707D01*
X008061Y028865D02*
X000680Y028865D01*
X000680Y028707D02*
X004133Y028707D01*
X004043Y028548D02*
X000680Y028548D01*
X000680Y028390D02*
X004043Y028390D01*
X004043Y028073D02*
X000680Y028073D01*
X000680Y028231D02*
X004501Y028231D01*
X004656Y028231D02*
X006312Y028231D01*
X004656Y028390D02*
X004501Y028390D01*
X004501Y028548D02*
X004656Y028548D01*
X004656Y028707D02*
X004501Y028707D01*
X004043Y027914D02*
X000680Y027914D01*
X000680Y027756D02*
X001285Y027756D01*
X001139Y027597D02*
X000680Y027597D01*
X000680Y027439D02*
X001099Y027439D01*
X001099Y027280D02*
X000680Y027280D01*
X000680Y027122D02*
X001099Y027122D01*
X001099Y026963D02*
X000680Y026963D01*
X000680Y026805D02*
X001099Y026805D01*
X001099Y026646D02*
X000680Y026646D01*
X000680Y026488D02*
X001169Y026488D01*
X001380Y026329D02*
X000680Y026329D01*
X000680Y026171D02*
X001380Y026171D01*
X001380Y026012D02*
X000680Y026012D01*
X000680Y025854D02*
X001371Y025854D01*
X001375Y025695D02*
X000680Y025695D01*
X000680Y025537D02*
X001377Y025537D01*
X001432Y025378D02*
X000680Y025378D01*
X000680Y025220D02*
X001375Y025220D01*
X001375Y025061D02*
X000680Y025061D01*
X000680Y024903D02*
X001375Y024903D01*
X001220Y024744D02*
X000680Y024744D01*
X000680Y024586D02*
X001062Y024586D01*
X000903Y024427D02*
X000680Y024427D01*
X000680Y024269D02*
X000898Y024269D01*
X000898Y024110D02*
X000680Y024110D01*
X000680Y023952D02*
X000898Y023952D01*
X000964Y023793D02*
X000680Y023793D01*
X000680Y023635D02*
X001123Y023635D01*
X001281Y023476D02*
X000680Y023476D01*
X000680Y023318D02*
X002466Y023318D01*
X002619Y023159D02*
X000680Y023159D01*
X000680Y023001D02*
X002773Y023001D01*
X002926Y022842D02*
X000680Y022842D01*
X000680Y022684D02*
X003045Y022684D01*
X003177Y022525D02*
X000680Y022525D01*
X000680Y022367D02*
X003041Y022367D01*
X002902Y022208D02*
X000680Y022208D01*
X000680Y022050D02*
X002747Y022050D01*
X002592Y021891D02*
X000680Y021891D01*
X000680Y021733D02*
X002438Y021733D01*
X002283Y021574D02*
X000680Y021574D01*
X000680Y021416D02*
X002128Y021416D01*
X001973Y021257D02*
X000680Y021257D01*
X000680Y021099D02*
X001886Y021099D01*
X001855Y020940D02*
X000680Y020940D01*
X000680Y020782D02*
X001855Y020782D01*
X001855Y020623D02*
X000680Y020623D01*
X000680Y020465D02*
X001855Y020465D01*
X001855Y020306D02*
X000680Y020306D01*
X000680Y020148D02*
X001855Y020148D01*
X001855Y019989D02*
X000680Y019989D01*
X000680Y019831D02*
X001855Y019831D01*
X001855Y019672D02*
X000680Y019672D01*
X000680Y019514D02*
X001855Y019514D01*
X001855Y019355D02*
X000680Y019355D01*
X000680Y019197D02*
X001855Y019197D01*
X001844Y019038D02*
X000680Y019038D01*
X000680Y018880D02*
X001854Y018880D01*
X001777Y018814D02*
X002058Y018533D01*
X002058Y018354D01*
X001598Y018354D01*
X001558Y018354D01*
X001558Y018314D01*
X001098Y018314D01*
X001098Y018135D01*
X001380Y017854D01*
X001558Y017854D01*
X001558Y018314D01*
X001598Y018314D01*
X001598Y017854D01*
X001777Y017854D01*
X002058Y018135D01*
X002058Y018314D01*
X001598Y018314D01*
X001598Y018354D01*
X001598Y018814D01*
X001777Y018814D01*
X001870Y018721D02*
X001930Y018721D01*
X002028Y018563D02*
X002087Y018563D01*
X002058Y018404D02*
X002219Y018404D01*
X002219Y018246D02*
X002058Y018246D01*
X002011Y018087D02*
X002219Y018087D01*
X002219Y017929D02*
X001852Y017929D01*
X001598Y017929D02*
X001558Y017929D01*
X001558Y018087D02*
X001598Y018087D01*
X001598Y018246D02*
X001558Y018246D01*
X001558Y018354D02*
X001098Y018354D01*
X001098Y018533D01*
X001380Y018814D01*
X001558Y018814D01*
X001558Y018354D01*
X001558Y018404D02*
X001598Y018404D01*
X001598Y018563D02*
X001558Y018563D01*
X001558Y018721D02*
X001598Y018721D01*
X001287Y018721D02*
X000680Y018721D01*
X000680Y018563D02*
X001129Y018563D01*
X001098Y018404D02*
X000680Y018404D01*
X000680Y018246D02*
X001098Y018246D01*
X001146Y018087D02*
X000680Y018087D01*
X000680Y017929D02*
X001304Y017929D01*
X001380Y017022D02*
X001098Y016741D01*
X001098Y016562D01*
X001558Y016562D01*
X001558Y016522D01*
X001098Y016522D01*
X001098Y016344D01*
X000680Y016344D01*
X000680Y016502D02*
X001098Y016502D01*
X001098Y016344D02*
X001380Y016062D01*
X001558Y016062D01*
X001558Y016522D01*
X001598Y016522D01*
X001598Y016062D01*
X001777Y016062D01*
X002058Y016344D01*
X003945Y016344D01*
X003945Y016502D02*
X002058Y016502D01*
X002058Y016522D02*
X001598Y016522D01*
X001598Y016562D01*
X002058Y016562D01*
X002058Y016741D01*
X001777Y017022D01*
X001598Y017022D01*
X001598Y016562D01*
X001558Y016562D01*
X001558Y017022D01*
X001380Y017022D01*
X001335Y016978D02*
X000680Y016978D01*
X000680Y017136D02*
X002707Y017136D01*
X002537Y017295D02*
X000680Y017295D01*
X000680Y017453D02*
X002367Y017453D01*
X002264Y017612D02*
X000680Y017612D01*
X000680Y017770D02*
X002219Y017770D01*
X001822Y016978D02*
X002877Y016978D01*
X003042Y016819D02*
X001980Y016819D01*
X002058Y016661D02*
X003945Y016661D01*
X003945Y016185D02*
X001900Y016185D01*
X002058Y016344D02*
X002058Y016522D01*
X001598Y016502D02*
X001558Y016502D01*
X001558Y016344D02*
X001598Y016344D01*
X001598Y016185D02*
X001558Y016185D01*
X001257Y016185D02*
X000680Y016185D01*
X000680Y016027D02*
X003945Y016027D01*
X003945Y015868D02*
X000680Y015868D01*
X000680Y015710D02*
X003945Y015710D01*
X003945Y015551D02*
X000680Y015551D01*
X000680Y015393D02*
X003945Y015393D01*
X003945Y015234D02*
X000680Y015234D01*
X000680Y015076D02*
X003945Y015076D01*
X003945Y014917D02*
X000680Y014917D01*
X000680Y014759D02*
X003945Y014759D01*
X003945Y014600D02*
X000680Y014600D01*
X000680Y014442D02*
X003945Y014442D01*
X003945Y014283D02*
X000680Y014283D01*
X000680Y014125D02*
X003945Y014125D01*
X003945Y013966D02*
X000680Y013966D01*
X000680Y013808D02*
X003945Y013808D01*
X003844Y013649D02*
X000680Y013649D01*
X000680Y013491D02*
X003778Y013491D01*
X003746Y013332D02*
X000680Y013332D01*
X000680Y013174D02*
X003746Y013174D01*
X003783Y013015D02*
X000680Y013015D01*
X000680Y012857D02*
X003848Y012857D01*
X003986Y012698D02*
X000680Y012698D01*
X000680Y012540D02*
X004085Y012540D01*
X003927Y012381D02*
X000680Y012381D01*
X000680Y012223D02*
X003768Y012223D01*
X003610Y012064D02*
X000680Y012064D01*
X000680Y011906D02*
X003451Y011906D01*
X003293Y011747D02*
X000680Y011747D01*
X000680Y011589D02*
X003134Y011589D01*
X002976Y011430D02*
X000680Y011430D01*
X000680Y011272D02*
X002817Y011272D01*
X002659Y011113D02*
X001961Y011113D01*
X002009Y010004D02*
X004465Y010004D01*
X004412Y009845D02*
X000680Y009845D01*
X000680Y009687D02*
X004412Y009687D01*
X004440Y009528D02*
X000680Y009528D01*
X000680Y009370D02*
X004505Y009370D01*
X004642Y009211D02*
X000680Y009211D01*
X000680Y009053D02*
X001760Y009053D01*
X001820Y009078D02*
X001578Y008977D01*
X001393Y008793D01*
X001293Y008551D01*
X001293Y008290D01*
X001393Y008048D01*
X001578Y007863D01*
X001820Y007763D01*
X002081Y007763D01*
X002269Y007841D01*
X002211Y007811D01*
X002153Y007769D01*
X002102Y007718D01*
X002059Y007660D01*
X002027Y007596D01*
X002004Y007527D01*
X001993Y007456D01*
X001993Y007429D01*
X002442Y007429D01*
X002442Y007878D01*
X002414Y007878D01*
X002343Y007866D01*
X002281Y007846D01*
X002323Y007863D01*
X002450Y007991D01*
X002578Y007863D01*
X002620Y007846D01*
X002557Y007866D01*
X002486Y007878D01*
X002459Y007878D01*
X002459Y007429D01*
X002442Y007429D01*
X002442Y007412D01*
X002459Y007412D01*
X002459Y007429D01*
X002908Y007429D01*
X002908Y007456D01*
X002896Y007527D01*
X002874Y007596D01*
X002841Y007660D01*
X002799Y007718D01*
X002748Y007769D01*
X002690Y007811D01*
X002632Y007841D01*
X002820Y007763D01*
X003081Y007763D01*
X003269Y007841D01*
X003211Y007811D01*
X003153Y007769D01*
X003102Y007718D01*
X003059Y007660D01*
X003027Y007596D01*
X003004Y007527D01*
X002993Y007456D01*
X002993Y007429D01*
X003442Y007429D01*
X003442Y007878D01*
X003414Y007878D01*
X003343Y007866D01*
X003281Y007846D01*
X003323Y007863D01*
X003450Y007991D01*
X003578Y007863D01*
X003620Y007846D01*
X003557Y007866D01*
X003486Y007878D01*
X003459Y007878D01*
X003459Y007429D01*
X003442Y007429D01*
X003442Y007412D01*
X003459Y007412D01*
X003459Y007429D01*
X003908Y007429D01*
X003908Y007456D01*
X003896Y007527D01*
X003874Y007596D01*
X003841Y007660D01*
X003799Y007718D01*
X003748Y007769D01*
X003690Y007811D01*
X003632Y007841D01*
X003820Y007763D01*
X004081Y007763D01*
X004269Y007841D01*
X004211Y007811D01*
X004153Y007769D01*
X004102Y007718D01*
X004059Y007660D01*
X004027Y007596D01*
X004004Y007527D01*
X003993Y007456D01*
X003993Y007429D01*
X004442Y007429D01*
X004442Y007878D01*
X004414Y007878D01*
X004343Y007866D01*
X004281Y007846D01*
X004323Y007863D01*
X004508Y008048D01*
X004608Y008290D01*
X004608Y008551D01*
X004508Y008793D01*
X004323Y008977D01*
X004081Y009078D01*
X003820Y009078D01*
X003578Y008977D01*
X003450Y008850D01*
X003323Y008977D01*
X003081Y009078D01*
X002820Y009078D01*
X002578Y008977D01*
X002450Y008850D01*
X002323Y008977D01*
X002081Y009078D01*
X001820Y009078D01*
X002141Y009053D02*
X002760Y009053D01*
X002495Y008894D02*
X002406Y008894D01*
X002403Y007943D02*
X002498Y007943D01*
X002459Y007785D02*
X002442Y007785D01*
X002442Y007626D02*
X002459Y007626D01*
X002442Y007468D02*
X002459Y007468D01*
X002459Y007412D02*
X002908Y007412D01*
X002908Y007384D01*
X002896Y007313D01*
X002874Y007245D01*
X002841Y007181D01*
X002799Y007123D01*
X002748Y007072D01*
X002690Y007029D01*
X002626Y006997D01*
X002557Y006974D01*
X002486Y006963D01*
X002459Y006963D01*
X002459Y007412D01*
X002442Y007412D02*
X002442Y006963D01*
X002414Y006963D01*
X002343Y006974D01*
X002275Y006997D01*
X002211Y007029D01*
X002153Y007072D01*
X002102Y007123D01*
X002059Y007181D01*
X002027Y007245D01*
X002004Y007313D01*
X001993Y007384D01*
X001993Y007412D01*
X002442Y007412D01*
X002442Y007309D02*
X002459Y007309D01*
X002442Y007151D02*
X002459Y007151D01*
X002442Y006992D02*
X002459Y006992D01*
X002613Y006992D02*
X003288Y006992D01*
X003275Y006997D02*
X003343Y006974D01*
X003414Y006963D01*
X003442Y006963D01*
X003442Y007412D01*
X002993Y007412D01*
X002993Y007384D01*
X003004Y007313D01*
X003027Y007245D01*
X003059Y007181D01*
X003102Y007123D01*
X003153Y007072D01*
X003211Y007029D01*
X003275Y006997D01*
X003442Y006992D02*
X003459Y006992D01*
X003459Y006963D02*
X003486Y006963D01*
X003557Y006974D01*
X003626Y006997D01*
X003690Y007029D01*
X003748Y007072D01*
X003799Y007123D01*
X003841Y007181D01*
X003874Y007245D01*
X003896Y007313D01*
X003908Y007384D01*
X003908Y007412D01*
X003459Y007412D01*
X003459Y006963D01*
X003613Y006992D02*
X004288Y006992D01*
X004275Y006997D02*
X004343Y006974D01*
X004414Y006963D01*
X004442Y006963D01*
X004442Y007412D01*
X004459Y007412D01*
X004459Y007429D01*
X004442Y007429D01*
X004442Y007412D01*
X003993Y007412D01*
X003993Y007384D01*
X004004Y007313D01*
X004027Y007245D01*
X004059Y007181D01*
X004102Y007123D01*
X004153Y007072D01*
X004211Y007029D01*
X004275Y006997D01*
X004442Y006992D02*
X004459Y006992D01*
X004459Y006963D02*
X004486Y006963D01*
X004557Y006974D01*
X004626Y006997D01*
X004690Y007029D01*
X004748Y007072D01*
X004799Y007123D01*
X004841Y007181D01*
X004874Y007245D01*
X004896Y007313D01*
X004908Y007384D01*
X004908Y007412D01*
X004459Y007412D01*
X004459Y006963D01*
X004613Y006992D02*
X009959Y006992D01*
X010117Y006834D02*
X000680Y006834D01*
X000680Y006992D02*
X002288Y006992D01*
X002081Y007151D02*
X000680Y007151D01*
X000680Y007309D02*
X002006Y007309D01*
X001995Y007468D02*
X000680Y007468D01*
X000680Y007626D02*
X002042Y007626D01*
X002133Y007785D02*
X002174Y007785D01*
X001767Y007785D02*
X000680Y007785D01*
X000680Y007943D02*
X001498Y007943D01*
X001371Y008102D02*
X000680Y008102D01*
X000680Y008260D02*
X001305Y008260D01*
X001293Y008419D02*
X000680Y008419D01*
X000680Y008577D02*
X001304Y008577D01*
X001370Y008736D02*
X000680Y008736D01*
X000680Y008894D02*
X001495Y008894D01*
X001147Y010004D02*
X000680Y010004D01*
X000680Y010162D02*
X000989Y010162D01*
X000898Y010321D02*
X000680Y010321D01*
X000680Y010479D02*
X000898Y010479D01*
X000898Y010638D02*
X000680Y010638D01*
X000680Y010796D02*
X000898Y010796D01*
X001037Y010955D02*
X000680Y010955D01*
X000680Y011113D02*
X001196Y011113D01*
X002726Y007785D02*
X002767Y007785D01*
X002859Y007626D02*
X003042Y007626D01*
X002995Y007468D02*
X002906Y007468D01*
X002895Y007309D02*
X003006Y007309D01*
X003081Y007151D02*
X002820Y007151D01*
X003133Y007785D02*
X003174Y007785D01*
X003442Y007785D02*
X003459Y007785D01*
X003442Y007626D02*
X003459Y007626D01*
X003442Y007468D02*
X003459Y007468D01*
X003442Y007309D02*
X003459Y007309D01*
X003442Y007151D02*
X003459Y007151D01*
X003726Y007785D02*
X003767Y007785D01*
X003859Y007626D02*
X004042Y007626D01*
X003995Y007468D02*
X003906Y007468D01*
X003895Y007309D02*
X004006Y007309D01*
X004081Y007151D02*
X003820Y007151D01*
X004133Y007785D02*
X004174Y007785D01*
X004442Y007785D02*
X004459Y007785D01*
X004459Y007878D02*
X004486Y007878D01*
X004557Y007866D01*
X004626Y007844D01*
X004690Y007811D01*
X004748Y007769D01*
X004799Y007718D01*
X004841Y007660D01*
X004874Y007596D01*
X004896Y007527D01*
X004908Y007456D01*
X004908Y007429D01*
X004459Y007429D01*
X004459Y007878D01*
X004403Y007943D02*
X009008Y007943D01*
X009166Y007785D02*
X004726Y007785D01*
X004859Y007626D02*
X009325Y007626D01*
X009483Y007468D02*
X004906Y007468D01*
X004895Y007309D02*
X009642Y007309D01*
X009800Y007151D02*
X004820Y007151D01*
X004459Y007151D02*
X004442Y007151D01*
X004442Y007309D02*
X004459Y007309D01*
X004442Y007468D02*
X004459Y007468D01*
X004442Y007626D02*
X004459Y007626D01*
X004530Y008102D02*
X008849Y008102D01*
X008691Y008260D02*
X004595Y008260D01*
X004608Y008419D02*
X008532Y008419D01*
X008374Y008577D02*
X004597Y008577D01*
X004531Y008736D02*
X008215Y008736D01*
X008089Y008894D02*
X004406Y008894D01*
X004141Y009053D02*
X004915Y009053D01*
X004545Y010162D02*
X003207Y010162D01*
X003365Y010321D02*
X004704Y010321D01*
X004680Y010479D02*
X003524Y010479D01*
X003682Y010638D02*
X004621Y010638D01*
X004616Y010796D02*
X003841Y010796D01*
X003999Y010955D02*
X004662Y010955D01*
X004769Y011113D02*
X004158Y011113D01*
X004316Y011272D02*
X004582Y011272D01*
X004480Y011430D02*
X004475Y011430D01*
X005584Y012540D02*
X008030Y012540D01*
X008030Y012381D02*
X006078Y012381D01*
X006299Y012223D02*
X008030Y012223D01*
X008030Y012064D02*
X006415Y012064D01*
X006480Y011906D02*
X008030Y011906D01*
X008030Y011747D02*
X006492Y011747D01*
X006490Y011589D02*
X006959Y011589D01*
X006820Y011430D02*
X006425Y011430D01*
X006323Y011272D02*
X006712Y011272D01*
X006554Y011113D02*
X006136Y011113D01*
X006243Y010955D02*
X006395Y010955D01*
X006943Y010004D02*
X008030Y010004D01*
X008030Y010162D02*
X007102Y010162D01*
X007260Y010321D02*
X008030Y010321D01*
X008030Y010479D02*
X007419Y010479D01*
X007640Y010638D02*
X008030Y010638D01*
X008030Y010796D02*
X007807Y010796D01*
X007878Y010955D02*
X008030Y010955D01*
X008030Y011113D02*
X007905Y011113D01*
X007897Y011272D02*
X008030Y011272D01*
X008030Y011430D02*
X007831Y011430D01*
X007692Y011589D02*
X008030Y011589D01*
X008030Y009845D02*
X006785Y009845D01*
X006626Y009687D02*
X008030Y009687D01*
X008030Y009528D02*
X006468Y009528D01*
X006399Y009370D02*
X008030Y009370D01*
X008030Y009211D02*
X006263Y009211D01*
X005990Y009053D02*
X008030Y009053D01*
X009090Y009360D02*
X009090Y012631D01*
X009148Y012689D01*
X009185Y012780D01*
X009205Y012760D01*
X009246Y012736D01*
X009292Y012724D01*
X009553Y012724D01*
X009553Y013181D01*
X009708Y013181D01*
X009708Y012724D01*
X009969Y012724D01*
X010015Y012736D01*
X010056Y012760D01*
X010089Y012794D01*
X010113Y012835D01*
X010125Y012880D01*
X010125Y013181D01*
X009708Y013181D01*
X009708Y013336D01*
X010125Y013336D01*
X010125Y013638D01*
X010113Y013683D01*
X010089Y013724D01*
X010056Y013758D01*
X010015Y013782D01*
X009969Y013794D01*
X009708Y013794D01*
X009708Y013336D01*
X009553Y013336D01*
X009553Y013794D01*
X009292Y013794D01*
X009246Y013782D01*
X009205Y013758D01*
X009185Y013738D01*
X009148Y013829D01*
X009041Y013936D01*
X008901Y013994D01*
X008120Y013994D01*
X007980Y013936D01*
X007874Y013829D01*
X007843Y013755D01*
X006516Y013755D01*
X006396Y013805D01*
X006240Y013805D01*
X006240Y015352D01*
X006281Y015369D01*
X006311Y015399D01*
X006340Y015369D01*
X006480Y015311D01*
X007261Y015311D01*
X007401Y015369D01*
X007508Y015476D01*
X007536Y015545D01*
X007582Y015545D01*
X007582Y015068D01*
X007640Y014928D01*
X007747Y014821D01*
X007887Y014763D01*
X008395Y014763D01*
X008535Y014821D01*
X008594Y014880D01*
X009426Y014880D01*
X009621Y014961D01*
X009770Y015110D01*
X010150Y015490D01*
X010230Y015685D01*
X010230Y016263D01*
X010233Y016270D01*
X010230Y016368D01*
X010230Y016466D01*
X010227Y016473D01*
X010227Y016481D01*
X010187Y016570D01*
X010150Y016661D01*
X010144Y016666D01*
X010060Y016855D01*
X010022Y016946D01*
X010017Y016951D01*
X010014Y016958D01*
X009942Y017025D01*
X009873Y017095D01*
X009866Y017098D01*
X009860Y017103D01*
X009769Y017138D01*
X009678Y017175D01*
X009671Y017175D01*
X009663Y017178D01*
X009611Y017177D01*
X009642Y017207D01*
X009700Y017347D01*
X009700Y017856D01*
X009642Y017995D01*
X009535Y018102D01*
X009395Y018160D01*
X008887Y018160D01*
X008747Y018102D01*
X008663Y018018D01*
X008700Y018107D01*
X008700Y018616D01*
X008648Y018741D01*
X008700Y018867D01*
X008700Y019047D01*
X008747Y019000D01*
X008792Y018981D01*
X008782Y018944D01*
X008782Y018741D01*
X008782Y018539D01*
X008794Y018493D01*
X008818Y018452D01*
X008852Y018418D01*
X008893Y018395D01*
X008939Y018382D01*
X009141Y018382D01*
X009343Y018382D01*
X009389Y018395D01*
X009430Y018418D01*
X009464Y018452D01*
X009487Y018493D01*
X009500Y018539D01*
X009500Y018741D01*
X009141Y018741D01*
X009141Y018382D01*
X009141Y018741D01*
X009141Y018741D01*
X009141Y018741D01*
X008782Y018741D01*
X009141Y018741D01*
X009141Y018741D01*
X009500Y018741D01*
X009500Y018944D01*
X009490Y018981D01*
X009535Y019000D01*
X009642Y019107D01*
X009700Y019247D01*
X009700Y019755D01*
X009648Y019881D01*
X009700Y020007D01*
X009700Y020515D01*
X009648Y020641D01*
X009700Y020766D01*
X009700Y021275D01*
X009648Y021401D01*
X009700Y021526D01*
X009700Y021626D01*
X009718Y021675D01*
X009755Y021765D01*
X009755Y021773D01*
X009758Y021781D01*
X009755Y021878D01*
X009755Y021976D01*
X009752Y021984D01*
X009752Y021992D01*
X009712Y022081D01*
X009675Y022171D01*
X009669Y022177D01*
X009665Y022184D01*
X009594Y022251D01*
X008915Y022931D01*
X008853Y022993D01*
X008864Y023012D01*
X008876Y023058D01*
X008876Y023319D01*
X008420Y023319D01*
X008420Y023474D01*
X008876Y023474D01*
X008876Y023735D01*
X008864Y023781D01*
X008840Y023822D01*
X008833Y023829D01*
X008912Y023862D01*
X009019Y023969D01*
X009027Y023990D01*
X009036Y023969D01*
X009143Y023862D01*
X009221Y023829D01*
X009214Y023822D01*
X009190Y023781D01*
X009178Y023735D01*
X009178Y023474D01*
X009635Y023474D01*
X009635Y023319D01*
X009790Y023319D01*
X009790Y022902D01*
X010090Y022902D01*
X010136Y022914D01*
X010177Y022938D01*
X010211Y022971D01*
X010234Y023012D01*
X010238Y023025D01*
X010238Y022496D01*
X010250Y022450D01*
X010274Y022409D01*
X010307Y022376D01*
X010348Y022352D01*
X010394Y022340D01*
X011050Y022340D01*
X011050Y023151D01*
X011210Y023151D01*
X011210Y022340D01*
X011856Y022340D01*
X011862Y022327D01*
X011969Y022220D01*
X012108Y022162D01*
X012889Y022162D01*
X013029Y022220D01*
X013136Y022327D01*
X013174Y022417D01*
X013193Y022398D01*
X013234Y022374D01*
X013280Y022362D01*
X013541Y022362D01*
X013541Y022819D01*
X013696Y022819D01*
X013696Y022362D01*
X013894Y022362D01*
X013894Y011526D01*
X013737Y011798D01*
X013415Y012120D01*
X013020Y012347D01*
X012580Y012465D01*
X012125Y012465D01*
X011685Y012347D01*
X011290Y012120D01*
X010968Y011798D01*
X010740Y011403D01*
X010622Y010963D01*
X010622Y010508D01*
X010740Y010068D01*
X010968Y009673D01*
X011290Y009351D01*
X011685Y009123D01*
X012125Y009005D01*
X012580Y009005D01*
X013020Y009123D01*
X013415Y009351D01*
X013737Y009673D01*
X013894Y009945D01*
X013894Y005708D01*
X013851Y005812D01*
X013619Y006043D01*
X013317Y006168D01*
X012282Y006168D01*
X009090Y009360D01*
X009090Y009370D02*
X011271Y009370D01*
X011113Y009528D02*
X009090Y009528D01*
X009090Y009687D02*
X010960Y009687D01*
X010869Y009845D02*
X009090Y009845D01*
X009090Y010004D02*
X010777Y010004D01*
X010715Y010162D02*
X009090Y010162D01*
X009090Y010321D02*
X010672Y010321D01*
X010630Y010479D02*
X009090Y010479D01*
X009090Y010638D02*
X010622Y010638D01*
X010622Y010796D02*
X009090Y010796D01*
X009090Y010955D02*
X010622Y010955D01*
X010663Y011113D02*
X009090Y011113D01*
X009090Y011272D02*
X010705Y011272D01*
X010756Y011430D02*
X009090Y011430D01*
X009090Y011589D02*
X010848Y011589D01*
X010939Y011747D02*
X009090Y011747D01*
X009090Y011906D02*
X011076Y011906D01*
X011235Y012064D02*
X009090Y012064D01*
X009090Y012223D02*
X011469Y012223D01*
X011811Y012381D02*
X009090Y012381D01*
X009090Y012540D02*
X013894Y012540D01*
X013894Y012698D02*
X012647Y012698D01*
X012654Y012699D02*
X012740Y012727D01*
X012820Y012768D01*
X012893Y012821D01*
X012957Y012885D01*
X013010Y012958D01*
X013051Y013039D01*
X013079Y013125D01*
X013093Y013214D01*
X013093Y013231D01*
X012548Y013231D01*
X012548Y013287D01*
X013093Y013287D01*
X013093Y013304D01*
X013079Y013393D01*
X013051Y013479D01*
X013010Y013560D01*
X012957Y013633D01*
X012893Y013697D01*
X012820Y013750D01*
X012740Y013791D01*
X012654Y013819D01*
X012564Y013833D01*
X012548Y013833D01*
X012548Y013287D01*
X012491Y013287D01*
X012491Y013231D01*
X011946Y013231D01*
X011946Y013214D01*
X011960Y013125D01*
X011988Y013039D01*
X012029Y012958D01*
X012082Y012885D01*
X012146Y012821D01*
X012219Y012768D01*
X012299Y012727D01*
X012385Y012699D01*
X012474Y012685D01*
X012491Y012685D01*
X012491Y013231D01*
X012548Y013231D01*
X012548Y012685D01*
X012564Y012685D01*
X012654Y012699D01*
X012548Y012698D02*
X012491Y012698D01*
X012391Y012698D02*
X009152Y012698D01*
X009553Y012857D02*
X009708Y012857D01*
X009708Y013015D02*
X009553Y013015D01*
X009553Y013174D02*
X009708Y013174D01*
X009708Y013332D02*
X011950Y013332D01*
X011946Y013304D02*
X011946Y013287D01*
X012491Y013287D01*
X012491Y013833D01*
X012474Y013833D01*
X012385Y013819D01*
X012299Y013791D01*
X012219Y013750D01*
X012146Y013697D01*
X012082Y013633D01*
X012029Y013560D01*
X011988Y013479D01*
X011960Y013393D01*
X011946Y013304D01*
X011952Y013174D02*
X010125Y013174D01*
X010125Y013015D02*
X012000Y013015D01*
X012110Y012857D02*
X010119Y012857D01*
X010125Y013491D02*
X011994Y013491D01*
X012098Y013649D02*
X010122Y013649D01*
X010348Y014108D02*
X010394Y014095D01*
X011050Y014095D01*
X011050Y014907D01*
X011210Y014907D01*
X011210Y015067D01*
X012021Y015067D01*
X012021Y015723D01*
X012009Y015769D01*
X011985Y015810D01*
X011952Y015843D01*
X011911Y015867D01*
X011865Y015879D01*
X011210Y015879D01*
X011210Y015067D01*
X011050Y015067D01*
X011050Y015879D01*
X010394Y015879D01*
X010348Y015867D01*
X010307Y015843D01*
X010274Y015810D01*
X010250Y015769D01*
X010238Y015723D01*
X010238Y015067D01*
X011050Y015067D01*
X011050Y014907D01*
X010238Y014907D01*
X010238Y014252D01*
X010250Y014206D01*
X010274Y014165D01*
X010307Y014131D01*
X010348Y014108D01*
X010319Y014125D02*
X006240Y014125D01*
X006240Y014283D02*
X010238Y014283D01*
X010238Y014442D02*
X006240Y014442D01*
X006240Y014600D02*
X010238Y014600D01*
X010238Y014759D02*
X006240Y014759D01*
X006240Y014917D02*
X007651Y014917D01*
X007582Y015076D02*
X006240Y015076D01*
X006240Y015234D02*
X007582Y015234D01*
X007582Y015393D02*
X007424Y015393D01*
X008054Y013966D02*
X006240Y013966D01*
X006240Y013808D02*
X007865Y013808D01*
X008968Y013966D02*
X013894Y013966D01*
X013894Y013808D02*
X012686Y013808D01*
X012548Y013808D02*
X012491Y013808D01*
X012352Y013808D02*
X009157Y013808D01*
X009553Y013649D02*
X009708Y013649D01*
X009708Y013491D02*
X009553Y013491D01*
X009515Y014917D02*
X011050Y014917D01*
X011050Y014759D02*
X011210Y014759D01*
X011210Y014907D02*
X011210Y014095D01*
X011865Y014095D01*
X011911Y014108D01*
X011952Y014131D01*
X011985Y014165D01*
X012009Y014206D01*
X012021Y014252D01*
X012021Y014907D01*
X011210Y014907D01*
X011210Y014917D02*
X013894Y014917D01*
X013894Y014759D02*
X012021Y014759D01*
X012021Y014600D02*
X013894Y014600D01*
X013894Y014442D02*
X012021Y014442D01*
X012021Y014283D02*
X013894Y014283D01*
X013894Y014125D02*
X011940Y014125D01*
X012491Y013649D02*
X012548Y013649D01*
X012548Y013491D02*
X012491Y013491D01*
X012491Y013332D02*
X012548Y013332D01*
X012548Y013174D02*
X012491Y013174D01*
X012491Y013015D02*
X012548Y013015D01*
X012548Y012857D02*
X012491Y012857D01*
X012929Y012857D02*
X013894Y012857D01*
X013894Y013015D02*
X013039Y013015D01*
X013087Y013174D02*
X013894Y013174D01*
X013894Y013332D02*
X013089Y013332D01*
X013045Y013491D02*
X013894Y013491D01*
X013894Y013649D02*
X012940Y013649D01*
X012893Y012381D02*
X013894Y012381D01*
X013894Y012223D02*
X013236Y012223D01*
X013470Y012064D02*
X013894Y012064D01*
X013894Y011906D02*
X013628Y011906D01*
X013766Y011747D02*
X013894Y011747D01*
X013894Y011589D02*
X013857Y011589D01*
X013836Y009845D02*
X013894Y009845D01*
X013894Y009687D02*
X013745Y009687D01*
X013894Y009528D02*
X013592Y009528D01*
X013434Y009370D02*
X013894Y009370D01*
X013894Y009211D02*
X013173Y009211D01*
X012758Y009053D02*
X013894Y009053D01*
X013894Y008894D02*
X009556Y008894D01*
X009714Y008736D02*
X013894Y008736D01*
X013894Y008577D02*
X009873Y008577D01*
X010031Y008419D02*
X013894Y008419D01*
X013894Y008260D02*
X010190Y008260D01*
X010348Y008102D02*
X013894Y008102D01*
X013894Y007943D02*
X010507Y007943D01*
X010665Y007785D02*
X013894Y007785D01*
X013894Y007626D02*
X010824Y007626D01*
X010982Y007468D02*
X013894Y007468D01*
X013894Y007309D02*
X011141Y007309D01*
X011299Y007151D02*
X013894Y007151D01*
X013894Y006992D02*
X011458Y006992D01*
X011616Y006834D02*
X013894Y006834D01*
X013894Y006675D02*
X011775Y006675D01*
X011933Y006517D02*
X013894Y006517D01*
X013894Y006358D02*
X012092Y006358D01*
X012250Y006200D02*
X013894Y006200D01*
X013894Y006041D02*
X013621Y006041D01*
X013780Y005883D02*
X013894Y005883D01*
X013887Y005724D02*
X013894Y005724D01*
X013873Y004932D02*
X013894Y004932D01*
X013894Y004773D02*
X013745Y004773D01*
X013894Y004615D02*
X013539Y004615D01*
X013894Y004456D02*
X006226Y004456D01*
X006244Y004488D02*
X006320Y004773D01*
X006320Y005068D01*
X006244Y005353D01*
X006097Y005608D01*
X006030Y005674D01*
X006030Y005704D01*
X005984Y005750D01*
X005954Y005750D01*
X005888Y005817D01*
X005633Y005964D01*
X005348Y006040D01*
X005053Y006040D01*
X004768Y005964D01*
X004513Y005817D01*
X004446Y005750D01*
X004417Y005750D01*
X004370Y005704D01*
X004370Y005674D01*
X004304Y005608D01*
X004157Y005353D01*
X004080Y005068D01*
X004080Y004773D01*
X004157Y004488D01*
X004304Y004233D01*
X004370Y004166D01*
X004370Y004137D01*
X004417Y004090D01*
X004446Y004090D01*
X004513Y004024D01*
X004768Y003877D01*
X005053Y003800D01*
X005348Y003800D01*
X005633Y003877D01*
X005888Y004024D01*
X005954Y004090D01*
X005984Y004090D01*
X006030Y004137D01*
X006030Y004166D01*
X006097Y004233D01*
X006244Y004488D01*
X006278Y004615D02*
X011881Y004615D01*
X011676Y004773D02*
X009761Y004773D01*
X009751Y004768D02*
X009838Y004813D01*
X009917Y004870D01*
X009987Y004940D01*
X010044Y005019D01*
X010089Y005106D01*
X010119Y005200D01*
X010131Y005278D01*
X009579Y005278D01*
X009579Y005413D01*
X010131Y005413D01*
X010119Y005491D01*
X010089Y005585D01*
X010044Y005672D01*
X009987Y005751D01*
X009917Y005821D01*
X009838Y005878D01*
X009751Y005923D01*
X009657Y005953D01*
X009579Y005966D01*
X009579Y005413D01*
X009444Y005413D01*
X009444Y005278D01*
X009579Y005278D01*
X009579Y004726D01*
X009657Y004738D01*
X009751Y004768D01*
X009579Y004773D02*
X009444Y004773D01*
X009444Y004723D02*
X009444Y005278D01*
X008006Y005278D01*
X008018Y005200D01*
X008048Y005106D01*
X008093Y005019D01*
X008150Y004940D01*
X008220Y004870D01*
X008299Y004813D01*
X008386Y004768D01*
X008480Y004738D01*
X008577Y004723D01*
X009444Y004723D01*
X009444Y004932D02*
X009579Y004932D01*
X009579Y005090D02*
X009444Y005090D01*
X009444Y005249D02*
X009579Y005249D01*
X009579Y005407D02*
X011444Y005407D01*
X011444Y005249D02*
X010127Y005249D01*
X010081Y005090D02*
X011482Y005090D01*
X011548Y004932D02*
X009979Y004932D01*
X010095Y005566D02*
X011385Y005566D01*
X011227Y005724D02*
X010006Y005724D01*
X009829Y005883D02*
X011068Y005883D01*
X010910Y006041D02*
X000680Y006041D01*
X000680Y006200D02*
X010751Y006200D01*
X010593Y006358D02*
X000680Y006358D01*
X000680Y006517D02*
X010434Y006517D01*
X010276Y006675D02*
X000680Y006675D01*
X001773Y005883D02*
X004628Y005883D01*
X004391Y005724D02*
X002010Y005724D01*
X002121Y005566D02*
X004280Y005566D01*
X004188Y005407D02*
X002212Y005407D01*
X002272Y005249D02*
X004129Y005249D01*
X004086Y005090D02*
X002314Y005090D01*
X002320Y004932D02*
X004080Y004932D01*
X004080Y004773D02*
X002320Y004773D01*
X002278Y004615D02*
X004123Y004615D01*
X004175Y004456D02*
X002226Y004456D01*
X002134Y004298D02*
X004267Y004298D01*
X004370Y004139D02*
X002030Y004139D01*
X001813Y003981D02*
X004588Y003981D01*
X004971Y003822D02*
X001430Y003822D01*
X000971Y003822D02*
X000680Y003822D01*
X000680Y003664D02*
X013894Y003664D01*
X013894Y003822D02*
X005430Y003822D01*
X005813Y003981D02*
X013894Y003981D01*
X013894Y004139D02*
X006030Y004139D01*
X006134Y004298D02*
X013894Y004298D01*
X013894Y003505D02*
X000680Y003505D01*
X000680Y003347D02*
X013894Y003347D01*
X013894Y003188D02*
X000680Y003188D01*
X000680Y003030D02*
X013894Y003030D01*
X013894Y002871D02*
X000680Y002871D01*
X000680Y002713D02*
X013894Y002713D01*
X013894Y002554D02*
X000680Y002554D01*
X003403Y007943D02*
X003498Y007943D01*
X003495Y008894D02*
X003406Y008894D01*
X003141Y009053D02*
X003760Y009053D01*
X005773Y005883D02*
X008308Y005883D01*
X008299Y005878D02*
X008386Y005923D01*
X008480Y005953D01*
X008577Y005968D01*
X009444Y005968D01*
X009444Y005413D01*
X008006Y005413D01*
X008018Y005491D01*
X008048Y005585D01*
X008093Y005672D01*
X008150Y005751D01*
X008220Y005821D01*
X008299Y005878D01*
X008131Y005724D02*
X006010Y005724D01*
X006121Y005566D02*
X008042Y005566D01*
X008010Y005249D02*
X006272Y005249D01*
X006314Y005090D02*
X008057Y005090D01*
X008158Y004932D02*
X006320Y004932D01*
X006320Y004773D02*
X008376Y004773D01*
X009444Y005407D02*
X006212Y005407D01*
X009239Y009211D02*
X011532Y009211D01*
X011947Y009053D02*
X009397Y009053D01*
X009444Y005883D02*
X009579Y005883D01*
X009579Y005724D02*
X009444Y005724D01*
X009444Y005566D02*
X009579Y005566D01*
X006037Y012698D02*
X005743Y012698D01*
X006305Y015393D02*
X006317Y015393D01*
X008692Y018087D02*
X008732Y018087D01*
X008700Y018246D02*
X013894Y018246D01*
X013894Y018404D02*
X009406Y018404D01*
X009500Y018563D02*
X013894Y018563D01*
X013894Y018721D02*
X009500Y018721D01*
X009500Y018880D02*
X013894Y018880D01*
X013894Y019038D02*
X009573Y019038D01*
X009679Y019197D02*
X013894Y019197D01*
X013894Y019355D02*
X009700Y019355D01*
X009700Y019514D02*
X013894Y019514D01*
X013894Y019672D02*
X009700Y019672D01*
X009668Y019831D02*
X013894Y019831D01*
X013894Y019989D02*
X009693Y019989D01*
X009700Y020148D02*
X013894Y020148D01*
X013894Y020306D02*
X009700Y020306D01*
X009700Y020465D02*
X013894Y020465D01*
X013894Y020623D02*
X009655Y020623D01*
X009700Y020782D02*
X013894Y020782D01*
X013894Y020940D02*
X009700Y020940D01*
X009700Y021099D02*
X013894Y021099D01*
X013894Y021257D02*
X009700Y021257D01*
X009654Y021416D02*
X013894Y021416D01*
X013894Y021574D02*
X009700Y021574D01*
X009742Y021733D02*
X013894Y021733D01*
X013894Y021891D02*
X009755Y021891D01*
X009726Y022050D02*
X013894Y022050D01*
X013894Y022208D02*
X013002Y022208D01*
X013153Y022367D02*
X013261Y022367D01*
X013541Y022367D02*
X013696Y022367D01*
X013696Y022525D02*
X013541Y022525D01*
X013541Y022684D02*
X013696Y022684D01*
X013696Y022974D02*
X013541Y022974D01*
X013541Y023432D01*
X013280Y023432D01*
X013234Y023419D01*
X013193Y023396D01*
X013174Y023376D01*
X013136Y023467D01*
X013029Y023574D01*
X012985Y023592D01*
X012985Y023819D01*
X013035Y023940D01*
X013035Y024000D01*
X013131Y024000D01*
X013326Y024081D01*
X013423Y024179D01*
X013544Y024229D01*
X013707Y024392D01*
X013757Y024513D01*
X013839Y024595D01*
X013894Y024595D01*
X013894Y023432D01*
X013696Y023432D01*
X013696Y022974D01*
X013696Y023001D02*
X013541Y023001D01*
X013541Y023159D02*
X013696Y023159D01*
X013696Y023318D02*
X013541Y023318D01*
X013894Y023476D02*
X013126Y023476D01*
X012985Y023635D02*
X013894Y023635D01*
X013894Y023793D02*
X012985Y023793D01*
X013035Y023952D02*
X013894Y023952D01*
X013894Y024110D02*
X013355Y024110D01*
X013584Y024269D02*
X013894Y024269D01*
X013894Y024427D02*
X013722Y024427D01*
X013830Y024586D02*
X013894Y024586D01*
X013001Y025259D02*
X012963Y025244D01*
X012963Y025296D01*
X012506Y025296D01*
X012506Y025451D01*
X012963Y025451D01*
X012963Y025712D01*
X012951Y025758D01*
X012927Y025799D01*
X012920Y025806D01*
X012998Y025838D01*
X013053Y025893D01*
X013059Y025879D01*
X013088Y025850D01*
X013059Y025820D01*
X013001Y025680D01*
X013001Y025259D01*
X013001Y025378D02*
X012506Y025378D01*
X012351Y025378D02*
X011798Y025378D01*
X011782Y025362D02*
X011889Y025469D01*
X011894Y025483D01*
X011894Y025451D01*
X012351Y025451D01*
X012351Y025296D01*
X011894Y025296D01*
X011894Y025060D01*
X011725Y025060D01*
X011481Y025304D01*
X011642Y025304D01*
X011782Y025362D01*
X011894Y025220D02*
X011565Y025220D01*
X011724Y025061D02*
X011894Y025061D01*
X011210Y024079D02*
X011210Y023311D01*
X011050Y023311D01*
X011050Y024123D01*
X010447Y024123D01*
X010447Y024840D01*
X011205Y024081D01*
X011210Y024079D01*
X011176Y024110D02*
X011050Y024110D01*
X011050Y023952D02*
X011210Y023952D01*
X011210Y023793D02*
X011050Y023793D01*
X011050Y023635D02*
X011210Y023635D01*
X011210Y023476D02*
X011050Y023476D01*
X011050Y023318D02*
X011210Y023318D01*
X011210Y023001D02*
X011050Y023001D01*
X011050Y022842D02*
X011210Y022842D01*
X011210Y022684D02*
X011050Y022684D01*
X011050Y022525D02*
X011210Y022525D01*
X011210Y022367D02*
X011050Y022367D01*
X010322Y022367D02*
X009478Y022367D01*
X009320Y022525D02*
X010238Y022525D01*
X010238Y022684D02*
X009161Y022684D01*
X009003Y022842D02*
X010238Y022842D01*
X010228Y023001D02*
X010238Y023001D01*
X009790Y023001D02*
X009635Y023001D01*
X009635Y022902D02*
X009635Y023319D01*
X009178Y023319D01*
X009178Y023058D01*
X009190Y023012D01*
X009214Y022971D01*
X009247Y022938D01*
X009288Y022914D01*
X009334Y022902D01*
X009635Y022902D01*
X009635Y023159D02*
X009790Y023159D01*
X009790Y023318D02*
X009635Y023318D01*
X009178Y023318D02*
X008876Y023318D01*
X008876Y023476D02*
X009178Y023476D01*
X009178Y023635D02*
X008876Y023635D01*
X008857Y023793D02*
X009197Y023793D01*
X009053Y023952D02*
X009002Y023952D01*
X008876Y023159D02*
X009178Y023159D01*
X009197Y023001D02*
X008858Y023001D01*
X009640Y022208D02*
X011996Y022208D01*
X011017Y024269D02*
X010447Y024269D01*
X010447Y024427D02*
X010859Y024427D01*
X010700Y024586D02*
X010447Y024586D01*
X010447Y024744D02*
X010542Y024744D01*
X011753Y027122D02*
X011882Y027122D01*
X011811Y027439D02*
X012932Y027439D01*
X012949Y027280D02*
X011595Y027280D01*
X011922Y027597D02*
X011959Y027597D01*
X011961Y027590D02*
X011985Y027549D01*
X012018Y027516D01*
X012059Y027492D01*
X012105Y027480D01*
X012366Y027480D01*
X012366Y027937D01*
X011949Y027937D01*
X011949Y027636D01*
X011961Y027590D01*
X011947Y027756D02*
X011949Y027756D01*
X011947Y027914D02*
X011949Y027914D01*
X011947Y028073D02*
X012366Y028073D01*
X012366Y028092D02*
X011949Y028092D01*
X011949Y028393D01*
X011961Y028439D01*
X011985Y028480D01*
X012018Y028514D01*
X012059Y028538D01*
X012105Y028550D01*
X012366Y028550D01*
X012366Y028092D01*
X012366Y028231D02*
X012521Y028231D01*
X012521Y028390D02*
X012366Y028390D01*
X012366Y028548D02*
X012521Y028548D01*
X012787Y028548D02*
X012911Y028548D01*
X013069Y028707D02*
X011933Y028707D01*
X011947Y028548D02*
X012100Y028548D01*
X011949Y028390D02*
X011947Y028390D01*
X011947Y028231D02*
X011949Y028231D01*
X012366Y027914D02*
X012521Y027914D01*
X012521Y027756D02*
X012366Y027756D01*
X012366Y027597D02*
X012521Y027597D01*
X011836Y028865D02*
X013894Y028865D01*
X013084Y025854D02*
X013014Y025854D01*
X013007Y025695D02*
X012963Y025695D01*
X012963Y025537D02*
X013001Y025537D01*
X010061Y028865D02*
X009836Y028865D01*
X009948Y028778D02*
X009948Y028164D01*
X009948Y028164D01*
X009948Y028778D01*
X009948Y028707D02*
X009948Y028707D01*
X009948Y028548D02*
X009948Y028548D01*
X009948Y028390D02*
X009948Y028390D01*
X009948Y028231D02*
X009948Y028231D01*
X008582Y021574D02*
X008500Y021574D01*
X008500Y021416D02*
X008628Y021416D01*
X008582Y021257D02*
X008500Y021257D01*
X008578Y021099D02*
X008582Y021099D01*
X008700Y019038D02*
X008709Y019038D01*
X008700Y018880D02*
X008782Y018880D01*
X008782Y018721D02*
X008656Y018721D01*
X008700Y018563D02*
X008782Y018563D01*
X008700Y018404D02*
X008876Y018404D01*
X009141Y018404D02*
X009141Y018404D01*
X009141Y018563D02*
X009141Y018563D01*
X009141Y018721D02*
X009141Y018721D01*
X009550Y018087D02*
X013894Y018087D01*
X013894Y017929D02*
X009669Y017929D01*
X009700Y017770D02*
X013894Y017770D01*
X013894Y017612D02*
X009700Y017612D01*
X009700Y017453D02*
X013894Y017453D01*
X013894Y017295D02*
X009678Y017295D01*
X009773Y017136D02*
X013894Y017136D01*
X013894Y016978D02*
X009993Y016978D01*
X010076Y016819D02*
X013894Y016819D01*
X013894Y016661D02*
X010149Y016661D01*
X010217Y016502D02*
X013894Y016502D01*
X013894Y016344D02*
X010231Y016344D01*
X010230Y016185D02*
X013894Y016185D01*
X013894Y016027D02*
X010230Y016027D01*
X010230Y015868D02*
X010354Y015868D01*
X010238Y015710D02*
X010230Y015710D01*
X010238Y015551D02*
X010175Y015551D01*
X010238Y015393D02*
X010052Y015393D01*
X009894Y015234D02*
X010238Y015234D01*
X010238Y015076D02*
X009735Y015076D01*
X011050Y015076D02*
X011210Y015076D01*
X011210Y015234D02*
X011050Y015234D01*
X011050Y015393D02*
X011210Y015393D01*
X011210Y015551D02*
X011050Y015551D01*
X011050Y015710D02*
X011210Y015710D01*
X011210Y015868D02*
X011050Y015868D01*
X011050Y014600D02*
X011210Y014600D01*
X011210Y014442D02*
X011050Y014442D01*
X011050Y014283D02*
X011210Y014283D01*
X011210Y014125D02*
X011050Y014125D01*
X012021Y015076D02*
X013894Y015076D01*
X013894Y015234D02*
X012021Y015234D01*
X012021Y015393D02*
X013894Y015393D01*
X013894Y015551D02*
X012021Y015551D01*
X012021Y015710D02*
X013894Y015710D01*
X013894Y015868D02*
X011905Y015868D01*
X004000Y026488D02*
X003932Y026488D01*
X003876Y026646D02*
X003774Y026646D01*
X003843Y026805D02*
X003615Y026805D01*
X003609Y026963D02*
X003843Y026963D01*
X003843Y027122D02*
X003609Y027122D01*
X003609Y027280D02*
X003843Y027280D01*
X003843Y027439D02*
X003609Y027439D01*
X003569Y027597D02*
X003881Y027597D01*
X004014Y027756D02*
X003423Y027756D01*
X002405Y027756D02*
X002303Y027756D01*
X002235Y023793D02*
X002193Y023793D01*
X002248Y023635D02*
X002034Y023635D01*
X001876Y023476D02*
X002312Y023476D01*
X001598Y016978D02*
X001558Y016978D01*
X001558Y016819D02*
X001598Y016819D01*
X001598Y016661D02*
X001558Y016661D01*
X001177Y016819D02*
X000680Y016819D01*
X000680Y016661D02*
X001098Y016661D01*
D32*
X003193Y016542D02*
X003193Y016527D01*
M02*
