%
M48
M72
T01C0.0157
T02C0.0236
T03C0.0240
T04C0.0354
T05C0.0400
T06C0.0433
T07C0.0440
T08C0.0591
T09C0.1024
T10C0.1280
T11C0.1300
%
T01
X8141Y15322
X8141Y16842
X8141Y18361
X8141Y19121
X8141Y19881
X8141Y20641
X8141Y21401
X8141Y22161
X9141Y21781
X9141Y21021
X9141Y20261
X9141Y19501
X9141Y18741
X9141Y17601
X9141Y16082
T02
X7405Y19125
X7405Y19637
X7405Y20149
X6696Y16920
X3507Y18535
X3193Y16527
X3232Y15936
X3232Y15385
X3547Y22078
X3547Y22983
X6106Y24007
X6578Y24007
X7011Y24007
X11736Y25227
T03
X12455Y24055
X13215Y24720
X13081Y26525
X13500Y27095
X10555Y26905
X9415Y25385
X6945Y22630
X6850Y21110
X6565Y26430
X3961Y22535
X6280Y13225
X7325Y11135
T04
X4450Y7420
X3950Y8420
X3450Y7420
X2950Y8420
X2450Y7420
X1950Y8420
T05
X1578Y10535
X1578Y16542
X1578Y18334
X1578Y24141
T06
X4519Y13259
X12519Y13259
T07
X5452Y11735
X5452Y10735
X5452Y9735
T08
X9511Y5346
X12267Y5346
T09
X11130Y14987
X11130Y23231
T10
X1200Y4920
X5200Y4920
T11
X12352Y10735
M30
