G75*
%MOIN*%
%OFA0B0*%
%FSLAX24Y24*%
%IPPOS*%
%LPD*%
%AMOC8*
5,1,8,0,0,1.08239X$1,22.5*
%
%ADD10C,0.0000*%
%ADD11R,0.0710X0.0789*%
%ADD12R,0.0789X0.0710*%
%ADD13R,0.0790X0.0710*%
%ADD14R,0.0710X0.0790*%
%ADD15C,0.0867*%
%ADD16R,0.0437X0.0437*%
%ADD17C,0.0966*%
%ADD18OC8,0.0680*%
%ADD19C,0.0634*%
%ADD20C,0.1360*%
%ADD21R,0.0430X0.0390*%
%ADD22R,0.0631X0.0395*%
%ADD23C,0.0660*%
%ADD24R,0.0630X0.0394*%
%ADD25R,0.1504X0.1504*%
%ADD26R,0.0316X0.0946*%
%ADD27C,0.0740*%
%ADD28C,0.1380*%
%ADD29C,0.0480*%
%ADD30C,0.0476*%
D10*
X000200Y001920D02*
X000200Y029479D01*
X014374Y029479D01*
X014374Y001920D01*
X000200Y001920D01*
X000560Y004920D02*
X000562Y004970D01*
X000568Y005020D01*
X000578Y005069D01*
X000591Y005118D01*
X000609Y005165D01*
X000630Y005211D01*
X000654Y005254D01*
X000682Y005296D01*
X000713Y005336D01*
X000747Y005373D01*
X000784Y005407D01*
X000824Y005438D01*
X000866Y005466D01*
X000909Y005490D01*
X000955Y005511D01*
X001002Y005529D01*
X001051Y005542D01*
X001100Y005552D01*
X001150Y005558D01*
X001200Y005560D01*
X001250Y005558D01*
X001300Y005552D01*
X001349Y005542D01*
X001398Y005529D01*
X001445Y005511D01*
X001491Y005490D01*
X001534Y005466D01*
X001576Y005438D01*
X001616Y005407D01*
X001653Y005373D01*
X001687Y005336D01*
X001718Y005296D01*
X001746Y005254D01*
X001770Y005211D01*
X001791Y005165D01*
X001809Y005118D01*
X001822Y005069D01*
X001832Y005020D01*
X001838Y004970D01*
X001840Y004920D01*
X001838Y004870D01*
X001832Y004820D01*
X001822Y004771D01*
X001809Y004722D01*
X001791Y004675D01*
X001770Y004629D01*
X001746Y004586D01*
X001718Y004544D01*
X001687Y004504D01*
X001653Y004467D01*
X001616Y004433D01*
X001576Y004402D01*
X001534Y004374D01*
X001491Y004350D01*
X001445Y004329D01*
X001398Y004311D01*
X001349Y004298D01*
X001300Y004288D01*
X001250Y004282D01*
X001200Y004280D01*
X001150Y004282D01*
X001100Y004288D01*
X001051Y004298D01*
X001002Y004311D01*
X000955Y004329D01*
X000909Y004350D01*
X000866Y004374D01*
X000824Y004402D01*
X000784Y004433D01*
X000747Y004467D01*
X000713Y004504D01*
X000682Y004544D01*
X000654Y004586D01*
X000630Y004629D01*
X000609Y004675D01*
X000591Y004722D01*
X000578Y004771D01*
X000568Y004820D01*
X000562Y004870D01*
X000560Y004920D01*
X004560Y004920D02*
X004562Y004970D01*
X004568Y005020D01*
X004578Y005069D01*
X004591Y005118D01*
X004609Y005165D01*
X004630Y005211D01*
X004654Y005254D01*
X004682Y005296D01*
X004713Y005336D01*
X004747Y005373D01*
X004784Y005407D01*
X004824Y005438D01*
X004866Y005466D01*
X004909Y005490D01*
X004955Y005511D01*
X005002Y005529D01*
X005051Y005542D01*
X005100Y005552D01*
X005150Y005558D01*
X005200Y005560D01*
X005250Y005558D01*
X005300Y005552D01*
X005349Y005542D01*
X005398Y005529D01*
X005445Y005511D01*
X005491Y005490D01*
X005534Y005466D01*
X005576Y005438D01*
X005616Y005407D01*
X005653Y005373D01*
X005687Y005336D01*
X005718Y005296D01*
X005746Y005254D01*
X005770Y005211D01*
X005791Y005165D01*
X005809Y005118D01*
X005822Y005069D01*
X005832Y005020D01*
X005838Y004970D01*
X005840Y004920D01*
X005838Y004870D01*
X005832Y004820D01*
X005822Y004771D01*
X005809Y004722D01*
X005791Y004675D01*
X005770Y004629D01*
X005746Y004586D01*
X005718Y004544D01*
X005687Y004504D01*
X005653Y004467D01*
X005616Y004433D01*
X005576Y004402D01*
X005534Y004374D01*
X005491Y004350D01*
X005445Y004329D01*
X005398Y004311D01*
X005349Y004298D01*
X005300Y004288D01*
X005250Y004282D01*
X005200Y004280D01*
X005150Y004282D01*
X005100Y004288D01*
X005051Y004298D01*
X005002Y004311D01*
X004955Y004329D01*
X004909Y004350D01*
X004866Y004374D01*
X004824Y004402D01*
X004784Y004433D01*
X004747Y004467D01*
X004713Y004504D01*
X004682Y004544D01*
X004654Y004586D01*
X004630Y004629D01*
X004609Y004675D01*
X004591Y004722D01*
X004578Y004771D01*
X004568Y004820D01*
X004562Y004870D01*
X004560Y004920D01*
X011702Y010735D02*
X011704Y010785D01*
X011710Y010835D01*
X011720Y010885D01*
X011733Y010933D01*
X011750Y010981D01*
X011771Y011027D01*
X011795Y011071D01*
X011823Y011113D01*
X011854Y011153D01*
X011888Y011190D01*
X011925Y011225D01*
X011964Y011256D01*
X012005Y011285D01*
X012049Y011310D01*
X012095Y011332D01*
X012142Y011350D01*
X012190Y011364D01*
X012239Y011375D01*
X012289Y011382D01*
X012339Y011385D01*
X012390Y011384D01*
X012440Y011379D01*
X012490Y011370D01*
X012538Y011358D01*
X012586Y011341D01*
X012632Y011321D01*
X012677Y011298D01*
X012720Y011271D01*
X012760Y011241D01*
X012798Y011208D01*
X012833Y011172D01*
X012866Y011133D01*
X012895Y011092D01*
X012921Y011049D01*
X012944Y011004D01*
X012963Y010957D01*
X012978Y010909D01*
X012990Y010860D01*
X012998Y010810D01*
X013002Y010760D01*
X013002Y010710D01*
X012998Y010660D01*
X012990Y010610D01*
X012978Y010561D01*
X012963Y010513D01*
X012944Y010466D01*
X012921Y010421D01*
X012895Y010378D01*
X012866Y010337D01*
X012833Y010298D01*
X012798Y010262D01*
X012760Y010229D01*
X012720Y010199D01*
X012677Y010172D01*
X012632Y010149D01*
X012586Y010129D01*
X012538Y010112D01*
X012490Y010100D01*
X012440Y010091D01*
X012390Y010086D01*
X012339Y010085D01*
X012289Y010088D01*
X012239Y010095D01*
X012190Y010106D01*
X012142Y010120D01*
X012095Y010138D01*
X012049Y010160D01*
X012005Y010185D01*
X011964Y010214D01*
X011925Y010245D01*
X011888Y010280D01*
X011854Y010317D01*
X011823Y010357D01*
X011795Y010399D01*
X011771Y010443D01*
X011750Y010489D01*
X011733Y010537D01*
X011720Y010585D01*
X011710Y010635D01*
X011704Y010685D01*
X011702Y010735D01*
D11*
X006787Y017716D03*
X005685Y017716D03*
D12*
X008342Y023397D03*
X008342Y024499D03*
X009712Y024499D03*
X009712Y023397D03*
X012429Y025373D03*
X012429Y026475D03*
D13*
X013736Y026409D03*
X013736Y025290D03*
X006389Y027097D03*
X006389Y028216D03*
X004578Y028236D03*
X004578Y027116D03*
X005350Y023657D03*
X005350Y022538D03*
X005633Y020559D03*
X005633Y019439D03*
X003271Y019487D03*
X003271Y020606D03*
D14*
X005751Y016046D03*
X006870Y016046D03*
X008511Y013259D03*
X009630Y013259D03*
X012499Y022897D03*
X013619Y022897D03*
X013563Y028015D03*
X012444Y028015D03*
X002914Y027070D03*
X001794Y027070D03*
D15*
X004519Y013259D03*
X012519Y013259D03*
D16*
X009141Y016082D03*
X009141Y017601D03*
X009141Y018741D03*
X009141Y019501D03*
X009141Y020261D03*
X009141Y021021D03*
X009141Y021781D03*
X008141Y022161D03*
X008141Y021401D03*
X008141Y020641D03*
X008141Y019881D03*
X008141Y019121D03*
X008141Y018361D03*
X008141Y016842D03*
X008141Y015322D03*
D17*
X008626Y005346D02*
X009511Y005346D01*
X012267Y005346D02*
X013153Y005346D01*
D18*
X001578Y010535D03*
X001578Y016542D03*
X001578Y018334D03*
X001578Y024141D03*
D19*
X001950Y008420D03*
X002450Y007420D03*
X002950Y008420D03*
X003450Y007420D03*
X003950Y008420D03*
X004450Y007420D03*
D20*
X005200Y004920D03*
X001200Y004920D03*
D21*
X001930Y025011D03*
X001930Y025771D03*
X002730Y025391D03*
D22*
X005386Y025076D03*
X005386Y026257D03*
D23*
X004664Y025776D02*
X004664Y025556D01*
X003808Y025556D01*
X003808Y025776D01*
X004664Y025776D01*
D24*
X005385Y025666D03*
D25*
X011130Y023231D03*
X011130Y014987D03*
D26*
X010948Y026117D03*
X010448Y026117D03*
X009948Y026117D03*
X009448Y026117D03*
X008948Y026117D03*
X008448Y026117D03*
X008448Y028164D03*
X008948Y028164D03*
X009448Y028164D03*
X009948Y028164D03*
X010448Y028164D03*
X010948Y028164D03*
X011448Y028164D03*
X011448Y026117D03*
D27*
X005782Y011735D02*
X005122Y011735D01*
X005122Y010735D02*
X005782Y010735D01*
X005782Y009735D02*
X005122Y009735D01*
D28*
X012352Y010735D03*
D29*
X007325Y011135D03*
X006280Y013225D03*
X006850Y021110D03*
X006945Y022630D03*
X006565Y026430D03*
X003961Y022535D03*
X009415Y025385D03*
X010555Y026905D03*
X012455Y024055D03*
X013215Y024720D03*
X013081Y026525D03*
X013500Y027095D03*
D30*
X011736Y025227D03*
X007405Y020149D03*
X007405Y019637D03*
X007405Y019125D03*
X006696Y016920D03*
X003507Y018535D03*
X003193Y016527D03*
X003232Y015936D03*
X003232Y015385D03*
X003547Y022078D03*
X003547Y022983D03*
X006106Y024007D03*
X006578Y024007D03*
X007011Y024007D03*
M02*
